<svg width="48" height="48" viewBox="0 0 48 48" fill="none" xmlns="http://www.w3.org/2000/svg">
<path fill-rule="evenodd" clip-rule="evenodd" d="M5 21.2324C5 20.2706 5.77339 19.491 6.72742 19.491H41.2759C42.2299 19.491 43.0033 20.2706 43.0033 21.2324C43.0033 29.1925 38.0978 35.9912 31.1642 38.8109C31.1529 38.8466 31.1406 38.8885 31.1278 38.9371C31.0051 39.4011 30.906 40.1691 30.8717 41.3114C30.8434 42.2522 30.0787 43 29.145 43H18.8677C18.0013 43 17.2689 42.353 17.1553 41.4871C17.0003 40.3068 16.8169 39.4915 16.6336 38.9797C16.5826 38.8372 16.5382 38.7374 16.5048 38.6712C9.74886 35.7718 5 29.0635 5 21.2324ZM16.7456 38.7726C16.7449 38.7723 16.7442 38.772 16.7435 38.7717ZM18.0542 35.5492C12.9233 33.4304 9.19102 28.662 8.55204 22.9738ZM8.55204 22.9738H39.4512C38.7967 28.8009 34.8963 33.6622 29.5725 35.6991C28.9582 35.9339 28.5582 36.3796 28.309 36.778C28.0619 37.1731 27.9016 37.6161 27.7896 38.0398C27.6747 38.4743 27.5898 38.9699 27.5293 39.5172H20.3372C20.2101 38.8698 20.0606 38.2923 19.8832 37.7969C19.7298 37.3687 19.5343 36.9406 19.2723 36.5659C19.013 36.1951 18.6232 35.7841 18.055 35.5496" fill="#B8B8B8"/>
<path fill-rule="evenodd" clip-rule="evenodd" d="M33.5069 8.56618C33.2127 8.66693 32.8729 8.90995 32.604 9.48919L32.6009 9.49578L32.6009 9.49577C30.7239 13.4951 28.8379 17.49 26.9428 21.4805C26.5306 22.3485 25.5087 22.7103 24.6603 22.2885C23.812 21.8667 23.4585 20.821 23.8707 19.9529C25.7629 15.9683 27.6462 11.9792 29.5205 7.98569C30.1483 6.63587 31.1656 5.68229 32.4232 5.25175C33.6584 4.82888 34.967 4.96353 36.1261 5.47053C38.697 6.59509 39.7799 9.77599 38.6392 12.1458L38.6387 12.1467C38.2064 13.0436 36.7323 16.1448 34.2118 21.4603C33.8001 22.3286 32.7784 22.691 31.9298 22.2697C31.0812 21.8484 30.727 20.803 31.1388 19.9346C33.6563 14.6253 35.1368 11.5106 35.5754 10.6006C35.843 10.0431 35.568 9.02741 34.7835 8.68423C34.2646 8.45728 33.8248 8.45737 33.5069 8.56618ZM15.7136 25.1581C16.6162 24.878 17.5698 25.3996 17.8436 26.3232C18.1062 27.2091 18.4305 27.8635 18.7812 28.3351C19.2129 28.903 19.7167 29.4095 20.2794 29.841C21.0342 30.4198 21.1874 31.5151 20.6218 32.2874C20.0561 33.0597 18.9857 33.2165 18.2309 32.6377C17.4223 32.0176 16.6985 31.2894 16.0788 30.4726L16.0746 30.4671L16.0704 30.4615C15.4133 29.5809 14.9262 28.5226 14.5749 27.3376C14.3012 26.414 14.811 25.4382 15.7136 25.1581Z" fill="#B8B8B8"/>
</svg>
