<svg width="48" height="48" viewBox="0 0 48 48" fill="none" xmlns="http://www.w3.org/2000/svg">
<path fill-rule="evenodd" clip-rule="evenodd" d="M15.5118 7.83302C15.6242 6.7804 16.1198 5.80668 16.9033 5.09911C17.6869 4.39154 18.703 4.00008 19.7564 4H29.2436C30.297 4.00008 31.3131 4.39154 32.0967 5.09911C32.8802 5.80668 33.3758 6.7804 33.4882 7.83302C34.9378 7.86353 36.1882 7.93791 37.2584 8.13623C38.6966 8.40321 39.9205 8.90665 40.9166 9.90972C42.0589 11.0558 42.5484 12.5032 42.7799 14.2195C43 15.8709 43 17.9743 43 20.5812V32.2328C43 34.8396 43 36.943 42.7799 38.5964C42.5484 40.3126 42.0589 41.7581 40.9166 42.9061C39.7744 44.0541 38.3361 44.5461 36.6284 44.7788C34.9833 45 32.8905 45 30.2967 45H18.7033C16.1095 45 14.0167 45 12.3716 44.7788C10.6639 44.5461 9.22564 44.0541 8.08338 42.9061C6.94113 41.7581 6.45159 40.3126 6.222 38.5964C6 36.943 6 34.8396 6 32.2328V20.5812C6 17.9743 6 15.8709 6.222 14.2176C6.44969 12.5013 6.94303 11.0558 8.08338 9.90781C9.07954 8.90665 10.3034 8.4013 11.7416 8.13623C12.8118 7.93791 14.0641 7.86353 15.5118 7.83302ZM15.5156 10.6935C14.1533 10.724 13.1021 10.7927 12.2558 10.949C11.1819 11.1473 10.5576 11.4677 10.0966 11.9311C9.57097 12.4593 9.22944 13.1993 9.04159 14.6009C8.84995 16.0387 8.84615 17.9495 8.84615 20.686V32.1279C8.84615 34.8644 8.84995 36.7733 9.04159 38.215C9.22944 39.6147 9.57287 40.3546 10.0966 40.8828C10.6222 41.4111 11.3584 41.7543 12.753 41.9431C14.1836 42.1357 16.0849 42.1395 18.8077 42.1395H30.1923C32.9151 42.1395 34.8145 42.1357 36.2489 41.9431C37.6416 41.7543 38.3778 41.4092 38.9034 40.8828C39.429 40.3546 39.7706 39.6147 39.9584 38.2131C40.15 36.7733 40.1538 34.8644 40.1538 32.1279V20.686C40.1538 17.9495 40.15 16.0387 39.9584 14.599C39.7706 13.1993 39.4271 12.4593 38.9034 11.9311C38.4405 11.4677 37.8181 11.1493 36.7442 10.949C35.8979 10.7927 34.8467 10.724 33.4844 10.6954C33.363 11.7401 32.8639 12.7037 32.0821 13.4029C31.3003 14.1022 30.2902 14.4885 29.2436 14.4884H19.7564C18.7095 14.4884 17.6992 14.1019 16.9173 13.4022C16.1354 12.7026 15.6366 11.7386 15.5156 10.6935ZM19.7564 6.86047C19.379 6.86047 19.017 7.01115 18.7501 7.27937C18.4833 7.54759 18.3333 7.91138 18.3333 8.2907V10.1977C18.3333 10.9872 18.9709 11.6279 19.7564 11.6279H29.2436C29.621 11.6279 29.983 11.4772 30.2499 11.209C30.5167 10.9408 30.6667 10.577 30.6667 10.1977V8.2907C30.6667 7.91138 30.5167 7.54759 30.2499 7.27937C29.983 7.01115 29.621 6.86047 29.2436 6.86047H19.7564Z" fill="#0060AE"/>
<path fill-rule="evenodd" clip-rule="evenodd" d="M14 20.4302C14 20.0509 14.1499 19.6871 14.4168 19.4189C14.6837 19.1507 15.0457 19 15.4231 19H34.3974C34.7749 19 35.1368 19.1507 35.4037 19.4189C35.6706 19.6871 35.8205 20.0509 35.8205 20.4302C35.8205 20.8096 35.6706 21.1733 35.4037 21.4416C35.1368 21.7098 34.7749 21.8605 34.3974 21.8605H15.4231C15.0457 21.8605 14.6837 21.7098 14.4168 21.4416C14.1499 21.1733 14 20.8096 14 20.4302ZM15.8974 27.1047C15.8974 26.7253 16.0474 26.3615 16.3142 26.0933C16.5811 25.8251 16.9431 25.6744 17.3205 25.6744H32.5C32.8774 25.6744 33.2394 25.8251 33.5063 26.0933C33.7731 26.3615 33.9231 26.7253 33.9231 27.1047C33.9231 27.484 33.7731 27.8478 33.5063 28.116C33.2394 28.3842 32.8774 28.5349 32.5 28.5349H17.3205C16.9431 28.5349 16.5811 28.3842 16.3142 28.116C16.0474 27.8478 15.8974 27.484 15.8974 27.1047ZM17.7949 33.7791C17.7949 33.3998 17.9448 33.036 18.2117 32.7677C18.4786 32.4995 18.8405 32.3488 19.2179 32.3488H30.6026C30.98 32.3488 31.342 32.4995 31.6088 32.7677C31.8757 33.036 32.0256 33.3998 32.0256 33.7791C32.0256 34.1584 31.8757 34.5222 31.6088 34.7904C31.342 35.0586 30.98 35.2093 30.6026 35.2093H19.2179C18.8405 35.2093 18.4786 35.0586 18.2117 34.7904C17.9448 34.5222 17.7949 34.1584 17.7949 33.7791Z" fill="#00AD4D"/>
</svg>
