<svg width="48" height="48" viewBox="0 0 48 48" fill="none" xmlns="http://www.w3.org/2000/svg">
<path fill-rule="evenodd" clip-rule="evenodd" d="M20.3783 5.85615C20.9409 5.30797 21.7039 5 22.4996 5H25.4995C26.2951 5 27.0582 5.30797 27.6208 5.85615C28.1834 6.40433 28.4994 7.14783 28.4994 7.92308L28.4933 16.3897L36.0264 12.1374L36.0303 12.1352C36.7088 11.7548 37.5147 11.6526 38.2706 11.8511C39.0265 12.0496 39.6706 12.5325 40.0611 13.1937L41.6048 15.8047L41.6073 15.8091C41.9944 16.4689 42.0978 17.2512 41.8952 17.9851C41.6925 18.7191 41.2001 19.3451 40.5255 19.7266L32.9727 23.9918L40.5177 28.2525C40.5191 28.2533 40.5204 28.254 40.5218 28.2548C40.8567 28.4423 41.1505 28.6922 41.3865 28.9902C41.6235 29.2894 41.7974 29.6312 41.8984 29.9962C41.9994 30.3611 42.0254 30.7418 41.975 31.1165C41.9246 31.4913 41.7987 31.8526 41.6046 32.1798L40.062 34.789C39.6715 35.4501 39.0275 35.9331 38.2716 36.1316C37.5156 36.3301 36.7098 36.2279 36.0312 35.8475L36.0273 35.8453L28.4941 31.5929L28.4994 40.0769C28.4994 40.8522 28.1834 41.5957 27.6208 42.1439C27.0582 42.692 26.2951 43 25.4995 43H22.4996C21.7039 43 20.9409 42.692 20.3783 42.1439C19.8157 41.5957 19.4996 40.8522 19.4996 40.0769L19.5058 31.6012L11.9727 35.8535L11.9688 35.8557C11.2902 36.2361 10.4843 36.3383 9.72845 36.1398C8.97275 35.9413 8.32886 35.4586 7.93832 34.7977C7.93825 34.7976 7.93817 34.7975 7.93809 34.7973C7.93806 34.7973 7.93803 34.7972 7.938 34.7972L6.3943 32.1861C6.39274 32.1835 6.3912 32.1809 6.38966 32.1782C6.00528 31.5186 5.90338 30.7379 6.10607 30.0056C6.30875 29.2732 6.79968 28.6483 7.47229 28.2664L7.47532 28.2647L15.0273 24L7.47794 19.7368C7.14313 19.5493 6.8494 19.2995 6.61349 19.0016C6.37654 18.7024 6.20258 18.3605 6.10159 17.9956C6.0006 17.6307 5.97457 17.25 6.02499 16.8752C6.07535 16.501 6.20095 16.1402 6.39461 15.8133C6.39488 15.8129 6.39515 15.8124 6.39542 15.812L7.93707 13.2019C7.93707 13.2019 7.93706 13.2019 7.93707 13.2019C8.32757 12.5407 8.97161 12.0578 9.72751 11.8593C10.4834 11.6608 11.2893 11.763 11.9679 12.1434L11.9718 12.1456L19.505 16.398L19.4996 7.92308C19.4996 7.14783 19.8157 6.40433 20.3783 5.85615ZM22.4996 7.92308L22.5061 18.2925C22.5076 18.6117 22.4232 18.9258 22.2612 19.2033C22.0979 19.4833 21.8615 19.7163 21.5759 19.8786C21.2904 20.0409 20.9659 20.1268 20.6354 20.1275C20.3048 20.1282 19.9799 20.0437 19.6936 19.8827L19.6918 19.8816L10.5132 14.7004L9.01973 17.229L18.2128 22.4203L18.2197 22.4243C18.5017 22.5855 18.7354 22.8157 18.8979 23.0921C19.0604 23.3685 19.1458 23.6815 19.1458 24C19.1458 24.3185 19.0604 24.6315 18.8979 24.9079C18.7355 25.1843 18.5017 25.4145 18.2197 25.5757L18.2128 25.5797L9.01975 30.771L10.5141 33.2987L19.6927 28.1175L19.6946 28.1164C19.9808 27.9554 20.3057 27.8709 20.6363 27.8716C20.9669 27.8723 21.2914 27.9582 21.5769 28.1205C21.8624 28.2828 22.0988 28.5157 22.2622 28.7958C22.4241 29.0734 22.5085 29.3875 22.5071 29.7067L22.4996 40.0769H25.4995L25.4929 29.6984C25.4915 29.3792 25.5759 29.0651 25.7378 28.7875C25.9012 28.5075 26.1376 28.2745 26.4231 28.1123C26.7086 27.95 27.0331 27.8641 27.3637 27.8634C27.6943 27.8627 28.0192 27.9471 28.3054 28.1082L28.3073 28.1092L37.4859 33.2904L38.9803 30.7628L29.7872 25.5714L29.7803 25.5675C29.4984 25.4063 29.2646 25.1761 29.1021 24.8997C28.9396 24.6233 28.8542 24.3103 28.8542 23.9918C28.8542 23.6733 28.9396 23.3603 29.1021 23.0839C29.2646 22.8074 29.4984 22.5772 29.7803 22.4161L29.7872 22.4121L38.98 17.2209L37.4849 14.6922L28.3063 19.8734L28.3045 19.8744C28.0182 20.0355 27.6933 20.12 27.3628 20.1192C27.0322 20.1185 26.7077 20.0327 26.4222 19.8704C26.1367 19.7081 25.9002 19.4751 25.7369 19.1951C25.5749 18.9175 25.4905 18.6034 25.492 18.2842L25.4995 7.92308L22.4996 7.92308ZM10.5371 14.6599C10.5371 14.66 10.5371 14.66 10.5371 14.66Z" fill="#B8B8B8"/>
</svg>
