<svg width="48" height="48" viewBox="0 0 48 48" fill="none" xmlns="http://www.w3.org/2000/svg">
<path fill-rule="evenodd" clip-rule="evenodd" d="M4.83087 6C5.62953 6 6.27697 6.64744 6.27697 7.4461V37.6536C6.27697 38.4146 6.57927 39.1444 7.11736 39.6825C7.65545 40.2206 8.38525 40.5229 9.14623 40.5229H39.3537C40.1147 40.5229 40.8445 40.2206 41.3826 39.6825C41.9207 39.1444 42.223 38.4146 42.223 37.6536V17.5229H35.0384C34.2397 17.5229 33.5923 16.8755 33.5923 16.0768C33.5923 15.2782 34.2397 14.6307 35.0384 14.6307H43.6691C44.4678 14.6307 45.1152 15.2782 45.1152 16.0768V37.6536C45.1152 39.1816 44.5082 40.6471 43.4277 41.7276C42.3472 42.8081 40.8818 43.4151 39.3537 43.4151H9.14623C7.61819 43.4151 6.15274 42.8081 5.07226 41.7276C3.99177 40.6471 3.38477 39.1816 3.38477 37.6536V7.4461C3.38477 6.64744 4.03221 6 4.83087 6Z" fill="#0060AE"/>
<path fill-rule="evenodd" clip-rule="evenodd" d="M3.38477 7.4461C3.38477 6.64744 4.03221 6 4.83087 6H35.0384C35.837 6 36.4845 6.64744 36.4845 7.4461V37.6536C36.4845 38.4146 36.7868 39.1444 37.3249 39.6825C37.863 40.2206 38.5928 40.5229 39.3537 40.5229C40.1524 40.5229 40.7998 41.1703 40.7998 41.969C40.7998 42.7676 40.1524 43.4151 39.3537 43.4151C37.8257 43.4151 36.3603 42.8081 35.2798 41.7276C34.1993 40.6471 33.5923 39.1816 33.5923 37.6536V8.89221H4.83087C4.03221 8.89221 3.38477 8.24477 3.38477 7.4461Z" fill="#0060AE"/>
<path fill-rule="evenodd" clip-rule="evenodd" d="M12.0146 15.4213C12.0146 14.6227 12.6621 13.9752 13.4608 13.9752H26.4068C27.2055 13.9752 27.8529 14.6227 27.8529 15.4213C27.8529 16.22 27.2055 16.8674 26.4068 16.8674H13.4608C12.6621 16.8674 12.0146 16.22 12.0146 15.4213ZM16.33 24.052C16.33 23.2534 16.9774 22.6059 17.7761 22.6059H26.4068C27.2055 22.6059 27.8529 23.2534 27.8529 24.052C27.8529 24.8507 27.2055 25.4981 26.4068 25.4981H17.7761C16.9774 25.4981 16.33 24.8507 16.33 24.052Z" fill="#00AD4D"/>
</svg>
