<svg width="48" height="48" viewBox="0 0 48 48" fill="none" xmlns="http://www.w3.org/2000/svg">
<path d="M15 10.5C15 9.30653 15.4741 8.16193 16.318 7.31802C17.1619 6.47411 18.3065 6 19.5 6H28.5C29.6935 6 30.8381 6.47411 31.682 7.31802C32.5259 8.16193 33 9.30653 33 10.5V15H37.5C38.6935 15 39.8381 15.4741 40.682 16.318C41.5259 17.1619 42 18.3065 42 19.5V28.5C42 29.6935 41.5259 30.8381 40.682 31.682C39.8381 32.5259 38.6935 33 37.5 33H33V37.5C33 38.6935 32.5259 39.8381 31.682 40.682C30.8381 41.5259 29.6935 42 28.5 42H19.5C18.3065 42 17.1619 41.5259 16.318 40.682C15.4741 39.8381 15 38.6935 15 37.5V33H10.5C9.30653 33 8.16193 32.5259 7.31802 31.682C6.47411 30.8381 6 29.6935 6 28.5V19.5C6 18.3065 6.47411 17.1619 7.31802 16.318C8.16193 15.4741 9.30653 15 10.5 15H15V10.5ZM28.5 10.5H19.5V17.25C19.5 17.8467 19.2629 18.419 18.841 18.841C18.419 19.2629 17.8467 19.5 17.25 19.5H10.5V28.5H17.25C17.8467 28.5 18.419 28.7371 18.841 29.159C19.2629 29.581 19.5 30.1533 19.5 30.75V37.5H28.5V30.75C28.5 30.1533 28.7371 29.581 29.159 29.159C29.581 28.7371 30.1533 28.5 30.75 28.5H37.5V19.5H30.75C30.1533 19.5 29.581 19.2629 29.159 18.841C28.7371 18.419 28.5 17.8467 28.5 17.25V10.5Z" fill="#B8B8B8"/>
</svg>
