<svg width="48" height="48" viewBox="0 0 48 48" fill="none" xmlns="http://www.w3.org/2000/svg">
<path d="M19.3207 37.8934L24.3835 33.1878C25.4372 32.2132 26.2085 31.3756 26.6972 30.6751C27.1859 29.9746 27.4303 29.2284 27.4303 28.4365C27.4303 27.5685 27.1783 26.9137 26.6743 26.4721C26.1856 26.0152 25.5518 25.7868 24.7729 25.7868C24.0093 25.7868 23.3679 26.0457 22.8486 26.5635C22.3293 27.066 22.0697 27.736 22.0697 28.5736H19C19 27.4619 19.2367 26.4873 19.7102 25.6497C20.1989 24.8122 20.8861 24.165 21.7719 23.7081C22.673 23.236 23.7268 23 24.9333 23C25.9565 23 26.8957 23.2132 27.751 23.6396C28.6215 24.0508 29.3088 24.6523 29.8127 25.4442C30.332 26.236 30.5916 27.1497 30.5916 28.1853C30.5916 29.0381 30.4542 29.8147 30.1793 30.5152C29.9044 31.2157 29.4768 31.9162 28.8964 32.6168C28.3161 33.3173 27.4837 34.1853 26.3994 35.2208L23.8795 37.6193V37.7107H30.8665V40.7259H19.3207V37.8934Z" fill="#0060AE"/>
<path d="M37.9522 41C36.7304 41 35.6079 40.764 34.5847 40.2919C33.5767 39.8198 32.8207 39.2335 32.3167 38.533L34.5159 36.3401C34.9741 36.8122 35.4781 37.2081 36.0279 37.5279C36.593 37.8325 37.3108 37.9848 38.1813 37.9848C38.8991 37.9848 39.5176 37.7487 40.0369 37.2766C40.5714 36.8046 40.8386 36.2183 40.8386 35.5178C40.8386 34.7563 40.5714 34.132 40.0369 33.6447C39.5176 33.1574 38.7922 32.9137 37.8606 32.9137H36.6006V30.264H37.9064C38.6547 30.264 39.2427 30.0279 39.6703 29.5558C40.1132 29.0685 40.3347 28.4975 40.3347 27.8426C40.3347 27.1726 40.1132 26.6624 39.6703 26.3122C39.2427 25.9619 38.7158 25.7868 38.0896 25.7868C37.5093 25.7868 36.99 25.9162 36.5319 26.1751C36.0737 26.4188 35.5392 26.7766 34.9283 27.2487L33.004 25.3299C33.5538 24.7665 34.3098 24.2411 35.2719 23.7538C36.2493 23.2513 37.242 23 38.25 23C39.258 23 40.1514 23.1904 40.9303 23.5711C41.7092 23.9518 42.3124 24.4924 42.74 25.1929C43.1829 25.8782 43.4044 26.6777 43.4044 27.5914C43.4044 28.566 43.1677 29.3807 42.6942 30.0355C42.2361 30.6904 41.6786 31.1624 41.0219 31.4518V31.5431C41.4954 31.6345 41.9612 31.8477 42.4193 32.1827C42.8775 32.5025 43.2517 32.9518 43.5418 33.5305C43.8473 34.1091 44 34.7944 44 35.5863C44 36.6827 43.7404 37.6421 43.2211 38.4645C42.7019 39.2716 41.9841 39.8959 41.0677 40.3376C40.1514 40.7792 39.1129 41 37.9522 41Z" fill="#0060AE"/>
<path d="M8.697 18.661H8.549L4.109 21.732L2 18.365L9.585 13H13.877V41.268H8.697V18.661Z" fill="#00AD4D"/>
<path d="M44.5303 16.5303C44.8232 16.2374 44.8232 15.7626 44.5303 15.4697L39.7574 10.6967C39.4645 10.4038 38.9896 10.4038 38.6967 10.6967C38.4038 10.9896 38.4038 11.4645 38.6967 11.7574L42.9393 16L38.6967 20.2426C38.4038 20.5355 38.4038 21.0104 38.6967 21.3033C38.9896 21.5962 39.4645 21.5962 39.7574 21.3033L44.5303 16.5303ZM20 16.75L44 16.75L44 15.25L20 15.25L20 16.75Z" fill="#0060AE"/>
</svg>
