<svg width="48" height="48" viewBox="0 0 48 48" fill="none" xmlns="http://www.w3.org/2000/svg">
<path fill-rule="evenodd" clip-rule="evenodd" d="M3 22.6779C3 12.3622 11.3622 4 21.6779 4C31.9936 4 40.3558 12.3622 40.3558 22.6779C40.3558 32.9936 31.9936 41.3558 21.6779 41.3558C11.3622 41.3558 3 32.9936 3 22.6779ZM21.6779 7.93219C13.5339 7.93219 6.93219 14.5339 6.93219 22.6779C6.93219 30.8219 13.5339 37.4236 21.6779 37.4236C29.8219 37.4236 36.4236 30.8219 36.4236 22.6779C36.4236 14.5339 29.8219 7.93219 21.6779 7.93219Z" fill="#0060AE"/>
<path fill-rule="evenodd" clip-rule="evenodd" d="M17.9148 12.6107C19.1077 12.1166 20.3865 11.863 21.6776 11.8644C22.9687 11.863 24.2474 12.1166 25.4403 12.6107C26.634 13.1051 27.7183 13.8305 28.6307 14.7453C29.3975 15.5141 29.396 16.7589 28.6272 17.5258C27.8584 18.2926 26.6135 18.291 25.8467 17.5222C25.3001 16.9743 24.6507 16.5398 23.9357 16.2436C23.2206 15.9475 22.4541 15.7955 21.6802 15.7966H21.675C20.901 15.7955 20.1345 15.9475 19.4195 16.2436C18.7045 16.5398 18.055 16.9743 17.5085 17.5222C16.7417 18.291 15.4968 18.2926 14.728 17.5258C13.9592 16.7589 13.9576 15.5141 14.7245 14.7453C15.6369 13.8305 16.7211 13.1051 17.9148 12.6107ZM32.3022 33.3025C33.07 32.5347 34.3148 32.5347 35.0826 33.3025L43.4238 41.6437C44.1916 42.4115 44.1916 43.6563 43.4238 44.4241C42.656 45.192 41.4111 45.192 40.6433 44.4241L32.3022 36.083C31.5344 35.3152 31.5344 34.0703 32.3022 33.3025Z" fill="#0060AE"/>
<path fill-rule="evenodd" clip-rule="evenodd" d="M17.9148 12.6107C19.1077 12.1166 20.3865 11.863 21.6776 11.8644C22.9687 11.863 24.2474 12.1166 25.4403 12.6107C26.634 13.1051 27.7183 13.8305 28.6307 14.7453C29.3975 15.5141 29.396 16.7589 28.6272 17.5258C27.8584 18.2926 26.6135 18.291 25.8467 17.5222C25.3001 16.9743 24.6507 16.5398 23.9357 16.2436C23.2206 15.9475 22.4541 15.7955 21.6802 15.7966H21.675C20.901 15.7955 20.1345 15.9475 19.4195 16.2436C18.7045 16.5398 18.055 16.9743 17.5085 17.5222C16.7417 18.291 15.4968 18.2926 14.728 17.5258C13.9592 16.7589 13.9576 15.5141 14.7245 14.7453C15.6369 13.8305 16.7211 13.1051 17.9148 12.6107Z" fill="#00AD4D"/>
</svg>
