<svg width="48" height="48" viewBox="0 0 48 48" fill="none" xmlns="http://www.w3.org/2000/svg">
<path d="M18.5994 29.2506V30.3C18.5994 32.4483 19.4527 34.5085 20.9717 36.0276C22.4906 37.5466 24.5508 38.4 26.699 38.4C28.8471 38.4 30.9073 37.5466 32.4262 36.0276C33.9452 34.5085 34.7985 32.4483 34.7985 30.3V27.294C33.5971 26.8694 32.5845 26.0336 31.9396 24.9345C31.2948 23.8355 31.0593 22.5438 31.2747 21.2878C31.4901 20.0318 32.1425 18.8924 33.1168 18.071C34.091 17.2496 35.3242 16.7991 36.5985 16.7991C37.8727 16.7991 39.1059 17.2496 40.0802 18.071C41.0544 18.8924 41.7068 20.0318 41.9223 21.2878C42.1377 22.5438 41.9021 23.8355 41.2573 24.9345C40.6124 26.0336 39.5998 26.8694 38.3984 27.294V30.3C38.3984 33.403 37.1658 36.379 34.9717 38.5731C32.7776 40.7673 29.8018 42 26.699 42C23.5961 42 20.6203 40.7673 18.4262 38.5731C16.2322 36.379 14.9995 33.403 14.9995 30.3V29.2506C12.4831 28.8245 10.1989 27.5212 8.55155 25.5717C6.90425 23.6222 6.00033 21.1523 6 18.6L6 9.6C6 8.64522 6.37927 7.72955 7.05436 7.05442C7.72946 6.37928 8.64509 6 9.59982 6H11.3997C11.8771 6 12.3349 6.18964 12.6725 6.52721C13.01 6.86477 13.1996 7.32261 13.1996 7.8C13.1996 8.27739 13.01 8.73523 12.6725 9.07279C12.3349 9.41036 11.8771 9.6 11.3997 9.6H9.59982V18.6C9.59982 20.5096 10.3583 22.3409 11.7085 23.6912C13.0587 25.0414 14.89 25.8 16.7995 25.8C18.7089 25.8 20.5402 25.0414 21.8904 23.6912C23.2406 22.3409 23.9991 20.5096 23.9991 18.6V9.6H22.1992C21.7218 9.6 21.264 9.41036 20.9265 9.07279C20.5889 8.73523 20.3993 8.27739 20.3993 7.8C20.3993 7.32261 20.5889 6.86477 20.9265 6.52721C21.264 6.18964 21.7218 6 22.1992 6H23.9991C24.9538 6 25.8695 6.37928 26.5445 7.05442C27.2196 7.72955 27.5989 8.64522 27.5989 9.6V18.6C27.5986 21.1523 26.6947 23.6222 25.0474 25.5717C23.4001 27.5212 21.1158 28.8245 18.5994 29.2506ZM36.5985 24C37.0758 24 37.5336 23.8104 37.8712 23.4728C38.2087 23.1352 38.3984 22.6774 38.3984 22.2C38.3984 21.7226 38.2087 21.2648 37.8712 20.9272C37.5336 20.5896 37.0758 20.4 36.5985 20.4C36.1211 20.4 35.6633 20.5896 35.3257 20.9272C34.9882 21.2648 34.7985 21.7226 34.7985 22.2C34.7985 22.6774 34.9882 23.1352 35.3257 23.4728C35.6633 23.8104 36.1211 24 36.5985 24Z" fill="#B8B8B8"/>
</svg>
