<svg width="48" height="48" viewBox="0 0 48 48" fill="none" xmlns="http://www.w3.org/2000/svg">
<path d="M25.0857 29.9556L18.4786 23.2889L33.1024 8.53333C33.4548 8.17778 33.8735 8 34.3586 8C34.8437 8 35.2619 8.17778 35.6131 8.53333L39.7095 12.6667C40.0619 13.0222 40.2381 13.4447 40.2381 13.9342C40.2381 14.4237 40.0619 14.8456 39.7095 15.2L25.0857 29.9556ZM25.0857 24.8889L36.0095 13.9111L34.3798 12.2667L23.5 23.2889L25.0857 24.8889ZM22.619 40L26.1429 36.4444H42V40H22.619ZM12.1798 40C10.829 40 9.52927 39.7333 8.28067 39.2C7.03206 38.6667 5.93851 37.9259 5 36.9778L16.6726 25.2444L21.2536 29.8667C21.6647 30.2815 21.9877 30.7556 22.2226 31.2889C22.4575 31.8222 22.575 32.3852 22.575 32.9778C22.575 33.5704 22.4575 34.1404 22.2226 34.688C21.9877 35.2356 21.6647 35.7173 21.2536 36.1333L20.4167 36.9778C19.477 37.9259 18.3834 38.6667 17.136 39.2C15.8886 39.7333 14.5889 40 13.2369 40H12.1798ZM12.1798 36.4444H13.2369C14.1179 36.4444 14.9694 36.2738 15.7917 35.9324C16.6139 35.5911 17.3333 35.1099 17.95 34.4889L18.7869 33.6444C18.9631 33.4667 19.0512 33.2593 19.0512 33.0222C19.0512 32.7852 18.9631 32.5778 18.7869 32.4L16.6726 30.2667L10.6821 36.2667C10.9171 36.3259 11.1667 36.3704 11.431 36.4C11.6952 36.4296 11.9448 36.4444 12.1798 36.4444Z" fill="#B8B8B8"/>
</svg>
