<svg width="48" height="48" viewBox="0 0 48 48" fill="none" xmlns="http://www.w3.org/2000/svg">
<path d="M24 5C13.5234 5 5 13.5234 5 24V31.8717C5 33.8173 6.7043 35.4 8.8 35.4H10.7C11.2039 35.4 11.6872 35.1998 12.0435 34.8435C12.3998 34.4872 12.6 34.0039 12.6 33.5V23.7283C12.6 23.2244 12.3998 22.7411 12.0435 22.3848C11.6872 22.0285 11.2039 21.8283 10.7 21.8283H8.9748C10.0312 14.4753 16.3582 8.8 24 8.8C31.6418 8.8 37.9688 14.4753 39.0252 21.8283H37.3C36.7961 21.8283 36.3128 22.0285 35.9565 22.3848C35.6002 22.7411 35.4 23.2244 35.4 23.7283V35.4C35.4 37.4957 33.6957 39.2 31.6 39.2H27.8V37.3H20.2V43H31.6C35.7914 43 39.2 39.5914 39.2 35.4C41.2957 35.4 43 33.8173 43 31.8717V24C43 13.5234 34.4766 5 24 5Z" fill="#0060AE"/>
<circle cx="23.5" cy="39.5" r="5.5" fill="#00AD4D"/>
</svg>
