<svg width="100" height="110" viewBox="0 0 100 110" fill="none" xmlns="http://www.w3.org/2000/svg">
<path d="M25.8857 13.9853C26.2504 14.1776 26.6647 14.1511 27.1222 13.9024C27.3477 13.7798 27.5134 13.6207 27.6261 13.4251C27.7554 13.1996 27.762 12.9808 27.6493 12.7687C27.5068 12.5035 27.1918 12.4305 26.7045 12.5432L25.3486 12.8515C24.8182 12.8814 24.4204 12.6593 24.1651 12.1852C24.0226 11.9266 23.9861 11.6216 24.0557 11.2736C24.1618 10.7498 24.5298 10.3155 25.163 9.97071C25.6304 9.71545 26.1078 9.58616 26.5852 9.57953C26.6946 9.57953 26.7741 9.60605 26.8272 9.65909C26.9034 9.73534 27.0095 9.89778 27.1421 10.1464C27.225 10.3022 27.1985 10.4183 27.0559 10.4945C26.983 10.5343 26.867 10.5078 26.7012 10.4149C26.4824 10.2956 26.3133 10.2193 26.1907 10.1961C25.9487 10.1464 25.6901 10.1961 25.4183 10.342C25.2359 10.4415 25.1 10.5741 25.0105 10.7398C24.9077 10.9255 24.9044 11.1078 25.0006 11.2802C25.1464 11.552 25.4647 11.6349 25.9487 11.5288L27.2979 11.2305C27.825 11.2039 28.2162 11.4227 28.4682 11.8902C28.6638 12.2482 28.6903 12.6427 28.5544 13.0737C28.3886 13.5875 28.0074 14.0052 27.414 14.3301C26.804 14.6616 26.2603 14.7809 25.7796 14.6881C25.4315 14.6218 25.2061 14.4925 25.1 14.2936C25.0536 14.2107 25.0437 14.1246 25.0635 14.0317C25.0834 13.9422 25.1332 13.8726 25.2127 13.8295C25.3089 13.7765 25.4216 13.7765 25.5575 13.8262C25.5807 13.8328 25.6901 13.8892 25.8857 13.9919" fill="#00AD4D"/>
<path d="M32.7721 7.46115C32.7157 7.49762 32.6594 7.52745 32.5997 7.55398C32.4737 7.60702 32.3544 7.61033 32.2384 7.56724C32.1223 7.52414 32.0395 7.44126 31.9864 7.3186C31.9268 7.17274 31.9367 7.03019 32.0196 6.89427C32.0925 6.77161 32.2019 6.67878 32.3544 6.6158C32.5334 6.53955 32.7058 6.53623 32.8716 6.60254C33.034 6.66884 33.1533 6.7915 33.2296 6.97052C33.3423 7.24567 33.329 7.56061 33.1931 7.91864C33.1202 8.11092 33.0439 8.25346 32.9677 8.34629C33.1003 8.51867 33.213 8.71427 33.3025 8.93306C33.5744 9.58614 33.5611 10.2326 33.2627 10.8724C32.9743 11.489 32.4936 11.9366 31.824 12.215C31.2107 12.4703 30.5974 12.4968 29.9841 12.2946C29.3045 12.0692 28.8205 11.6084 28.5288 10.9122C28.2569 10.2525 28.2602 9.61598 28.5453 8.99605C28.8205 8.3927 29.2945 7.9551 29.9642 7.67663C30.6405 7.39485 31.2936 7.36833 31.9201 7.59044C32.2351 7.70316 32.5036 7.8656 32.729 8.07776V8.07113C32.8019 7.8656 32.8152 7.66337 32.7688 7.46447M29.583 7.44126L29.5366 7.32855C29.51 7.26556 29.4968 7.22246 29.4968 7.20257C29.4968 7.18268 29.5167 7.14622 29.5598 7.09649C29.7023 6.92079 29.7388 6.74509 29.6625 6.56607C29.583 6.37711 29.4702 6.31081 29.3211 6.37379C29.205 6.42021 29.1719 6.50308 29.2249 6.61911C29.278 6.73514 29.2415 6.81802 29.1155 6.86775C28.9995 6.91416 28.9233 6.89095 28.8835 6.79813C28.8271 6.65889 28.8404 6.50308 28.9299 6.33401C28.9962 6.19809 29.099 6.10527 29.2349 6.04891C29.4669 5.95277 29.6791 5.94283 29.8714 6.02239C30.0272 6.08869 30.1432 6.21798 30.2195 6.40695C30.2758 6.54618 30.2692 6.68873 30.1996 6.8346C30.1598 6.92079 30.0769 7.03019 29.9476 7.16279C29.9012 7.2092 29.8979 7.27551 29.931 7.36501C29.9509 7.41143 29.9609 7.44789 29.9609 7.4711C29.9609 7.51088 29.9178 7.54403 29.8415 7.57718C29.7421 7.61696 29.6758 7.62359 29.6426 7.59044C29.6327 7.57718 29.6095 7.53077 29.5763 7.45121L29.583 7.44126ZM31.6615 11.7575C32.0958 11.5785 32.3345 11.2404 32.3809 10.7398C32.4174 10.3486 32.3345 9.91765 32.1389 9.44691C31.9433 8.97616 31.6947 8.6115 31.3897 8.35623C30.9985 8.02472 30.5908 7.94847 30.1598 8.12749C29.7454 8.29988 29.5167 8.6347 29.4736 9.1386C29.4338 9.53973 29.5067 9.96406 29.6924 10.4116C29.8846 10.8757 30.1333 11.2404 30.4349 11.5056C30.8261 11.8504 31.2339 11.9332 31.6582 11.7575H31.6615Z" fill="#00AD4D"/>
<path d="M37.9475 9.20489L37.6956 8.17389C37.0392 7.64015 36.4391 7.08321 35.8954 6.49975C35.8159 6.41687 35.7595 6.36383 35.7197 6.33731C35.68 6.31079 35.6037 6.28758 35.491 6.26106C35.3518 6.22791 35.2722 6.16493 35.2523 6.07542C35.2291 5.98259 35.2623 5.91298 35.3485 5.85993C35.3982 5.8301 35.5109 5.79363 35.6833 5.75054L36.8469 5.46544C37.069 5.41239 37.2016 5.45881 37.2381 5.60799C37.2546 5.67097 37.2215 5.74059 37.1386 5.81684C37.0557 5.89309 37.0226 5.95276 37.0292 5.98922C37.0756 6.1815 37.5596 6.66551 38.4746 7.44456C38.9586 6.41687 39.1741 5.78037 39.1144 5.53174C39.1012 5.4787 39.0349 5.42897 38.9188 5.38587C38.8028 5.34278 38.7365 5.29305 38.7199 5.23006C38.6868 5.08751 38.7796 4.99137 39.0017 4.93502L39.552 4.7991C39.6879 4.76595 39.7774 4.75269 39.8239 4.75269C39.9233 4.75269 39.983 4.80573 40.0095 4.90518C40.0294 4.99137 40.0095 5.06762 39.9366 5.12729C39.8437 5.20686 39.7774 5.32289 39.7343 5.47538C39.4857 6.34063 39.1874 7.12631 38.8426 7.83243L39.1078 8.91316C39.1343 9.02256 39.1575 9.09549 39.1807 9.13527C39.2139 9.19494 39.2636 9.23141 39.3299 9.24467C39.4824 9.28445 39.5686 9.34081 39.5852 9.41374C39.6183 9.55629 39.5321 9.65243 39.3266 9.70215L38.1265 9.9972C37.921 10.0469 37.7983 10.0005 37.7652 9.86128C37.7453 9.7784 37.7817 9.70215 37.8746 9.62922C37.9508 9.57286 37.9906 9.50656 37.9939 9.43363C37.9939 9.38722 37.984 9.31097 37.9574 9.19826" fill="#00AD4D"/>
<path d="M44.5838 7.98818L44.2821 4.93165C44.2689 4.78578 44.249 4.69959 44.2225 4.66644C44.186 4.61671 44.1097 4.60013 43.9871 4.6134C43.7749 4.63329 43.5992 4.69959 43.4567 4.80899C43.3904 4.85871 43.3008 4.95154 43.1914 5.08746C43.1053 5.19023 43.029 5.24658 42.9594 5.25321C42.8168 5.26647 42.7373 5.19354 42.7207 5.0311C42.7207 5.00126 42.724 4.8786 42.7439 4.65981C42.7572 4.48742 42.7837 4.37471 42.8268 4.32167C42.8666 4.26862 42.9693 4.23547 43.1351 4.2189L46.4502 3.89401C46.6126 3.87744 46.722 3.89402 46.7718 3.9338C46.8215 3.97689 46.8712 4.08298 46.9176 4.24873C46.9773 4.45758 47.0105 4.57693 47.0105 4.60677C47.027 4.76921 46.9641 4.85871 46.8215 4.87197C46.7519 4.8786 46.6657 4.83882 46.5629 4.75595C46.427 4.64323 46.3209 4.5703 46.248 4.53383C46.0889 4.45427 45.9032 4.42443 45.691 4.44764C45.5717 4.4609 45.4955 4.49405 45.4723 4.54709C45.4524 4.58356 45.4524 4.67307 45.4656 4.81893L45.7673 7.87215C45.7772 7.98487 45.7905 8.06112 45.8104 8.1009C45.8336 8.16388 45.8767 8.20698 45.9397 8.23019C46.0855 8.28986 46.1618 8.35616 46.1684 8.43572C46.1817 8.58159 46.0855 8.66447 45.8734 8.68436L44.6435 8.8037C44.4313 8.82359 44.3186 8.76392 44.3053 8.61806C44.2954 8.53186 44.3451 8.46224 44.4479 8.40257C44.5308 8.35616 44.5805 8.29649 44.5937 8.22687C44.6037 8.18377 44.6004 8.10421 44.5904 7.98818" fill="#00AD4D"/>
<path d="M49.0095 6.23457L49.026 7.34845C49.0327 7.69653 49.1089 7.9087 49.2581 7.98163C49.3443 8.02805 49.5929 8.04794 50.0007 8.04794C50.2228 8.04462 50.3885 8.02805 50.5013 7.9949C50.6538 7.94848 50.793 7.85566 50.919 7.7098C51.1079 7.50094 51.2472 7.39486 51.3367 7.39486C51.3963 7.39486 51.4527 7.41475 51.4991 7.45453C51.5488 7.49431 51.572 7.54404 51.572 7.60371C51.572 7.70648 51.5289 7.90207 51.4394 8.19049C51.3997 8.32309 51.3532 8.40928 51.3035 8.43912C51.2538 8.47227 51.1577 8.48885 51.0151 8.49216L47.8326 8.5452C47.6204 8.5452 47.511 8.4789 47.511 8.32972C47.511 8.24353 47.5641 8.17723 47.6702 8.1275C47.7563 8.08772 47.8094 8.03136 47.8293 7.96506C47.8425 7.92196 47.8459 7.8424 47.8459 7.72637L47.7961 4.64994C47.7961 4.50739 47.7862 4.41788 47.7729 4.3781C47.753 4.32175 47.7099 4.28528 47.6403 4.27202C47.511 4.23887 47.4447 4.16925 47.4414 4.05654C47.4414 3.91067 47.5442 3.83442 47.7563 3.83111L50.7963 3.78138C51.0052 3.78138 51.1278 3.81122 51.1676 3.87752C51.2339 3.99355 51.2704 4.18583 51.2737 4.46098C51.2737 4.64663 51.2007 4.73945 51.0449 4.74277C50.9621 4.74277 50.8626 4.68309 50.7433 4.55712C50.6007 4.40794 50.4383 4.31512 50.2493 4.27865C50.1664 4.26207 49.9775 4.25876 49.6758 4.26207C49.4669 4.26539 49.3277 4.27533 49.2548 4.2886C49.0691 4.32838 48.9763 4.41125 48.9796 4.53391L48.9995 5.70083L49.9808 5.68426C50.1333 5.68426 50.2659 5.64116 50.3753 5.5616C50.488 5.48204 50.5576 5.44226 50.5874 5.44226C50.7399 5.44226 50.8162 5.58481 50.8228 5.88317C50.8228 6.06218 50.8228 6.1749 50.8162 6.21799C50.7897 6.35723 50.7167 6.42685 50.604 6.42685C50.5642 6.42685 50.488 6.39038 50.3753 6.31745C50.2626 6.24451 50.1333 6.20805 49.9907 6.21136L49.0095 6.22794V6.23457ZM48.3895 3.21118L49.0658 2.43545C49.1586 2.30284 49.2349 2.23322 49.2912 2.23322H49.5498C49.6095 2.22659 49.6891 2.2929 49.7819 2.4255L50.4847 3.18135C50.5908 3.29406 50.6438 3.36368 50.6438 3.38357C50.6438 3.42667 50.5742 3.44987 50.4383 3.4565C50.5377 3.44987 50.4548 3.44987 50.1896 3.4565C50.0471 3.4565 49.9377 3.41672 49.8614 3.33384L49.5299 2.9526C49.5001 2.91614 49.4669 2.89625 49.4305 2.89625C49.3973 2.89625 49.3642 2.91614 49.3343 2.95592L49.0161 3.3471C48.9432 3.4333 48.8371 3.47971 48.6945 3.48302C48.4293 3.48634 48.3464 3.48965 48.4459 3.49297C48.3067 3.49297 48.237 3.46976 48.237 3.42667C48.237 3.40677 48.2868 3.33716 48.3895 3.21781V3.21118ZM48.6481 1.58015L49.3575 1.16907C49.5465 1.05967 49.7056 1.00332 49.8349 1C49.9178 1 49.994 1.05967 50.067 1.18565C50.1366 1.31162 50.1731 1.4177 50.1764 1.51053C50.1764 1.60998 50.0836 1.68623 49.888 1.73927L49.0128 1.97796C48.7608 2.04758 48.6116 2.08073 48.5586 2.08073C48.5122 2.08073 48.4724 2.04426 48.4393 1.96801C48.4094 1.90503 48.3928 1.84535 48.3895 1.79563C48.3895 1.75253 48.4757 1.6796 48.6448 1.58015H48.6481Z" fill="#00AD4D"/>
<path d="M54.3375 7.84573L54.7519 4.79582C54.7685 4.67979 54.7685 4.60023 54.7585 4.55713C54.7453 4.49083 54.6989 4.43116 54.6193 4.38143C54.5232 4.32176 54.4801 4.24551 54.4933 4.15601C54.5132 4.01014 54.6292 3.95378 54.8381 3.98362L56.0614 4.14938C56.2735 4.17921 56.3664 4.2654 56.3465 4.40795C56.3332 4.50741 56.2768 4.56708 56.1741 4.59029C56.0713 4.61349 56.005 4.65659 55.9752 4.72289C55.9586 4.75604 55.9387 4.83229 55.9254 4.95495L55.7796 6.03899L57.7023 6.30089L57.8482 5.21684C57.8648 5.10413 57.8681 5.02125 57.8615 4.97815C57.8449 4.90854 57.7952 4.84887 57.7156 4.80245C57.6195 4.7461 57.5764 4.66985 57.5896 4.57703C57.6095 4.43116 57.7256 4.3748 57.9344 4.40132L59.1577 4.56708C59.3699 4.59692 59.4627 4.68311 59.4428 4.82566C59.4295 4.91848 59.3732 4.97815 59.2704 5.00468C59.1676 5.0312 59.1013 5.07429 59.0715 5.13397C59.0549 5.16712 59.0383 5.24668 59.0184 5.37265L58.6041 8.42256C58.5875 8.53859 58.5842 8.61484 58.5908 8.65462C58.6007 8.71098 58.6372 8.76402 58.7002 8.81374C58.8195 8.90325 58.8726 8.98613 58.8626 9.06238C58.8427 9.20493 58.7267 9.2646 58.5179 9.23476L57.2913 9.06901C57.0791 9.03917 56.9863 8.95298 57.0062 8.81043C57.0161 8.72424 57.0725 8.67119 57.1719 8.64467C57.3112 8.61152 57.3974 8.48555 57.4272 8.26343L57.6294 6.77826L55.7066 6.51637L55.5044 8.00154C55.4878 8.12089 55.4845 8.20045 55.4912 8.24023C55.5011 8.29327 55.5409 8.34631 55.6138 8.39935C55.7265 8.48223 55.7763 8.56511 55.763 8.64136C55.7431 8.78722 55.6271 8.84358 55.4182 8.81706L54.195 8.6513C53.9828 8.62147 53.89 8.53527 53.9099 8.39272C53.9198 8.31648 53.996 8.25349 54.1386 8.20376C54.2414 8.17061 54.3044 8.05127 54.3309 7.84573" fill="#00AD4D"/>
<path d="M62.1798 8.53199L60.4095 8.09771C60.1542 8.44912 60.005 8.71101 59.9653 8.87677C59.9454 8.96296 59.9785 9.05578 60.0713 9.15523C60.1642 9.25469 60.2006 9.33425 60.1841 9.40055C60.1509 9.53316 59.9984 9.56631 59.7233 9.50001L59.2061 9.37403C58.9641 9.31436 58.8613 9.21491 58.8978 9.07236C58.9144 9.00605 58.974 8.95301 59.0768 8.91655C59.1497 8.89003 59.1961 8.87345 59.2094 8.8635C59.2459 8.84361 59.2823 8.80715 59.3155 8.76405C59.9619 7.62365 60.7974 6.48657 61.825 5.35611C61.9112 5.26329 61.9974 5.21025 62.0836 5.2003C62.14 5.19699 62.2427 5.21356 62.3985 5.25003C62.5544 5.28981 62.6538 5.32628 62.6936 5.36274C62.7201 5.39589 62.7533 5.47877 62.7864 5.61138C63.0748 6.73852 63.2903 8.12755 63.4395 9.78179C63.4461 9.86135 63.4925 9.94423 63.5787 10.0271C63.6483 10.0934 63.6716 10.163 63.655 10.2393C63.6185 10.3818 63.4959 10.4249 63.2804 10.3719L62.2129 10.11C61.9543 10.047 61.8449 9.95086 61.8781 9.81494C61.8947 9.75196 61.9543 9.70223 62.0571 9.66576C62.1632 9.6293 62.2195 9.59615 62.2262 9.56299C62.2593 9.4337 62.2427 9.08893 62.1764 8.52868M60.7112 7.62697L62.1267 7.97505C62.0571 7.22584 61.9576 6.61586 61.8317 6.14842C61.4272 6.61917 61.0526 7.11312 60.7112 7.63028V7.62697ZM62.4582 4.07316L63.0583 4.6301C63.2041 4.76602 63.2704 4.85553 63.2605 4.89863C63.2472 4.94835 63.2207 5.00139 63.1743 5.05775C63.1279 5.12405 63.0781 5.15389 63.0317 5.14394C62.982 5.13068 62.8428 5.06438 62.614 4.94172L61.8151 4.51407C61.6361 4.41793 61.5598 4.3218 61.583 4.22566C61.6029 4.13946 61.6626 4.04001 61.762 3.93393C61.8582 3.82784 61.9477 3.78475 62.0273 3.80464C62.1532 3.83447 62.2958 3.9273 62.4549 4.07648L62.4582 4.07316Z" fill="#00AD4D"/>
<path d="M66.4407 10.5774L67.5181 7.93859C67.5944 7.75294 67.6341 7.6336 67.6408 7.58387C67.6507 7.46453 67.6043 7.35844 67.4949 7.26893C67.3623 7.15953 67.3126 7.05677 67.3524 6.96726C67.4087 6.83134 67.5513 6.81145 67.7767 6.90427L68.6022 7.24241C68.7149 7.28882 68.7911 7.32861 68.8276 7.36507C68.8674 7.40154 68.9071 7.47447 68.9536 7.58718C69.1392 8.0513 69.4243 9.17181 69.8089 10.9454L70.6277 8.93644C70.6708 8.83035 70.684 8.74748 70.6708 8.6878C70.6542 8.62813 70.6045 8.5552 70.5183 8.46901C70.4321 8.38281 70.4056 8.29662 70.442 8.20711C70.4752 8.12755 70.5349 8.09108 70.6211 8.0944C70.6774 8.09771 70.7769 8.13086 70.926 8.19054L71.4498 8.40602C71.7217 8.51873 71.8344 8.63476 71.7847 8.75742C71.7482 8.85024 71.6686 8.89334 71.5526 8.89334C71.4167 8.89003 71.3272 8.90329 71.2808 8.93312C71.2343 8.96296 71.1879 9.03589 71.1382 9.15192L69.8155 12.3908C69.7425 12.5731 69.6762 12.6792 69.6232 12.709C69.5602 12.7488 69.4409 12.7322 69.2652 12.6593C69.0961 12.5897 69.0066 12.5168 68.99 12.4372C68.7149 11.0449 68.3767 9.66245 67.969 8.2933L66.9512 10.7896C66.9081 10.8957 66.8916 10.9785 66.9081 11.0382C66.9247 11.0979 66.9744 11.1708 67.0639 11.2537C67.1501 11.3399 67.1767 11.4261 67.1402 11.5189C67.0905 11.6416 66.928 11.6482 66.6562 11.5355L66.1324 11.32C65.8605 11.2073 65.7478 11.0913 65.7976 10.9686C65.8307 10.8857 65.907 10.8426 66.0197 10.836C66.1689 10.8227 66.265 10.8062 66.3081 10.783C66.3512 10.7598 66.3943 10.6934 66.4407 10.5774Z" fill="#00AD4D"/>
<path d="M72.3912 14.277C71.8077 13.9621 71.3999 13.5013 71.1712 12.8979C70.9159 12.2283 70.969 11.5619 71.3303 10.8989C71.6685 10.2724 72.1691 9.87454 72.8288 9.70547C73.4719 9.53971 74.1084 9.62922 74.7482 9.97731C75.398 10.3287 75.8289 10.816 76.0477 11.4426C76.2765 12.0824 76.2201 12.7255 75.8754 13.362C75.5372 13.9853 75.0267 14.3798 74.3438 14.5522C73.6841 14.7146 73.0343 14.6251 72.3978 14.2803M71.7845 15.5368C71.6419 15.4605 71.5392 15.3478 71.4696 15.2052C71.3999 15.0594 71.4033 14.9201 71.4762 14.7842C71.5524 14.645 71.6685 14.5621 71.821 14.5389C71.9768 14.5157 72.126 14.5422 72.2718 14.6218C72.4144 14.698 72.5138 14.8107 72.5768 14.9533C72.6398 15.0992 72.6332 15.2384 72.5602 15.3743C72.4873 15.5069 72.3779 15.5832 72.2221 15.6097C72.0696 15.6329 71.9237 15.6097 71.7845 15.5334V15.5368ZM72.6531 13.8626C73.0641 14.0847 73.4785 14.0582 73.8962 13.7831C74.2211 13.5676 74.5029 13.2361 74.7482 12.7819C74.9902 12.3344 75.1162 11.91 75.1228 11.5155C75.1328 11.005 74.9339 10.637 74.5261 10.4149C74.1349 10.2027 73.7272 10.2359 73.3095 10.5177C72.9713 10.7398 72.6862 11.0647 72.4575 11.489C72.2188 11.9299 72.0928 12.3509 72.0762 12.7554C72.0563 13.2758 72.2486 13.6438 72.6531 13.8659V13.8626ZM74.0918 9.03582L75.0631 8.69104C75.209 8.61811 75.3085 8.59822 75.3582 8.62474L75.5869 8.7474C75.64 8.77724 75.6764 8.87006 75.693 9.0325L75.935 10.0337C75.9715 10.1862 75.9848 10.269 75.9748 10.2889C75.9549 10.3254 75.882 10.3155 75.7593 10.2525C75.8488 10.2956 75.7759 10.2525 75.5438 10.1298C75.4179 10.0602 75.3449 9.97068 75.3184 9.86128L75.2156 9.36733C75.2057 9.3176 75.1891 9.28776 75.156 9.27119C75.1261 9.25461 75.0864 9.25461 75.0433 9.2745L74.5725 9.46015C74.4664 9.49993 74.3504 9.48667 74.2244 9.41705C73.9924 9.29108 73.9194 9.25461 74.0023 9.30434C73.883 9.23472 73.8332 9.18168 73.8531 9.1419C73.8631 9.12201 73.9426 9.08886 74.0885 9.03582H74.0918Z" fill="#00AD4D"/>
<path d="M75.6836 15.1456L77.3611 12.5665C77.4373 12.4471 77.4804 12.3676 77.4903 12.3278C77.5069 12.2714 77.4903 12.2184 77.4406 12.1653C77.3511 12.0659 77.3345 11.9697 77.3975 11.8736C77.4771 11.7509 77.6064 11.7476 77.7854 11.8637L78.823 12.5366C79.002 12.6527 79.0518 12.772 78.9722 12.8947C78.9357 12.951 78.8661 12.9775 78.7633 12.9742C78.6473 12.9709 78.5711 12.9809 78.5346 13.0041C78.4816 13.0372 78.4219 13.1035 78.3556 13.2096L76.6781 15.7888C76.6185 15.8816 76.582 15.9512 76.5687 15.9943C76.5489 16.0573 76.5555 16.1203 76.5886 16.1766C76.6649 16.3125 76.6815 16.4153 76.6417 16.4783C76.5621 16.601 76.4328 16.6043 76.2538 16.4882L75.2162 15.8153C75.0372 15.6992 74.9874 15.5799 75.067 15.4572C75.1134 15.3843 75.1963 15.3578 75.3123 15.3777C75.4051 15.3943 75.4814 15.3777 75.5377 15.3313C75.5709 15.3014 75.6206 15.2384 75.6836 15.1423" fill="#00AD4D"/>
<path d="M32.3386 56.5978C32.1165 55.6729 31.6325 54.5723 30.9065 53.3158C30.2037 52.1124 29.0599 51.1378 27.5018 50.425C25.9172 49.699 24.1403 49.3311 22.2209 49.3311H16.2802L14.7188 55.2187H16.1675V70.4318H21.0904C23.3381 70.4318 25.3636 70.0837 27.104 69.3975C28.8014 68.7278 30.1639 67.5078 31.1584 65.7707C32.1662 64.0104 32.6767 61.9318 32.6767 59.5913C32.6767 58.5371 32.5607 57.5293 32.3386 56.5978ZM26.7626 61.723C26.4775 62.4556 25.9703 63.0855 25.2575 63.5861C24.5414 64.09 23.6033 64.3452 22.4695 64.3452H21.9987V55.1623H22.4695C23.3148 55.1623 24.1005 55.3016 24.8066 55.5801C25.5525 55.8751 26.1426 56.369 26.5603 57.052C26.9681 57.7183 27.1736 58.5537 27.1736 59.535C27.1736 60.2842 27.0344 61.0202 26.7626 61.723Z" fill="#0060AE"/>
<path d="M45.2878 64.6701L43.5904 70.4583L35.0606 70.4318V55.2187H33.6152L35.1733 49.3311H40.8919V64.6701H45.2878Z" fill="#0060AE"/>
<path d="M45.2878 64.6701L43.5904 70.4583L35.0606 70.4318V55.2187H33.6152L35.1733 49.3311H40.8919V64.6701H45.2878Z" fill="#0060AE"/>
<path d="M58.9615 49.3311V56.7039H53.3855V49.3311H47.6636L46.1055 55.2154H47.5509V70.4318H53.3855V62.6346H58.9615V70.4318H64.7099V49.3311H58.9615Z" fill="#0060AE"/>
<path d="M85.7181 49.3311V70.4318H80.6625L73.9925 59.2002V70.4318H68.1612V55.2154H66.7158L68.2739 49.3311H74.4599L80.0227 58.6565V49.3311H85.7181Z" fill="#0060AE"/>
<path d="M85.7181 49.3311V70.4318H80.6625L73.9925 59.2002V70.4318H68.1612V55.2154H66.7158L68.2739 49.3311H74.4599L80.0227 58.6565V49.3311H85.7181Z" fill="#0060AE"/>
<path d="M5.81718 83.3508L8.47921 81.4777C8.60187 81.3916 8.67481 81.3319 8.70133 81.2954C8.73779 81.2457 8.74442 81.186 8.7179 81.1131C8.67149 80.9772 8.6947 80.8777 8.79083 80.8081C8.91681 80.7186 9.04278 80.7683 9.16876 80.954L10.5644 83.0193C11.1645 83.9077 11.1645 84.5608 10.5644 84.9851C10.3556 85.131 10.1069 85.1807 9.81852 85.1343C9.5732 85.0945 9.3312 84.9951 9.09251 84.8393C9.24501 85.1907 9.29805 85.5255 9.24832 85.8471C9.19528 86.2051 9.01958 86.4869 8.72785 86.6924C8.35324 86.9576 7.95543 87.0074 7.53772 86.8416C7.17306 86.6991 6.85481 86.4272 6.58297 86.0261L5.09448 83.8249C4.96851 83.6392 4.96851 83.5 5.09448 83.4138C5.17073 83.3607 5.26024 83.3674 5.36301 83.4337C5.4492 83.4867 5.52545 83.5 5.59838 83.4768C5.64147 83.4602 5.71441 83.4204 5.81718 83.3475M7.58082 83.6359L6.61943 84.3122C6.43379 84.4415 6.33765 84.5641 6.33765 84.6768C6.33765 84.7498 6.40395 84.8824 6.53324 85.078C6.72883 85.3664 6.94763 85.5587 7.18963 85.6581C7.47805 85.7741 7.75652 85.7377 8.02504 85.5487C8.20406 85.4227 8.3234 85.2404 8.38308 85.005C8.43943 84.7862 8.4328 84.5674 8.35987 84.3486C8.18417 84.2028 7.92559 83.9674 7.58082 83.6359ZM9.10246 82.5651L8.03167 83.3176C8.31677 83.5928 8.60187 83.7917 8.88697 83.9144C9.26821 84.0834 9.59309 84.0735 9.85499 83.8878C10.1898 83.6525 10.1799 83.2745 9.82847 82.7541C9.68592 82.5419 9.55994 82.4259 9.45717 82.4126C9.37761 82.3994 9.25827 82.4524 9.09914 82.5618L9.10246 82.5651Z" fill="#00AD4D"/>
<path d="M8.10455 90.654C7.99847 90.5247 7.9388 90.3722 7.92885 90.1998C7.91891 90.0308 7.97526 89.8915 8.09792 89.7855C8.22721 89.6761 8.36976 89.6396 8.5322 89.6794C8.69464 89.7158 8.82725 89.802 8.93996 89.9379C9.04605 90.0706 9.1024 90.2197 9.10572 90.3855C9.10572 90.5546 9.04936 90.6905 8.92339 90.7966C8.80404 90.8993 8.66149 90.9325 8.50237 90.8993C8.34324 90.8629 8.21064 90.7833 8.10787 90.654M10.8263 87.6439L9.92787 88.4097C9.64608 88.6484 9.52674 88.8539 9.56321 89.0263C9.5831 89.1291 9.72896 89.3479 9.99749 89.6827C10.1467 89.8617 10.2693 89.9877 10.3688 90.0573C10.5047 90.1501 10.6738 90.2032 10.876 90.2098C11.171 90.2231 11.3467 90.2661 11.4064 90.3424C11.4462 90.3921 11.4661 90.4485 11.4661 90.5181C11.4661 90.5844 11.4396 90.6374 11.3931 90.6805C11.3103 90.7501 11.1213 90.8463 10.8263 90.9656C10.6903 91.022 10.5909 91.0419 10.5345 91.022C10.4749 91.0021 10.3986 90.9358 10.3025 90.8198L8.17086 88.2307C8.02831 88.0583 8.01505 87.919 8.13439 87.8196C8.20401 87.7599 8.29352 87.7599 8.40291 87.8163C8.49242 87.8594 8.57199 87.866 8.6416 87.8395C8.6847 87.8196 8.75432 87.7699 8.84714 87.6903L11.3268 85.5753C11.4396 85.4791 11.5092 85.4095 11.5324 85.373C11.5655 85.32 11.5655 85.2603 11.5324 85.1907C11.4727 85.0614 11.4893 84.9586 11.5788 84.8824C11.6948 84.7829 11.8274 84.8194 11.97 84.9918L14.0055 87.4649C14.1447 87.6339 14.2011 87.7599 14.1712 87.8395C14.1215 87.9721 13.9856 88.1312 13.7635 88.3202C13.6143 88.4461 13.4883 88.4461 13.3822 88.3202C13.3259 88.2539 13.3126 88.1279 13.3358 87.9456C13.3656 87.7268 13.3358 87.5279 13.2397 87.3522C13.1999 87.2726 13.0772 87.1135 12.8783 86.8681C12.7391 86.6991 12.6396 86.5897 12.58 86.5366C12.4242 86.4107 12.2982 86.3908 12.1954 86.4736L11.2539 87.2759L11.9136 88.0749C12.0164 88.1975 12.1357 88.2804 12.2717 88.3169C12.4109 88.3566 12.4871 88.3865 12.507 88.413C12.6098 88.5357 12.5402 88.7014 12.3015 88.9036C12.1556 89.0263 12.0628 89.0992 12.023 89.1224C11.8937 89.1921 11.7876 89.1821 11.7147 89.0893C11.6882 89.0561 11.6683 88.9699 11.6517 88.8274C11.6352 88.6848 11.5821 88.5555 11.486 88.4362L10.8296 87.6373L10.8263 87.6439ZM12.8883 85.0946L13.969 85.131C14.1381 85.1178 14.2441 85.131 14.2806 85.1808L14.4563 85.3929C14.4961 85.4427 14.4928 85.5487 14.4464 85.7145L14.2906 86.8019C14.2674 86.9676 14.2475 87.0571 14.2276 87.0704C14.1944 87.1002 14.1281 87.0604 14.032 86.951C14.1016 87.0306 14.0486 86.961 13.8729 86.7455C13.7767 86.6295 13.7403 86.5101 13.7601 86.3908L13.853 85.8604C13.8629 85.8073 13.8563 85.7708 13.8331 85.741C13.8099 85.7112 13.7734 85.6979 13.7204 85.7012H13.1899C13.0706 85.7012 12.9645 85.6416 12.8684 85.5255C12.6894 85.31 12.633 85.2437 12.6993 85.3266C12.6098 85.2106 12.5833 85.1377 12.6164 85.1078C12.633 85.0913 12.7225 85.0879 12.8883 85.0946Z" fill="#00AD4D"/>
<path d="M11.9928 91.4562L14.1012 89.2848C14.2504 89.1324 14.3366 89.0329 14.3631 88.9865C14.4228 88.8705 14.4194 88.7478 14.3498 88.6152C14.2669 88.4528 14.2603 88.3334 14.3332 88.2605C14.4393 88.1511 14.5852 88.1842 14.7708 88.3699L15.4339 89.0329C15.5234 89.1224 15.5797 89.1953 15.6029 89.2451C15.6261 89.2981 15.6361 89.3876 15.6328 89.5136C15.6228 90.0473 15.4504 91.2673 15.1057 93.1735L16.7102 91.5192C16.7964 91.4297 16.8428 91.3535 16.8527 91.2905C16.8627 91.2242 16.8428 91.1314 16.7931 91.012C16.7433 90.8927 16.7533 90.7965 16.8229 90.7236C16.8859 90.6573 16.9588 90.644 17.0417 90.6838C17.0947 90.7103 17.1776 90.7833 17.297 90.9026L17.718 91.3236C17.9368 91.5424 17.9998 91.7049 17.9003 91.8043C17.8274 91.8806 17.7346 91.8938 17.6218 91.8441C17.4926 91.7878 17.3997 91.7646 17.3434 91.7745C17.287 91.7844 17.2108 91.8375 17.1179 91.9336L14.5322 94.599C14.3863 94.7482 14.2802 94.8277 14.2172 94.8343C14.141 94.8476 14.0316 94.7846 13.889 94.6421C13.7531 94.5062 13.6967 94.3968 13.7133 94.3106C14.0084 92.8254 14.2371 91.3236 14.3962 89.8119L12.4039 91.8673C12.3177 91.9568 12.2712 92.0331 12.2613 92.0961C12.2514 92.1624 12.2746 92.2519 12.3243 92.3712C12.374 92.4906 12.3641 92.5867 12.2911 92.663C12.195 92.7624 12.0359 92.706 11.8138 92.4839L11.3927 92.0629C11.1739 91.8441 11.1143 91.6817 11.2104 91.5822C11.2767 91.5126 11.3662 91.4993 11.4789 91.5424C11.6281 91.5889 11.7309 91.6121 11.7806 91.6054C11.8303 91.5988 11.9 91.5491 11.9928 91.4562Z" fill="#00AD4D"/>
<path d="M15.772 95.1394L17.7909 92.5636C17.8671 92.4674 17.9102 92.3945 17.9268 92.3481C17.95 92.2785 17.9401 92.2022 17.8936 92.1127C17.8406 92.0033 17.8406 91.9138 17.9003 91.8376C17.9964 91.7149 18.129 91.7248 18.3047 91.8641L19.3158 92.6796C19.4915 92.8188 19.528 92.9514 19.4352 93.0741C19.3689 93.157 19.286 93.1802 19.1832 93.147C19.0805 93.1139 18.9976 93.1172 18.9346 93.1603C18.9014 93.1802 18.8451 93.2432 18.7622 93.3459L18.0461 94.2609L19.6308 95.5405L20.3468 94.6256C20.4231 94.5294 20.4695 94.4565 20.4861 94.4134C20.5093 94.3405 20.496 94.2576 20.4496 94.1714C20.3932 94.0686 20.3966 93.9758 20.4562 93.8962C20.5524 93.7736 20.685 93.7835 20.8607 93.9228L21.8718 94.7383C22.0442 94.8775 22.0839 95.0101 21.9878 95.1328C21.9248 95.2124 21.8419 95.2356 21.7359 95.2024C21.6298 95.1693 21.5469 95.1726 21.4872 95.2123C21.4541 95.2322 21.3944 95.2952 21.3115 95.4046L19.2926 97.9805C19.2164 98.0766 19.1733 98.1462 19.1567 98.186C19.1335 98.2457 19.1401 98.312 19.17 98.3915C19.2296 98.5374 19.2329 98.6435 19.1832 98.7098C19.0871 98.8325 18.9512 98.8225 18.7788 98.6833L17.7677 97.8678C17.5953 97.7285 17.5555 97.5959 17.6516 97.4733C17.708 97.4003 17.7876 97.3804 17.8903 97.4103C18.0329 97.4567 18.1787 97.3837 18.3246 97.1981L19.3092 95.9417L17.7246 94.662L16.74 95.9185C16.6604 96.0179 16.614 96.0909 16.6007 96.1306C16.5809 96.1837 16.5908 96.2566 16.624 96.3428C16.677 96.482 16.6803 96.5815 16.6306 96.6478C16.5344 96.7704 16.3985 96.7605 16.2261 96.6213L15.215 95.8058C15.0426 95.6665 15.0029 95.5339 15.099 95.4113C15.1487 95.345 15.2515 95.3284 15.4073 95.3615C15.5167 95.3847 15.6394 95.3085 15.772 95.1394Z" fill="#00AD4D"/>
<path d="M24.2984 96.3925L25.2731 96.956C25.5184 97.0986 25.6013 97.2345 25.5283 97.3638C25.4919 97.4268 25.399 97.4599 25.2432 97.4632C25.0907 97.4632 24.988 97.5096 24.9416 97.5925C24.8222 97.8014 24.7095 98.2158 24.6067 98.8324C24.4874 99.5518 24.4111 100.341 24.3813 101.206C24.9979 100.782 25.5814 100.324 26.135 99.8302C26.6157 99.3959 26.9107 99.0876 27.0135 98.9053C27.0699 98.8025 27.0566 98.6666 26.9638 98.5009C26.8743 98.3351 26.8478 98.2125 26.8908 98.1362C26.9605 98.0135 27.1096 98.0169 27.3318 98.1461L28.0047 98.5373C28.2202 98.6633 28.2931 98.7926 28.2169 98.9219C28.1771 98.9948 28.0976 99.0412 27.9815 99.0611C27.829 99.0876 27.6865 99.1705 27.5539 99.3031C27.0268 99.8269 26.4831 100.304 25.9262 100.735C25.6212 100.971 25.0907 101.355 24.3316 101.886C24.1923 101.985 24.0763 102.035 23.9835 102.038C23.8907 102.038 23.7713 101.998 23.6188 101.909C23.4464 101.809 23.337 101.72 23.2973 101.644C23.2542 101.567 23.231 101.421 23.2276 101.206C23.2078 100.54 23.2376 99.9032 23.3172 99.3031C23.41 98.6169 23.5857 97.8412 23.8443 96.9759C23.8741 96.8665 23.8675 96.7505 23.8277 96.6245C23.7846 96.4985 23.778 96.4123 23.8045 96.3659C23.8807 96.23 24.0465 96.2366 24.2984 96.3825V96.3925Z" fill="#00AD4D"/>
<path d="M24.2984 96.3925L25.2731 96.956C25.5184 97.0986 25.6013 97.2345 25.5283 97.3638C25.4919 97.4268 25.399 97.4599 25.2432 97.4632C25.0907 97.4632 24.988 97.5096 24.9416 97.5925C24.8222 97.8014 24.7095 98.2158 24.6067 98.8324C24.4874 99.5518 24.4111 100.341 24.3813 101.206C24.9979 100.782 25.5814 100.324 26.135 99.8302C26.6157 99.3959 26.9107 99.0876 27.0135 98.9053C27.0699 98.8025 27.0566 98.6666 26.9638 98.5009C26.8743 98.3351 26.8478 98.2125 26.8908 98.1362C26.9605 98.0135 27.1096 98.0169 27.3318 98.1461L28.0047 98.5373C28.2202 98.6633 28.2931 98.7926 28.2169 98.9219C28.1771 98.9948 28.0976 99.0412 27.9815 99.0611C27.829 99.0876 27.6865 99.1705 27.5539 99.3031C27.0268 99.8269 26.4831 100.304 25.9262 100.735C25.6212 100.971 25.0907 101.355 24.3316 101.886C24.1923 101.985 24.0763 102.035 23.9835 102.038C23.8907 102.038 23.7713 101.998 23.6188 101.909C23.4464 101.809 23.337 101.72 23.2973 101.644C23.2542 101.567 23.231 101.421 23.2276 101.206C23.2078 100.54 23.2376 99.9032 23.3172 99.3031C23.41 98.6169 23.5857 97.8412 23.8443 96.9759C23.8741 96.8665 23.8675 96.7505 23.8277 96.6245C23.7846 96.4985 23.778 96.4123 23.8045 96.3659C23.8807 96.23 24.0465 96.2366 24.2984 96.3825V96.3925Z" stroke="#00AD4D" stroke-width="0.22" stroke-miterlimit="10"/>
<path d="M26.9179 102.598L28.3268 99.6379C28.3931 99.502 28.4263 99.4125 28.4329 99.3694C28.4429 99.3064 28.4163 99.2534 28.36 99.2037C28.2539 99.1108 28.2241 99.0114 28.2771 98.902C28.3434 98.7628 28.476 98.7396 28.6782 98.839L29.8418 99.4059C30.0441 99.502 30.1104 99.6214 30.0441 99.7606C30.0109 99.8269 29.9446 99.8667 29.8385 99.8733C29.7159 99.8866 29.6396 99.9065 29.6065 99.9363C29.5567 99.9794 29.5037 100.059 29.444 100.178L28.0351 103.139C27.9854 103.248 27.9555 103.324 27.9489 103.371C27.9356 103.44 27.9489 103.503 27.9953 103.56C28.0915 103.692 28.1246 103.798 28.0881 103.871C28.0218 104.011 27.8892 104.034 27.687 103.934L26.5201 103.367C26.3212 103.271 26.2516 103.152 26.3212 103.009C26.361 102.927 26.4438 102.887 26.5665 102.89C26.666 102.89 26.7422 102.867 26.7919 102.811C26.8251 102.777 26.8682 102.701 26.9212 102.592" fill="#00AD4D"/>
<path d="M30.8562 102.671L30.4186 103.775C30.2826 104.12 30.2694 104.359 30.3821 104.495C30.4484 104.574 30.6771 104.697 31.0716 104.863C31.2871 104.949 31.4562 105.002 31.5755 105.015C31.7413 105.032 31.9137 104.995 32.096 104.906C32.3612 104.776 32.5402 104.73 32.6297 104.766C32.6894 104.79 32.7325 104.833 32.7623 104.892C32.7922 104.952 32.7955 105.012 32.7723 105.071C32.7325 105.174 32.6099 105.35 32.4043 105.595C32.3082 105.711 32.2319 105.774 32.1723 105.784C32.1093 105.797 32.0098 105.774 31.8706 105.718L28.7809 104.471C28.5754 104.388 28.4991 104.272 28.5588 104.13C28.5919 104.044 28.6715 104.001 28.7975 103.997C28.8969 103.994 28.9699 103.961 29.0196 103.901C29.0494 103.865 29.0859 103.788 29.1323 103.672L30.3456 100.622C30.402 100.483 30.4318 100.39 30.4318 100.347C30.4385 100.284 30.4086 100.231 30.3489 100.188C30.2362 100.102 30.1998 100.006 30.2462 99.8965C30.3025 99.7506 30.4351 99.7208 30.6407 99.8036L33.5911 100.994C33.7933 101.077 33.8994 101.16 33.9094 101.242C33.926 101.382 33.8829 101.59 33.7735 101.862C33.7005 102.045 33.5878 102.104 33.4386 102.045C33.3591 102.012 33.2861 101.909 33.2231 101.736C33.1502 101.531 33.0276 101.372 32.8618 101.262C32.7889 101.213 32.6065 101.13 32.3148 101.014C32.1126 100.931 31.9734 100.884 31.8971 100.868C31.7015 100.831 31.5789 100.878 31.5291 100.997L31.0683 102.154L32.0231 102.539C32.1689 102.598 32.3148 102.612 32.454 102.578C32.5933 102.545 32.6795 102.535 32.7093 102.549C32.8585 102.608 32.8717 102.784 32.7557 103.079C32.6828 103.258 32.6364 103.367 32.6099 103.404C32.527 103.53 32.4308 103.57 32.3181 103.523C32.2817 103.507 32.222 103.44 32.1424 103.321C32.0629 103.202 31.9535 103.115 31.8142 103.059L30.8595 102.675L30.8562 102.671ZM29.8517 106.62C29.6959 106.557 29.5732 106.454 29.4837 106.308C29.3942 106.162 29.3809 106.016 29.4406 105.86C29.5036 105.705 29.613 105.602 29.7721 105.559C29.9312 105.516 30.0904 105.526 30.2528 105.589C30.4086 105.652 30.528 105.758 30.6075 105.903C30.6904 106.049 30.697 106.199 30.6374 106.351C30.5777 106.5 30.4683 106.596 30.3125 106.643C30.1567 106.689 30.0009 106.679 29.8484 106.62H29.8517ZM31.4927 99.4456L32.464 98.9583C32.6099 98.8655 32.7093 98.829 32.7623 98.8489L33.0143 98.9517C33.074 98.9749 33.1204 99.071 33.1568 99.2401L33.5248 100.271C33.5812 100.427 33.6044 100.516 33.5944 100.536C33.5779 100.579 33.5016 100.576 33.3657 100.526C33.4652 100.563 33.3856 100.526 33.127 100.424C32.9878 100.367 32.8983 100.281 32.8618 100.168L32.696 99.6578C32.6828 99.6081 32.6596 99.5749 32.6231 99.5616C32.59 99.5484 32.5502 99.555 32.5038 99.5815L32.0363 99.8368C31.9303 99.8932 31.8076 99.8932 31.6717 99.8368C31.4131 99.734 31.3335 99.7042 31.4297 99.7473C31.2971 99.6876 31.2374 99.6379 31.254 99.5948C31.2606 99.5749 31.3402 99.5252 31.486 99.4522L31.4927 99.4456Z" fill="#00AD4D"/>
<path d="M30.8562 102.671L30.4186 103.775C30.2826 104.12 30.2694 104.359 30.3821 104.495C30.4484 104.574 30.6771 104.697 31.0716 104.863C31.2871 104.949 31.4562 105.002 31.5755 105.015C31.7413 105.032 31.9137 104.995 32.096 104.906C32.3612 104.776 32.5402 104.73 32.6297 104.766C32.6894 104.79 32.7325 104.833 32.7623 104.892C32.7922 104.952 32.7955 105.012 32.7723 105.071C32.7325 105.174 32.6099 105.35 32.4043 105.595C32.3082 105.711 32.2319 105.774 32.1723 105.784C32.1093 105.797 32.0098 105.774 31.8706 105.718L28.7809 104.471C28.5754 104.388 28.4991 104.272 28.5588 104.13C28.5919 104.044 28.6715 104.001 28.7975 103.997C28.8969 103.994 28.9699 103.961 29.0196 103.901C29.0494 103.865 29.0859 103.788 29.1323 103.672L30.3456 100.622C30.402 100.483 30.4318 100.39 30.4318 100.347C30.4385 100.284 30.4086 100.231 30.3489 100.188C30.2362 100.102 30.1998 100.006 30.2462 99.8965C30.3025 99.7506 30.4351 99.7208 30.6407 99.8036L33.5911 100.994C33.7933 101.077 33.8994 101.16 33.9094 101.242C33.926 101.382 33.8829 101.59 33.7735 101.862C33.7005 102.045 33.5878 102.104 33.4386 102.045C33.3591 102.012 33.2861 101.909 33.2231 101.736C33.1502 101.531 33.0276 101.372 32.8618 101.262C32.7889 101.213 32.6065 101.13 32.3148 101.014C32.1126 100.931 31.9734 100.884 31.8971 100.868C31.7015 100.831 31.5789 100.878 31.5291 100.997L31.0683 102.154L32.0231 102.539C32.1689 102.598 32.3148 102.612 32.454 102.578C32.5933 102.545 32.6795 102.535 32.7093 102.549C32.8585 102.608 32.8717 102.784 32.7557 103.079C32.6828 103.258 32.6364 103.367 32.6099 103.404C32.527 103.53 32.4308 103.57 32.3181 103.523C32.2817 103.507 32.222 103.44 32.1424 103.321C32.0629 103.202 31.9535 103.115 31.8142 103.059L30.8595 102.675L30.8562 102.671ZM29.8517 106.62C29.6959 106.557 29.5732 106.454 29.4837 106.308C29.3942 106.162 29.3809 106.016 29.4406 105.86C29.5036 105.705 29.613 105.602 29.7721 105.559C29.9312 105.516 30.0904 105.526 30.2528 105.589C30.4086 105.652 30.528 105.758 30.6075 105.903C30.6904 106.049 30.697 106.199 30.6374 106.351C30.5777 106.5 30.4683 106.596 30.3125 106.643C30.1567 106.689 30.0009 106.679 29.8484 106.62H29.8517ZM31.4927 99.4456L32.464 98.9583C32.6099 98.8655 32.7093 98.829 32.7623 98.8489L33.0143 98.9517C33.074 98.9749 33.1204 99.071 33.1568 99.2401L33.5248 100.271C33.5812 100.427 33.6044 100.516 33.5944 100.536C33.5779 100.579 33.5016 100.576 33.3657 100.526C33.4652 100.563 33.3856 100.526 33.127 100.424C32.9878 100.367 32.8983 100.281 32.8618 100.168L32.696 99.6578C32.6828 99.6081 32.6596 99.5749 32.6231 99.5616C32.59 99.5484 32.5502 99.555 32.5038 99.5815L32.0363 99.8368C31.9303 99.8932 31.8076 99.8932 31.6717 99.8368C31.4131 99.734 31.3335 99.7042 31.4297 99.7473C31.2971 99.6876 31.2374 99.6379 31.254 99.5948C31.2606 99.5749 31.3402 99.5252 31.486 99.4522L31.4927 99.4456Z" stroke="#39B44A" stroke-width="0.22" stroke-miterlimit="10"/>
<path d="M33.6638 105.449L34.5191 102.532C34.5788 102.327 34.6086 102.197 34.612 102.144C34.612 102.015 34.5523 101.909 34.4296 101.826C34.2804 101.723 34.2175 101.624 34.2473 101.521C34.2904 101.372 34.4363 101.335 34.6849 101.408L35.58 101.673C35.7026 101.71 35.7855 101.743 35.8286 101.78C35.8717 101.813 35.9214 101.889 35.9811 101.998C36.2231 102.469 36.6342 103.626 37.2176 105.463L37.8674 103.241C37.9005 103.122 37.9072 103.033 37.884 102.973C37.8608 102.91 37.8011 102.84 37.7016 102.757C37.6022 102.675 37.5657 102.585 37.5956 102.489C37.6221 102.399 37.6784 102.353 37.7713 102.35C37.8276 102.35 37.937 102.37 38.0995 102.416L38.6663 102.582C38.9614 102.668 39.0907 102.781 39.0509 102.917C39.0211 103.016 38.9448 103.076 38.8222 103.086C38.6829 103.096 38.5901 103.119 38.5404 103.155C38.494 103.192 38.4509 103.275 38.4144 103.401L37.3635 106.984C37.3038 107.186 37.2475 107.306 37.1944 107.342C37.1314 107.392 37.0055 107.385 36.8132 107.329C36.6309 107.276 36.5281 107.206 36.5049 107.123C36.0772 105.678 35.58 104.253 35.0164 102.847L34.2075 105.608C34.171 105.728 34.1677 105.817 34.1876 105.88C34.2108 105.94 34.2705 106.013 34.3699 106.092C34.4694 106.172 34.5059 106.262 34.476 106.364C34.4363 106.5 34.2672 106.523 33.9721 106.437L33.4053 106.268C33.1102 106.182 32.9809 106.069 33.0207 105.933C33.0472 105.841 33.1202 105.787 33.2395 105.768C33.3953 105.738 33.4948 105.708 33.5345 105.678C33.5743 105.648 33.6141 105.572 33.6539 105.446" fill="#00AD4D"/>
<path d="M41.6211 103.225L43.5737 103.483C44.4124 103.593 45.0323 103.858 45.4401 104.279C45.9672 104.823 46.176 105.502 46.0633 106.315C45.9539 107.107 45.6357 107.697 45.1086 108.078C44.5782 108.459 43.9184 108.599 43.1261 108.493L40.9448 108.204C40.7227 108.174 40.6232 108.082 40.6431 107.929C40.6564 107.84 40.7227 107.777 40.842 107.74C40.9382 107.71 41.0011 107.661 41.0343 107.591C41.0542 107.548 41.0741 107.465 41.0906 107.342L41.5349 104.09C41.5548 103.941 41.5614 103.845 41.5548 103.802C41.5448 103.739 41.505 103.696 41.4354 103.669C41.3061 103.616 41.2465 103.53 41.263 103.411C41.2829 103.255 41.4056 103.195 41.6244 103.225H41.6211ZM42.7316 104.465L42.357 107.223C42.3206 107.488 42.3206 107.661 42.357 107.74C42.4068 107.846 42.5493 107.916 42.788 107.949C43.3284 108.019 43.7792 107.883 44.1372 107.535C44.4588 107.213 44.661 106.775 44.7373 106.212C44.8135 105.638 44.7373 105.144 44.5118 104.733C44.2566 104.282 43.8521 104.017 43.2919 103.944C43.0665 103.914 42.9206 103.938 42.8543 104.017C42.8046 104.077 42.7648 104.223 42.7316 104.465Z" fill="#00AD4D"/>
<path d="M41.6211 103.225L43.5737 103.483C44.4124 103.593 45.0323 103.858 45.4401 104.279C45.9672 104.823 46.176 105.502 46.0633 106.315C45.9539 107.107 45.6357 107.697 45.1086 108.078C44.5782 108.459 43.9184 108.599 43.1261 108.493L40.9448 108.204C40.7227 108.174 40.6232 108.082 40.6431 107.929C40.6564 107.84 40.7227 107.777 40.842 107.74C40.9382 107.71 41.0011 107.661 41.0343 107.591C41.0542 107.548 41.0741 107.465 41.0906 107.342L41.5349 104.09C41.5548 103.941 41.5614 103.845 41.5548 103.802C41.5448 103.739 41.505 103.696 41.4354 103.669C41.3061 103.616 41.2465 103.53 41.263 103.411C41.2829 103.255 41.4056 103.195 41.6244 103.225H41.6211ZM42.7316 104.465L42.357 107.223C42.3206 107.488 42.3206 107.661 42.357 107.74C42.4068 107.846 42.5493 107.916 42.788 107.949C43.3284 108.019 43.7792 107.883 44.1372 107.535C44.4588 107.213 44.661 106.775 44.7373 106.212C44.8135 105.638 44.7373 105.144 44.5118 104.733C44.2566 104.282 43.8521 104.017 43.2919 103.944C43.0665 103.914 42.9206 103.938 42.8543 104.017C42.8046 104.077 42.7648 104.223 42.7316 104.465Z" stroke="#39B44A" stroke-width="0.22" stroke-miterlimit="10"/>
<path d="M49.5141 107.336L47.6046 107.289C47.4189 107.714 47.3228 108.019 47.3162 108.201C47.3162 108.297 47.3692 108.387 47.4852 108.466C47.6013 108.546 47.6576 108.625 47.6543 108.698C47.651 108.844 47.4985 108.914 47.2035 108.907L46.6432 108.894C46.3846 108.887 46.2553 108.808 46.262 108.652C46.262 108.579 46.315 108.513 46.4111 108.45C46.4808 108.406 46.5239 108.377 46.5371 108.363C46.5703 108.33 46.6001 108.29 46.6233 108.234C47.0377 106.898 47.651 105.526 48.4599 104.113C48.5262 103.997 48.6057 103.921 48.6919 103.891C48.7483 103.875 48.8577 103.868 49.0268 103.871C49.1958 103.875 49.3052 103.891 49.3516 103.921C49.3881 103.951 49.4378 104.031 49.5008 104.156C50.0379 105.264 50.5617 106.659 51.0722 108.347C51.0954 108.43 51.1617 108.506 51.2711 108.572C51.3573 108.625 51.3971 108.692 51.3938 108.774C51.3904 108.93 51.2711 109.003 51.039 109L49.8854 108.973C49.6069 108.967 49.471 108.89 49.4776 108.745C49.4776 108.675 49.5307 108.612 49.6301 108.549C49.7296 108.486 49.7793 108.44 49.7826 108.403C49.7859 108.261 49.6964 107.906 49.5108 107.339L49.5141 107.336ZM47.8134 106.732L49.3384 106.769C49.103 106.003 48.871 105.393 48.6389 104.932C48.324 105.516 48.0488 106.116 47.8101 106.732H47.8134Z" fill="#00AD4D"/>
<path d="M49.5141 107.336L47.6046 107.289C47.4189 107.714 47.3228 108.019 47.3162 108.201C47.3162 108.297 47.3692 108.387 47.4852 108.466C47.6013 108.546 47.6576 108.625 47.6543 108.698C47.651 108.844 47.4985 108.914 47.2035 108.907L46.6432 108.894C46.3846 108.887 46.2553 108.808 46.262 108.652C46.262 108.579 46.315 108.513 46.4111 108.45C46.4808 108.406 46.5239 108.377 46.5371 108.363C46.5703 108.33 46.6001 108.29 46.6233 108.234C47.0377 106.898 47.651 105.526 48.4599 104.113C48.5262 103.997 48.6057 103.921 48.6919 103.891C48.7483 103.875 48.8577 103.868 49.0268 103.871C49.1958 103.875 49.3052 103.891 49.3516 103.921C49.3881 103.951 49.4378 104.031 49.5008 104.156C50.0379 105.264 50.5617 106.659 51.0722 108.347C51.0954 108.43 51.1617 108.506 51.2711 108.572C51.3573 108.625 51.3971 108.692 51.3938 108.774C51.3904 108.93 51.2711 109.003 51.039 109L49.8854 108.973C49.6069 108.967 49.471 108.89 49.4776 108.745C49.4776 108.675 49.5307 108.612 49.6301 108.549C49.7296 108.486 49.7793 108.44 49.7826 108.403C49.7859 108.261 49.6964 107.906 49.5108 107.339L49.5141 107.336ZM47.8134 106.732L49.3384 106.769C49.103 106.003 48.871 105.393 48.6389 104.932C48.324 105.516 48.0488 106.116 47.8101 106.732H47.8134Z" stroke="#39B44A" stroke-width="0.22" stroke-miterlimit="10"/>
<path d="M54.53 107.919L54.1885 104.66C54.1753 104.538 54.1653 104.465 54.1587 104.445C54.1355 104.382 54.0825 104.336 54.0062 104.296C53.8537 104.223 53.7708 104.137 53.7609 104.041C53.7476 103.905 53.8504 103.822 54.0725 103.798L55.3621 103.649C55.5842 103.623 55.7002 103.679 55.7168 103.815C55.7268 103.911 55.6638 104.011 55.5279 104.12C55.4616 104.173 55.4218 104.233 55.4085 104.299C55.4085 104.322 55.4085 104.395 55.4251 104.518L55.7632 107.727C55.7831 107.919 55.8295 108.035 55.9025 108.075C55.9621 108.108 56.0881 108.115 56.287 108.092L56.539 108.062C56.7777 108.035 56.95 107.999 57.0561 107.952C57.2086 107.889 57.3479 107.773 57.4672 107.608C57.6429 107.366 57.7788 107.24 57.875 107.23C57.9379 107.223 57.9976 107.236 58.0507 107.273C58.107 107.309 58.1369 107.359 58.1435 107.425C58.1534 107.535 58.1269 107.747 58.0606 108.062C58.0308 108.208 57.991 108.3 57.9413 108.34C57.8915 108.38 57.7954 108.41 57.6462 108.426L54.5996 108.784C54.3775 108.811 54.2615 108.755 54.2449 108.619C54.235 108.523 54.298 108.423 54.4339 108.314C54.5002 108.261 54.54 108.201 54.5532 108.135C54.5532 108.111 54.5532 108.039 54.5366 107.916" fill="#00AD4D"/>
<path d="M58.7297 107.359L58.1794 104.133C58.1528 103.984 58.1296 103.891 58.1097 103.855C58.0832 103.798 58.0302 103.769 57.9572 103.765C57.818 103.755 57.7351 103.689 57.7152 103.573C57.6887 103.421 57.7849 103.324 58.007 103.285L59.2833 103.049C59.5021 103.009 59.6247 103.066 59.6513 103.218C59.6645 103.291 59.6314 103.361 59.5485 103.434C59.4557 103.517 59.4026 103.58 59.3927 103.623C59.3761 103.686 59.3794 103.782 59.3993 103.914L59.9496 107.14C59.9695 107.256 59.9894 107.336 60.0126 107.379C60.0424 107.442 60.0922 107.485 60.1585 107.505C60.3143 107.554 60.4005 107.621 60.4137 107.7C60.4403 107.853 60.3441 107.949 60.122 107.992L58.8457 108.227C58.6269 108.267 58.5042 108.211 58.4777 108.058C58.4611 107.969 58.5076 107.889 58.6103 107.82C58.6932 107.763 58.7396 107.697 58.7496 107.621C58.7562 107.574 58.7496 107.488 58.7263 107.369" fill="#00AD4D"/>
<path d="M61.9839 105.078L62.2624 106.228C62.3486 106.586 62.4779 106.785 62.6469 106.828C62.7464 106.855 63.005 106.815 63.4227 106.712C63.6481 106.653 63.8139 106.593 63.9233 106.533C64.0658 106.451 64.1885 106.318 64.2846 106.136C64.4272 105.874 64.5465 105.731 64.6393 105.705C64.7023 105.688 64.762 105.695 64.8217 105.725C64.8813 105.754 64.9178 105.801 64.9311 105.86C64.9576 105.967 64.9576 106.182 64.9311 106.504C64.9211 106.653 64.8946 106.749 64.8515 106.795C64.8084 106.842 64.7156 106.885 64.5697 106.921L61.3308 107.757C61.1154 107.813 60.9894 107.767 60.9529 107.614C60.933 107.525 60.9695 107.442 61.0689 107.366C61.1485 107.303 61.1883 107.233 61.1949 107.157C61.1949 107.11 61.185 107.027 61.1551 106.905L60.386 103.726C60.3496 103.58 60.323 103.487 60.2998 103.45C60.2667 103.397 60.2136 103.371 60.1407 103.371C59.9982 103.371 59.9153 103.311 59.8888 103.195C59.8523 103.046 59.9418 102.94 60.1606 102.883L63.2536 102.085C63.4658 102.028 63.5984 102.035 63.6581 102.094C63.7542 102.197 63.8337 102.39 63.9034 102.675C63.9498 102.864 63.8934 102.98 63.7343 103.023C63.6514 103.046 63.5321 103.006 63.3829 102.903C63.2039 102.784 63.0149 102.728 62.816 102.738C62.7265 102.741 62.5309 102.784 62.2259 102.86C62.0138 102.917 61.8712 102.96 61.8016 102.99C61.6193 103.079 61.5463 103.185 61.5762 103.314L61.8679 104.521L62.8691 104.263C63.0249 104.223 63.1475 104.147 63.2437 104.04C63.3398 103.931 63.4028 103.871 63.4326 103.865C63.5884 103.825 63.7011 103.958 63.7741 104.263C63.8205 104.448 63.8437 104.564 63.8437 104.611C63.847 104.76 63.7907 104.849 63.6779 104.879C63.6382 104.889 63.552 104.869 63.416 104.823C63.2834 104.773 63.1442 104.77 62.9983 104.806L61.9972 105.065L61.9839 105.078ZM60.5883 100.059C60.7076 99.817 60.9165 99.6546 61.2181 99.5783C61.3673 99.5385 61.5795 99.5485 61.8546 99.6048C62.1298 99.6612 62.3088 99.6778 62.3917 99.6579C62.4845 99.6347 62.5707 99.5518 62.6469 99.4159C62.7232 99.28 62.7795 99.207 62.8094 99.1971C62.8923 99.1772 62.9453 99.2103 62.9685 99.3032C63.0282 99.5419 62.9851 99.7607 62.8425 99.9596C62.7 100.158 62.5077 100.288 62.2657 100.351C62.1165 100.391 61.9044 100.381 61.6292 100.324C61.354 100.268 61.175 100.251 61.0922 100.271C60.9993 100.294 60.9164 100.377 60.8369 100.513C60.7606 100.652 60.7076 100.722 60.6744 100.732C60.5916 100.755 60.5319 100.696 60.4987 100.56C60.4623 100.414 60.4921 100.245 60.5883 100.056V100.059ZM60.6446 102.098L61.1551 101.126C61.2181 100.964 61.2811 100.875 61.3375 100.861L61.6027 100.792C61.6657 100.775 61.7585 100.825 61.8845 100.938L62.7795 101.547C62.9155 101.64 62.9851 101.697 62.9884 101.72C62.9983 101.763 62.9354 101.806 62.7928 101.849C62.8923 101.819 62.8094 101.839 62.5409 101.909C62.395 101.945 62.2756 101.929 62.1762 101.859L61.7485 101.547C61.7088 101.514 61.669 101.504 61.6358 101.514C61.5994 101.524 61.5728 101.551 61.5496 101.601L61.3143 102.085C61.2612 102.194 61.1618 102.267 61.0159 102.303C60.7474 102.373 60.6645 102.396 60.764 102.376C60.6214 102.409 60.5452 102.403 60.5352 102.356C60.5286 102.333 60.565 102.25 60.6413 102.101L60.6446 102.098Z" fill="#00AD4D"/>
<path d="M64.3095 101.803L65.5958 101.329C65.8046 101.252 65.9339 101.282 65.9837 101.418C66.0168 101.514 65.9803 101.61 65.8743 101.707C65.7947 101.78 65.7483 101.852 65.7383 101.922C65.7317 101.972 65.745 102.058 65.7781 102.177C65.9803 102.917 66.1958 103.603 66.4179 104.239C66.7594 105.221 67.3163 105.569 68.0921 105.284C68.8612 105.002 69.07 104.362 68.7219 103.364C68.6125 103.056 68.4766 102.698 68.3076 102.297C68.1882 102.012 68.0457 101.66 67.8766 101.249C67.8534 101.179 67.8136 101.136 67.7639 101.116C67.681 101.103 67.5981 101.087 67.5152 101.07C67.4125 101.053 67.3495 101.01 67.323 100.937C67.2732 100.795 67.376 100.679 67.628 100.586L68.1882 100.381C68.4402 100.288 68.5927 100.314 68.6424 100.453C68.6689 100.526 68.6457 100.606 68.5794 100.689C68.4733 100.815 68.4203 100.881 68.4169 100.888C68.3937 100.934 68.3971 101 68.4269 101.087C68.5098 101.322 68.649 101.67 68.8479 102.128C69.0468 102.585 69.1861 102.933 69.2689 103.169C69.5109 103.861 69.5209 104.425 69.3054 104.866C69.0866 105.303 68.6357 105.648 67.9495 105.9C66.6036 106.394 65.6952 105.967 65.2212 104.611C65.1449 104.392 65.0455 104.06 64.9228 103.616C64.8002 103.172 64.7007 102.84 64.6245 102.622C64.5747 102.479 64.5383 102.393 64.5117 102.356C64.4753 102.307 64.4189 102.287 64.346 102.293C64.2068 102.307 64.1139 102.257 64.0775 102.144C64.0244 101.995 64.104 101.879 64.3128 101.803" fill="#00AD4D"/>
<path d="M73.0239 102.704L71.4923 99.8336C71.436 99.7242 71.3862 99.6546 71.3498 99.6247C71.2967 99.575 71.2238 99.5551 71.1243 99.5651C71.005 99.575 70.9221 99.5385 70.879 99.4523C70.8061 99.3164 70.8691 99.1938 71.0647 99.0844L72.2051 98.4479C72.4007 98.3385 72.5366 98.3517 72.6095 98.4876C72.6592 98.5805 72.6493 98.6667 72.5764 98.7528C72.5034 98.8357 72.4769 98.9153 72.4902 98.9915C72.4935 99.0313 72.53 99.1076 72.5896 99.2236L73.1333 100.245L74.9235 99.2468L74.3798 98.2257C74.3234 98.1163 74.277 98.0467 74.2439 98.0136C74.1875 97.9639 74.1079 97.944 74.0118 97.9572C73.8958 97.9705 73.8129 97.934 73.7665 97.8445C73.6936 97.7086 73.7565 97.5859 73.9521 97.4765L75.0925 96.84C75.2881 96.7306 75.424 96.7439 75.497 96.8798C75.5434 96.9693 75.5334 97.0555 75.4605 97.1417C75.3909 97.2279 75.3611 97.3075 75.3743 97.3771C75.3776 97.4169 75.4141 97.4964 75.4771 97.6158L77.0087 100.487C77.065 100.596 77.1114 100.662 77.1413 100.692C77.1844 100.735 77.2474 100.758 77.3302 100.758C77.486 100.758 77.5855 100.795 77.622 100.868C77.6949 101.004 77.6319 101.126 77.4363 101.236L76.2959 101.872C76.1003 101.982 75.9644 101.969 75.8915 101.833C75.8484 101.753 75.8616 101.67 75.9313 101.584C76.0307 101.468 76.0241 101.302 75.9114 101.097L75.1655 99.6977L73.3753 100.696L74.1212 102.094C74.1809 102.207 74.2273 102.277 74.2571 102.307C74.2969 102.346 74.3665 102.366 74.4594 102.366C74.6052 102.366 74.698 102.406 74.7378 102.476C74.8108 102.612 74.7478 102.734 74.5522 102.844L73.4118 103.48C73.2162 103.59 73.0803 103.576 73.0073 103.44C72.9675 103.367 72.9941 103.265 73.0836 103.132C73.1499 103.039 73.13 102.897 73.0272 102.704" fill="#00AD4D"/>
<path d="M76.5485 94.2774L77.4038 94.1912C77.6126 94.1713 77.7286 94.1813 77.7552 94.2177C77.785 94.2642 77.8082 94.3238 77.8182 94.3968C77.838 94.483 77.8281 94.5393 77.785 94.5692C77.7386 94.6023 77.5894 94.6653 77.3341 94.7647L76.4424 95.1029C76.2435 95.1758 76.1142 95.1692 76.0545 95.083C76.0015 95.0034 75.9683 94.8874 75.9517 94.7349C75.9352 94.5824 75.965 94.4796 76.0346 94.4299C76.1473 94.3503 76.3164 94.3006 76.5451 94.2741M79.8337 97.6323L78.2591 98.7462C78.3552 99.2004 78.4547 99.502 78.5574 99.6512C78.6105 99.7308 78.7066 99.7673 78.8492 99.7606C78.9884 99.7573 79.0812 99.7838 79.121 99.8435C79.2039 99.9628 79.121 100.109 78.879 100.281L78.4182 100.606C78.206 100.758 78.0535 100.768 77.9673 100.642C77.9276 100.583 77.9276 100.5 77.9706 100.39C78.0005 100.314 78.0171 100.265 78.0237 100.245C78.0303 100.202 78.0303 100.148 78.0171 100.092C77.5761 98.7727 77.2712 97.3041 77.1054 95.6863C77.0921 95.5537 77.112 95.4477 77.1651 95.3681C77.2015 95.3217 77.2877 95.2488 77.427 95.1526C77.5662 95.0565 77.6623 95.0034 77.7187 94.9968C77.7651 94.9968 77.8513 95.0333 77.9773 95.0963C79.058 95.6565 80.2979 96.4621 81.6935 97.503C81.7631 97.5561 81.8593 97.5726 81.9853 97.5627C82.0847 97.5528 82.1576 97.5826 82.2041 97.6489C82.2902 97.7782 82.2372 97.9075 82.0482 98.0434L81.0968 98.713C80.8681 98.8755 80.7123 98.8954 80.6294 98.776C80.5929 98.7197 80.5962 98.6368 80.6393 98.5274C80.6824 98.418 80.6957 98.3484 80.6758 98.3185C80.5962 98.2025 80.3177 97.9738 79.8337 97.6323ZM78.1033 98.1727L79.363 97.2809C78.7265 96.8102 78.1795 96.4588 77.7253 96.2333C77.8115 96.8897 77.9342 97.5362 78.1033 98.1727Z" fill="#00AD4D"/>
<path d="M84.398 94.9835L82.3558 92.7823C82.21 92.6265 82.1172 92.5336 82.0741 92.5071C81.9647 92.4441 81.842 92.4441 81.7094 92.5071C81.547 92.5867 81.4309 92.59 81.358 92.5138C81.2552 92.401 81.295 92.2552 81.484 92.0728L82.1669 91.4164C82.2597 91.3269 82.3326 91.2706 82.3857 91.2507C82.4387 91.2275 82.5249 91.2209 82.6509 91.2275C83.1747 91.2507 84.3681 91.4629 86.2279 91.864L84.6731 90.1899C84.5902 90.1004 84.5173 90.0506 84.4543 90.0407C84.3913 90.0307 84.2985 90.0473 84.1792 90.0937C84.0598 90.1401 83.967 90.1269 83.8974 90.0539C83.8344 89.9876 83.8244 89.9114 83.8675 89.8285C83.8941 89.7788 83.9703 89.6926 84.093 89.5732L84.5272 89.1589C84.7527 88.9434 84.9151 88.8837 85.0079 88.9898C85.0776 89.066 85.0875 89.1589 85.0345 89.2749C84.9715 89.4042 84.9449 89.497 84.9516 89.5567C84.9582 89.6163 85.0079 89.6926 85.0974 89.7887L87.6037 92.4906C87.7462 92.643 87.8192 92.7524 87.8225 92.8187C87.8324 92.8983 87.7628 93.0077 87.6169 93.1469C87.4777 93.2795 87.365 93.3359 87.2854 93.316C85.8367 92.9746 84.3748 92.6994 82.8929 92.4972L84.8223 94.5791C84.9052 94.6686 84.9781 94.7183 85.0411 94.7283C85.1041 94.7382 85.1969 94.7216 85.3129 94.6719C85.4323 94.6255 85.5251 94.6387 85.598 94.715C85.6942 94.8178 85.6279 94.9769 85.4024 95.1957L84.9682 95.6101C84.7427 95.8256 84.5803 95.8819 84.4875 95.7825C84.4212 95.7128 84.4145 95.6233 84.4609 95.5073C84.514 95.3548 84.5405 95.2554 84.5372 95.2023C84.5372 95.1526 84.4875 95.0797 84.398 94.9835Z" fill="#00AD4D"/>
<path d="M85.4553 87.1399L85.3128 86.0525C85.273 85.8835 85.2697 85.7774 85.3095 85.731L85.4852 85.5188C85.525 85.4691 85.631 85.4525 85.8001 85.4691L86.8808 85.4293C87.0433 85.4227 87.1328 85.4293 87.1527 85.4426C87.1858 85.4724 87.1593 85.5453 87.0665 85.6614C87.1295 85.5785 87.0731 85.6415 86.8941 85.8603C86.798 85.9763 86.6886 86.036 86.5692 86.0393H86.0388C85.9858 86.0393 85.9493 86.0525 85.9261 86.0791C85.9029 86.1056 85.8963 86.1454 85.9062 86.1984L85.9924 86.7288C86.009 86.8482 85.9725 86.9642 85.873 87.0835C85.694 87.299 85.6377 87.3686 85.7106 87.2891C85.6112 87.3985 85.5449 87.4383 85.5117 87.4117C85.4951 87.3985 85.4752 87.309 85.452 87.1432M90.4612 90.0307C90.0103 90.5744 89.4501 90.8992 88.7804 91.012C88.0378 91.1346 87.3649 90.939 86.7648 90.4219C86.1979 89.9345 85.8963 89.3279 85.8664 88.6019C85.8366 87.8957 86.0686 87.2493 86.5626 86.6559C87.0632 86.0525 87.6599 85.7045 88.3494 85.6116C89.0589 85.5089 89.702 85.7045 90.2788 86.2017C90.8424 86.6857 91.1375 87.3057 91.164 88.0549C91.1872 88.7809 90.9551 89.4373 90.4612 90.0307ZM90.0899 89.676C90.4081 89.2947 90.4711 88.8538 90.2788 88.3599C90.1297 87.9753 89.8479 87.6073 89.4368 87.2559C89.029 86.9078 88.6246 86.6857 88.2202 86.5929C87.6997 86.4736 87.2787 86.6028 86.9637 86.9808C86.6587 87.3454 86.6057 87.7764 86.8013 88.2737C86.9538 88.6748 87.2256 89.0395 87.6135 89.371C88.0146 89.7157 88.4191 89.9379 88.8268 90.0406C89.3572 90.1732 89.7783 90.0506 90.0899 89.676ZM91.6148 90.939C91.5054 91.0716 91.3695 91.1578 91.2071 91.1976C91.0446 91.2407 90.8988 91.2075 90.7761 91.1015C90.6501 90.9921 90.5905 90.8561 90.6004 90.6871C90.6103 90.518 90.67 90.3688 90.7827 90.2329C90.8921 90.1003 91.0281 90.0207 91.1905 89.9876C91.3529 89.9544 91.4955 89.9876 91.6181 90.097C91.7375 90.1998 91.7938 90.3324 91.7839 90.4981C91.774 90.6639 91.7176 90.8097 91.6115 90.939H91.6148Z" fill="#00AD4D"/>
<path d="M92.0202 86.4604L89.4013 84.5708C89.2786 84.4846 89.1991 84.4349 89.1593 84.4216C89.0996 84.4017 89.0432 84.4183 88.9869 84.468C88.8775 84.5608 88.778 84.5708 88.6819 84.5045C88.5559 84.415 88.5592 84.279 88.6918 84.0934L89.4477 83.016C89.577 82.8303 89.7063 82.7839 89.8289 82.8734C89.8886 82.9165 89.9118 82.9895 89.9019 83.0989C89.8919 83.2215 89.8986 83.3044 89.9218 83.3442C89.9549 83.4005 90.0212 83.4668 90.1273 83.5431L92.7462 85.4327C92.8424 85.5023 92.912 85.5421 92.9551 85.5587C93.0214 85.5819 93.0844 85.5786 93.1474 85.5421C93.2932 85.4659 93.4026 85.4526 93.4656 85.499C93.5916 85.5885 93.5883 85.7244 93.4557 85.9101L92.6998 86.9875C92.5705 87.1731 92.4412 87.2196 92.3186 87.13C92.2457 87.077 92.2224 86.9908 92.249 86.8648C92.2689 86.7654 92.2556 86.6858 92.2125 86.6262C92.1827 86.5864 92.1197 86.5333 92.0202 86.4637" fill="#00AD4D"/>
<path d="M55.7363 39.2697C55.7363 40.4034 54.8181 41.3217 53.6843 41.3217C52.5505 41.3217 51.6289 40.4034 51.6289 39.2697C51.6289 38.1359 52.5472 37.2143 53.6843 37.2143C54.8214 37.2143 55.7363 38.1326 55.7363 39.2697Z" fill="#0060AE"/>
<path d="M55.7363 39.2697C55.7363 40.4034 54.8181 41.3217 53.6843 41.3217C52.5505 41.3217 51.6289 40.4034 51.6289 39.2697C51.6289 38.1359 52.5472 37.2143 53.6843 37.2143C54.8214 37.2143 55.7363 38.1326 55.7363 39.2697Z" stroke="#0060AE" stroke-miterlimit="10"/>
<path d="M54.5557 27.9154L54.3933 26.9009L52.7556 27.0634L52.4805 28.5618C52.4805 28.5618 53.727 28.5154 54.5557 28.0314V27.9154Z" fill="#0060AE"/>
<path d="M54.5557 27.9154L54.3933 26.9009L52.7556 27.0634L52.4805 28.5618C52.4805 28.5618 53.727 28.5154 54.5557 28.0314V27.9154Z" stroke="#0060AE" stroke-miterlimit="10"/>
<path d="M57.169 32.5532C57.169 32.5532 55.5313 33.8925 52.8991 34.3765C50.2702 34.8605 47.4756 34.7909 47.4756 34.7909V43.1682H49.7133L49.5741 35.9446C49.5741 35.9446 53.1511 35.8518 55.0407 34.5158C56.9336 33.1765 57.1624 32.5532 57.1624 32.5532H57.169Z" fill="#0060AE"/>
<path d="M57.169 32.5532C57.169 32.5532 55.5313 33.8925 52.8991 34.3765C50.2702 34.8605 47.4756 34.7909 47.4756 34.7909V43.1682H49.7133L49.5741 35.9446C49.5741 35.9446 53.1511 35.8518 55.0407 34.5158C56.9336 33.1765 57.1624 32.5532 57.1624 32.5532H57.169Z" stroke="#0060AE" stroke-miterlimit="10"/>
<path d="M55.2979 37.4696L57.0615 35.7026" stroke="#0060AE" stroke-miterlimit="10"/>
<path d="M56.0137 38.9216H58.9674" stroke="#0060AE" stroke-miterlimit="10"/>
<path d="M55.5068 40.7681L56.9124 41.9681" stroke="#0060AE" stroke-miterlimit="10"/>
<path d="M53.6846 41.4843V43.0755" stroke="#0060AE" stroke-miterlimit="10"/>
<path d="M51.8105 40.7681L50.0137 42.661" stroke="#0060AE" stroke-miterlimit="10"/>
<path d="M51.4226 38.9216L50.0137 39.0144" stroke="#0060AE" stroke-miterlimit="10"/>
<path d="M51.8113 37.4696L50.4521 36.1302" stroke="#0060AE" stroke-miterlimit="10"/>
<path d="M53.3125 35.4772V36.9259" stroke="#0060AE" stroke-miterlimit="10"/>
<path d="M63.1377 38.2718C59.7463 41.9715 54.2333 44.3815 48.0075 44.3815C44.9974 44.3815 41.8447 43.7948 39.3252 42.7969C41.9839 46.3176 43.4492 51.3963 43.1177 56.9293C44.0028 51.7676 48.0075 47.8127 53.0829 46.5065L53.073 46.4734C57.5517 45.4391 61.2514 42.3593 63.1344 38.2718H63.1377Z" fill="#0060AE"/>
<path d="M51.5261 29.036C49.716 29.036 48.0319 28.5951 46.6064 27.8392C48.0253 29.4802 50.1238 30.5212 52.4643 30.5212C56.27 30.5212 59.4326 27.7762 60.0857 24.1561C58.7298 27.0171 55.4081 29.0393 51.5228 29.0393L51.5261 29.036Z" fill="#0060AE"/>
<path d="M51.5261 29.036C49.716 29.036 48.0319 28.5951 46.6064 27.8392C48.0253 29.4802 50.1238 30.5212 52.4643 30.5212C56.27 30.5212 59.4326 27.7762 60.0857 24.1561C58.7298 27.0171 55.4081 29.0393 51.5228 29.0393L51.5261 29.036Z" stroke="#0060AE" stroke-miterlimit="10"/>
<path d="M48.9336 31.4792C46.6462 31.4792 44.5146 30.9222 42.7178 29.9675C44.5113 32.0428 47.1633 33.3555 50.1237 33.3555C54.934 33.3555 58.932 29.8846 59.7575 25.3098C58.0436 28.9232 53.8466 31.4792 48.9369 31.4792H48.9336Z" fill="#0060AE"/>
<path d="M48.9336 31.4792C46.6462 31.4792 44.5146 30.9222 42.7178 29.9675C44.5113 32.0428 47.1633 33.3555 50.1237 33.3555C54.934 33.3555 58.932 29.8846 59.7575 25.3098C58.0436 28.9232 53.8466 31.4792 48.9369 31.4792H48.9336Z" stroke="#0060AE" stroke-miterlimit="10"/>
<path d="M42.4922 29.8514L44.4448 34.1346L43.8713 30.9421L42.4922 29.8514Z" fill="#0060AE"/>
<path d="M42.4922 29.8514L44.4448 34.1346L43.8713 30.9421L42.4922 29.8514Z" stroke="#0060AE" stroke-miterlimit="10"/>
<path d="M50.1869 11.8537C25.8108 11.8537 6.05273 31.6118 6.05273 55.9845C6.05273 62.7076 7.5578 69.0792 10.2464 74.7812C17.3042 89.7523 32.5339 100.115 50.1836 100.115C67.8332 100.115 83.0596 89.7523 90.1208 74.7812C92.8093 69.0792 94.3144 62.7076 94.3144 55.9845C94.3144 31.6118 74.5563 11.8537 50.1836 11.8537H50.1869Z" stroke="#0060AE" stroke-miterlimit="10"/>
<path d="M10.1904 74.6552L10.2501 74.7845C17.308 89.7556 32.5376 100.119 50.1873 100.119C67.837 100.119 83.0633 89.7556 90.1245 74.7845L90.1842 74.6552H10.1904Z" fill="#0060AE"/>
<path d="M10.1904 74.6552L10.2501 74.7845C17.308 89.7556 32.5376 100.119 50.1873 100.119C67.837 100.119 83.0633 89.7556 90.1245 74.7845L90.1842 74.6552H10.1904Z" stroke="#0060AE" stroke-miterlimit="10"/>
<path d="M30.7442 83.5729C30.9763 83.9177 31.3542 84.0901 31.878 84.0901C32.1366 84.0901 32.3587 84.0304 32.5543 83.9077C32.7764 83.7685 32.8891 83.5795 32.8891 83.3375C32.8891 83.0359 32.6471 82.8171 32.1631 82.6845L30.8138 82.3065C30.3265 82.0778 30.0845 81.6899 30.0845 81.1462C30.0845 80.8479 30.1972 80.5595 30.426 80.2843C30.7707 79.8699 31.3045 79.6611 32.0305 79.6611C32.5675 79.6611 33.0515 79.7738 33.4792 79.9992C33.5753 80.0523 33.635 80.1152 33.6549 80.1882C33.6847 80.2909 33.7013 80.4865 33.7013 80.7716C33.7013 80.9473 33.6184 81.0368 33.4593 81.0368C33.3764 81.0368 33.2836 80.9573 33.1841 80.7982C33.0482 80.586 32.9322 80.4401 32.836 80.3572C32.6438 80.1981 32.3918 80.1186 32.0835 80.1186C31.8747 80.1186 31.689 80.1716 31.5332 80.2744C31.3542 80.3904 31.2647 80.5495 31.2647 80.7484C31.2647 81.0601 31.5034 81.2855 31.9874 81.4214L33.3234 81.8026C33.8041 82.0314 34.0427 82.4126 34.0427 82.9497C34.0427 83.3607 33.8803 83.7221 33.5521 84.0403C33.1576 84.415 32.6206 84.6039 31.941 84.6039C31.2614 84.6039 30.7011 84.4481 30.3232 84.1365C30.048 83.9111 29.9121 83.6856 29.9121 83.4635C29.9121 83.3674 29.9419 83.2845 30.0049 83.2149C30.0646 83.1419 30.1409 83.1088 30.2337 83.1088C30.3431 83.1088 30.4458 83.1618 30.542 83.2712C30.5586 83.2878 30.6282 83.3906 30.7508 83.5762" fill="white"/>
<path d="M34.7139 83.6823V80.586C34.7139 80.4435 34.7073 80.354 34.694 80.3142C34.6774 80.2578 34.631 80.2214 34.5647 80.2048C34.4321 80.1683 34.3691 80.0954 34.3691 79.9827C34.3691 79.8368 34.4752 79.7606 34.6907 79.7606H35.9372C36.1494 79.7606 36.2588 79.8335 36.2588 79.9827C36.2588 80.0523 36.2157 80.112 36.1262 80.165C36.0267 80.2247 35.967 80.2744 35.9505 80.3142C35.9239 80.3705 35.9107 80.4601 35.9107 80.586V83.6823C35.9107 83.7951 35.9173 83.8713 35.9306 83.9144C35.9471 83.9807 35.9869 84.0271 36.0499 84.0569C36.1891 84.1299 36.2588 84.2061 36.2588 84.2824C36.2588 84.4282 36.1494 84.5012 35.9372 84.5012H34.6907C34.4785 84.5012 34.3691 84.4282 34.3691 84.2824C34.3691 84.1962 34.4222 84.1299 34.5316 84.0802C34.6178 84.0404 34.6741 83.9873 34.694 83.9177C34.7073 83.8746 34.7139 83.7951 34.7139 83.679" fill="white"/>
<path d="M37.1019 83.6956V80.8247C37.1019 80.6225 37.0953 80.4965 37.082 80.4501C37.0456 80.3341 36.9627 80.2545 36.8268 80.2114C36.661 80.1584 36.5781 80.0854 36.5781 79.9827C36.5781 79.8368 36.7041 79.7639 36.9527 79.7639H37.8511C37.9738 79.7639 38.06 79.7738 38.1097 79.7937C38.1594 79.8136 38.2257 79.8666 38.3086 79.9528C38.66 80.3175 39.3496 81.2523 40.3872 82.7607V80.5761C40.3872 80.46 40.3673 80.3772 40.3308 80.3274C40.2944 80.2777 40.2181 80.228 40.1054 80.1816C39.9927 80.1352 39.9363 80.0622 39.9363 79.9661C39.9363 79.8799 39.9794 79.8202 40.0623 79.7904C40.1154 79.7738 40.2214 79.7639 40.3839 79.7639H40.9541C41.2524 79.7639 41.4016 79.8302 41.4016 79.9661C41.4016 80.0655 41.3486 80.1385 41.2359 80.1816C41.1099 80.228 41.0303 80.2744 40.9972 80.3208C40.964 80.3672 40.9474 80.4501 40.9474 80.5761V84.1C40.9474 84.2989 40.9276 84.4216 40.8878 84.4713C40.8447 84.531 40.7253 84.5608 40.5331 84.5608C40.3408 84.5608 40.2347 84.5244 40.1916 84.4581C39.4059 83.2646 38.5639 82.1043 37.6622 80.9838V83.6989C37.6622 83.8149 37.6821 83.8978 37.7185 83.9475C37.755 83.9973 37.8312 84.0437 37.944 84.0901C38.0567 84.1365 38.113 84.2061 38.113 84.3056C38.113 84.4382 37.9638 84.5078 37.6688 84.5078H37.0986C36.8036 84.5078 36.6544 84.4415 36.6544 84.3056C36.6544 84.2161 36.7074 84.1464 36.8102 84.0967C36.9461 84.0271 37.029 83.9741 37.0588 83.9376C37.092 83.9011 37.1052 83.8216 37.1052 83.6956" fill="white"/>
<path d="M45.8537 80.092C45.92 80.1351 45.9631 80.165 45.983 80.1815C46.0261 80.218 46.0559 80.2578 46.0692 80.3042C46.109 80.4302 46.1289 80.6689 46.1289 81.017C46.1289 81.186 46.0361 81.2689 45.8537 81.2689C45.7609 81.2689 45.6449 81.1496 45.5056 80.9109C45.3366 80.6191 45.2172 80.4468 45.1509 80.397C44.9354 80.218 44.6901 80.1285 44.4116 80.1285C43.921 80.1285 43.5365 80.3407 43.258 80.765C43.0226 81.133 42.9033 81.5706 42.9033 82.0811C42.9033 82.532 42.9895 82.9231 43.1585 83.2613C43.4171 83.7718 43.8448 84.0271 44.4415 84.0271C44.7034 84.0271 44.9454 83.9608 45.1708 83.8249C45.2703 83.7652 45.4228 83.6392 45.6283 83.4503C45.7708 83.3176 45.8869 83.248 45.9764 83.248C46.0394 83.248 46.0891 83.2712 46.1355 83.3176C46.1819 83.3641 46.2051 83.4171 46.2051 83.4768C46.2051 83.7055 46.0162 83.9442 45.6416 84.1895C45.2205 84.4614 44.7432 84.5973 44.2061 84.5973C43.49 84.5973 42.8834 84.3785 42.3927 83.9442C41.8822 83.49 41.627 82.9132 41.627 82.2137C41.627 81.5142 41.8955 80.891 42.4325 80.4003C42.9696 79.9064 43.6028 79.6611 44.3321 79.6611C44.9089 79.6611 45.4161 79.8036 45.8537 80.0887" fill="white"/>
<path d="M48.0812 82.2038V83.321C48.0812 83.669 48.1541 83.8812 48.3033 83.9608C48.3895 84.0072 48.6381 84.0337 49.0492 84.037C49.2713 84.037 49.4404 84.0204 49.5531 83.9906C49.7056 83.9475 49.8481 83.8547 49.9807 83.7121C50.173 83.5033 50.3156 83.4005 50.4084 83.4005C50.4681 83.4005 50.5244 83.4204 50.5708 83.4602C50.6172 83.5 50.6438 83.553 50.6438 83.6127C50.6438 83.7154 50.594 83.9144 50.5012 84.2028C50.4581 84.3354 50.4117 84.4216 50.362 84.4514C50.3123 84.4846 50.2128 84.5011 50.0703 84.5011H46.8645C46.6491 84.5011 46.543 84.4282 46.543 84.2823C46.543 84.1961 46.5993 84.1298 46.7087 84.0801C46.7949 84.0403 46.8513 83.9873 46.8712 83.9177C46.8844 83.8746 46.8911 83.795 46.8911 83.679V80.5793C46.8911 80.4368 46.8844 80.3473 46.8712 80.3075C46.8546 80.2512 46.8082 80.2147 46.7386 80.1981C46.6093 80.165 46.543 80.0887 46.543 79.976C46.543 79.8301 46.6491 79.7572 46.8645 79.7572H49.9244C50.1332 79.7572 50.2592 79.7904 50.299 79.86C50.3653 79.976 50.3985 80.1716 50.3985 80.4501C50.3985 80.6357 50.3189 80.7285 50.1631 80.7285C50.0802 80.7285 49.9807 80.6655 49.8614 80.5363C49.7222 80.3838 49.5564 80.2876 49.3708 80.2478C49.2879 80.2313 49.0956 80.2213 48.7939 80.2213C48.5851 80.2213 48.4425 80.2279 48.3663 80.2412C48.1773 80.281 48.0845 80.3606 48.0845 80.4865V81.6667H49.0757C49.2282 81.6667 49.3608 81.6269 49.4735 81.5474C49.5862 81.4678 49.6592 81.428 49.689 81.428C49.8415 81.428 49.9178 81.5772 49.9178 81.8756C49.9178 82.0579 49.9144 82.1706 49.9045 82.2137C49.8713 82.3529 49.8017 82.4226 49.689 82.4226C49.6492 82.4226 49.573 82.3861 49.4603 82.3132C49.3442 82.2402 49.2183 82.2038 49.0724 82.2038H48.0812Z" fill="white"/>
<path d="M54.6319 83.5198V81.07C54.6319 80.8644 54.6054 80.7285 54.5523 80.6655C54.4993 80.6025 54.37 80.5727 54.1645 80.5727C53.9987 80.5727 53.8959 80.5694 53.8562 80.5594C53.7335 80.5329 53.6738 80.4699 53.6738 80.3705C53.6738 80.2545 53.7865 80.1749 54.0087 80.1384C54.3004 80.0854 54.612 79.9859 54.9402 79.8334C55.2154 79.7075 55.3977 79.6445 55.4839 79.6445C55.7093 79.6445 55.8253 79.7903 55.8253 80.0787V83.4933C55.8253 83.6922 55.8419 83.8215 55.8784 83.8812C55.9281 83.9674 56.0408 84.0204 56.2265 84.037C56.3657 84.0503 56.4519 84.0635 56.4884 84.0768C56.5779 84.1133 56.621 84.1796 56.621 84.279C56.621 84.4315 56.5182 84.5044 56.3127 84.5044H54.1446C53.9125 84.5044 53.7965 84.4282 53.7965 84.279C53.7965 84.1464 53.9324 84.0668 54.2076 84.0469C54.4031 84.0304 54.5258 83.9873 54.5755 83.9177C54.6153 83.8613 54.6352 83.732 54.6352 83.5232" fill="white"/>
<path d="M60.2023 82.4457C59.9172 82.6281 59.6089 82.7176 59.2774 82.7176C58.8233 82.7176 58.4486 82.5883 58.1503 82.3297C57.8519 82.0711 57.7061 81.7197 57.7061 81.2722C57.7061 80.7749 57.895 80.3738 58.2763 80.0655C58.6243 79.7837 59.0586 79.6445 59.5725 79.6445C60.2023 79.6445 60.6897 79.8268 61.0377 80.1881C61.3858 80.5495 61.5582 81.0468 61.5582 81.6733C61.5582 82.4888 61.2831 83.1784 60.7328 83.742C60.1791 84.3155 59.4896 84.6039 58.6674 84.6039C58.2166 84.6039 57.9945 84.521 57.9945 84.3586C57.9945 84.2226 58.137 84.1497 58.4188 84.1365C59.42 84.0934 60.0134 83.5298 60.199 82.4457M59.5758 82.2502C59.8277 82.2502 60.0167 82.1374 60.1394 81.912C60.2388 81.7297 60.2885 81.5042 60.2885 81.239C60.2885 80.9473 60.2454 80.6987 60.1659 80.4998C60.0498 80.218 59.8675 80.0787 59.6156 80.0787C59.3636 80.0787 59.1846 80.2114 59.0719 80.4799C58.989 80.6688 58.9459 80.9075 58.9459 81.1926C58.9459 81.4612 58.9857 81.6866 59.0653 81.8656C59.1747 82.1209 59.3437 82.2468 59.5758 82.2468V82.2502Z" fill="white"/>
<path d="M62.569 81.9784L62.7215 80.1318C62.7348 79.9926 62.748 79.8998 62.7613 79.8534C62.7978 79.7473 62.8608 79.6909 62.9503 79.6909C63.0961 79.6909 63.3116 79.7042 63.6033 79.7274C63.8918 79.7506 64.1106 79.7639 64.2564 79.7639C64.2962 79.7639 64.6907 79.7407 65.4432 79.6909C65.5626 79.6843 65.6189 79.7307 65.6189 79.8401C65.6189 79.9561 65.5559 80.0788 65.43 80.2081C65.304 80.3374 65.178 80.4236 65.0554 80.4667C64.8565 80.5363 64.4653 80.5694 63.8884 80.5694C63.6365 80.5694 63.421 80.5595 63.2453 80.5429L63.1591 81.6767C63.4608 81.5441 63.789 81.4745 64.1437 81.4745C64.6277 81.4745 65.0322 81.5971 65.357 81.8358C65.7118 82.1043 65.8875 82.469 65.8875 82.9364C65.8875 83.4801 65.6885 83.9011 65.2907 84.1929C64.9327 84.4614 64.4686 84.594 63.8951 84.594C63.5072 84.594 63.1558 84.5244 62.8475 84.3851C62.4464 84.2094 62.2441 83.9509 62.2441 83.6127C62.2441 83.3143 62.4099 83.1652 62.7414 83.1652C62.8674 83.1652 62.9701 83.1917 63.0563 83.248C63.1657 83.3177 63.2155 83.4105 63.2055 83.5265V83.7287C63.1956 83.8746 63.2519 83.9873 63.3746 84.0669C63.474 84.1266 63.6033 84.1564 63.7625 84.1564C64.0608 84.1564 64.2829 84.0404 64.4387 83.805C64.5747 83.6028 64.641 83.3475 64.641 83.0392C64.641 82.7309 64.5747 82.4657 64.4387 82.2734C64.2863 82.048 64.0542 81.9353 63.7525 81.9353C63.5602 81.9353 63.358 82.0049 63.1459 82.1408C62.9337 82.28 62.811 82.3463 62.7746 82.3463C62.6188 82.3463 62.5491 82.2204 62.5723 81.9651" fill="white"/>
<path d="M68.5136 83.7353V83.2812H67.035C66.8693 83.2812 66.7566 83.2712 66.7002 83.248C66.6173 83.2182 66.5742 83.1485 66.5742 83.0425C66.5742 82.8104 66.7466 82.3662 67.0914 81.7131C67.5754 80.7915 68.066 80.155 68.56 79.7936C68.6561 79.724 68.7423 79.6809 68.8152 79.6644C68.8683 79.6511 68.9677 79.6445 69.1103 79.6445C69.3655 79.6445 69.528 79.6743 69.5976 79.734C69.6705 79.7937 69.707 79.9461 69.707 80.1881V82.8137H70.1446C70.254 82.8137 70.3302 82.8237 70.3733 82.8469C70.4363 82.8767 70.4662 82.943 70.4662 83.0425C70.4662 83.2016 70.3667 83.2812 70.1678 83.2812H69.707V83.7287C69.707 83.858 69.7103 83.9342 69.7203 83.9541C69.7368 84.0237 69.7899 84.0735 69.8728 84.1033C70.0054 84.1464 70.0717 84.2127 70.0717 84.3055C70.0717 84.4381 69.9623 84.5077 69.7435 84.5077H68.4274C68.1953 84.5077 68.0793 84.4414 68.0793 84.3055C68.0793 84.2193 68.1555 84.153 68.3014 84.1133C68.4008 84.0834 68.4638 84.037 68.4904 83.9773C68.5036 83.9375 68.5103 83.858 68.5103 83.7386M68.5103 82.817V80.5628C67.897 81.2755 67.456 82.028 67.1875 82.817H68.5103Z" fill="white"/>
</svg>
