<svg width="655" height="434" viewBox="0 0 655 434" fill="none" xmlns="http://www.w3.org/2000/svg" preserveAspectRatio="none">
<mask id="mask0" mask-type="alpha" maskUnits="userSpaceOnUse" x="-445" y="0" width="1100" height="444">
<rect x="-445" width="1100" height="444" rx="19.4686" fill="#F7F8FC"/>
</mask>
<g mask="url(#mask0)">
<path opacity="0.6" d="M455.231 -125.165C720.497 -359.575 671.667 -139.925 725.535 18.6039L674.688 401.662C223.392 479.628 11.8238 346.755 5.6745 223.642C-0.474914 100.529 37.1489 43.2807 168.805 14.2287C279.87 -10.2795 385.876 -68.754 455.231 -125.165Z" fill="url(#paint0_linear)"/>
<path opacity="0.2" d="M221.488 112.973C116.704 98.2311 114.158 21.2924 125.982 -15.3342H677.871V253.565C526.153 371.498 422.733 279.954 389.988 219.44C337.051 145.186 255.598 117.523 221.488 112.973Z" fill="url(#paint1_linear)"/>
<path d="M234.314 109.15C137.254 95.5013 134.895 24.2649 145.848 -9.64709H657.056V235.498C533.732 371.083 420.725 263.756 390.394 207.727C341.358 138.976 265.909 113.363 234.314 109.15Z" fill="url(#paint2_linear)"/>
<path opacity="0.3" d="M289.778 287.404C422.82 253.982 740.874 262.834 811.522 267.998C855.985 275.019 823.733 280.796 802.049 282.806C754.341 289.981 911.715 301.081 1013.54 309.145C1112.21 312.515 1074.11 319.925 1042.72 323.21C756.811 340.406 406.541 338.517 318.223 332.291C221.962 322.951 256.818 296.366 289.778 287.404Z" fill="url(#paint3_linear)"/>
<path d="M303.416 259.841C315.407 270.859 313.804 282.196 311.915 285.111L311.082 284.872C313.375 279.397 309.856 269.356 307.398 266.396C305.163 262.868 297.341 261.104 293.709 260.663C286.517 259.321 277.224 252.625 273.476 249.445L245.993 225.774C233.906 215.089 256.598 221.3 269.455 225.742C294.357 235.774 299.819 246.181 299.437 250.13C299.956 254.609 302.306 258.47 303.416 259.841Z" fill="url(#paint4_linear)"/>
<path d="M268.897 237.993C271.465 241.616 276.544 250.109 278.763 253.903C276.145 251.709 255.464 233.988 245.45 225.402C257.691 226.75 266.182 234.358 268.897 237.993Z" fill="url(#paint5_linear)"/>
<path d="M307.12 248.282C311.921 255.891 313.336 274.513 313.221 280.177L314.518 280.071C315.393 269.56 312.367 255.68 310.967 252.751C309.731 250.417 310.144 248.034 310.505 247.134C314.354 230.463 308.143 223.695 304.556 222.395C300.21 220.317 299.439 216.582 299.596 214.974C298.37 204.288 288.969 200.334 284.421 199.693C280.851 198.595 278.258 195.27 277.408 193.745C274.534 188.414 266.492 189.713 262.831 191.029C272.817 198.211 296.517 232.191 307.12 248.282Z" fill="url(#paint6_linear)"/>
<path d="M284.591 206.464C282.041 197.217 272.413 194.49 267.917 194.283C280.191 211.026 304.825 244.509 305.171 244.491C306.83 236.074 295.681 222.688 289.899 217.048C288.079 215.403 285.602 209.307 284.591 206.464Z" fill="url(#paint7_linear)"/>
<path d="M524.542 58.2677H398.731V306.77H524.542V58.2677Z" fill="url(#paint8_linear)"/>
<path d="M513.278 69.8787H409.996V295.333H513.278V69.8787Z" fill="#E7F0F4"/>
<path d="M493.349 197.595H429.751V306.77H493.349V197.595Z" fill="url(#paint9_linear)"/>
<path d="M393.412 92.9265H313.42C310.481 92.9265 308.1 95.3084 308.1 98.2466V301.45C308.1 304.388 310.481 306.77 313.42 306.77H393.412C396.35 306.77 398.732 304.388 398.732 301.45V98.2466C398.732 95.3084 396.35 92.9265 393.412 92.9265Z" fill="url(#paint10_linear)"/>
<path d="M398.732 107.83H308.1V139.542H398.732V107.83Z" fill="url(#paint11_linear)"/>
<path opacity="0.8" d="M331.476 150.633H324.579C321.986 150.633 319.883 152.736 319.883 155.329V189.086C319.883 191.68 321.986 193.783 324.579 193.783H331.476C334.07 193.783 336.173 191.68 336.173 189.086V155.329C336.173 152.736 334.07 150.633 331.476 150.633Z" fill="url(#paint12_linear)"/>
<path opacity="0.8" d="M357.99 150.633H351.094C348.5 150.633 346.397 152.736 346.397 155.329V189.086C346.397 191.68 348.5 193.783 351.094 193.783H357.99C360.584 193.783 362.687 191.68 362.687 189.086V155.329C362.687 152.736 360.584 150.633 357.99 150.633Z" fill="url(#paint13_linear)"/>
<path d="M389.201 150.633H372.911V193.783H389.201V150.633Z" fill="#5BA5DA"/>
<path opacity="0.8" d="M331.476 209.379H324.579C321.986 209.379 319.883 211.482 319.883 214.076V247.833C319.883 250.427 321.986 252.529 324.579 252.529H331.476C334.07 252.529 336.173 250.427 336.173 247.833V214.076C336.173 211.482 334.07 209.379 331.476 209.379Z" fill="url(#paint14_linear)"/>
<path opacity="0.8" d="M357.99 209.379H351.094C348.5 209.379 346.397 211.482 346.397 214.076V247.833C346.397 250.427 348.5 252.529 351.094 252.529H357.99C360.584 252.529 362.687 250.427 362.687 247.833V214.076C362.687 211.482 360.584 209.379 357.99 209.379Z" fill="url(#paint15_linear)"/>
<path d="M389.201 209.379H372.911V252.529H389.201V209.379Z" fill="#5BA5DA"/>
<path d="M398.732 263.446H308.1V295.159H398.732V263.446Z" fill="url(#paint16_linear)"/>
<path d="M609.855 92.9265H529.863C526.924 92.9265 524.543 95.3084 524.543 98.2466V301.45C524.543 304.388 526.924 306.77 529.863 306.77H609.855C612.793 306.77 615.175 304.388 615.175 301.45V98.2466C615.175 95.3084 612.793 92.9265 609.855 92.9265Z" fill="url(#paint17_linear)"/>
<path d="M615.175 107.83H524.543V139.542H615.175V107.83Z" fill="url(#paint18_linear)"/>
<path opacity="0.8" d="M598.867 150.633H591.797C589.203 150.633 587.101 152.736 587.101 155.329V189.086C587.101 191.68 589.203 193.783 591.797 193.783H598.867C601.461 193.783 603.564 191.68 603.564 189.086V155.329C603.564 152.736 601.461 150.633 598.867 150.633Z" fill="url(#paint19_linear)"/>
<path opacity="0.8" d="M545.667 150.633H538.597C536.003 150.633 533.9 152.736 533.9 155.329V189.086C533.9 191.68 536.003 193.783 538.597 193.783H545.667C548.261 193.783 550.363 191.68 550.363 189.086V155.329C550.363 152.736 548.261 150.633 545.667 150.633Z" fill="url(#paint20_linear)"/>
<path opacity="0.8" d="M598.867 209.379H591.797C589.203 209.379 587.101 211.482 587.101 214.076V247.833C587.101 250.427 589.203 252.529 591.797 252.529H598.867C601.461 252.529 603.564 250.427 603.564 247.833V214.076C603.564 211.482 601.461 209.379 598.867 209.379Z" fill="url(#paint21_linear)"/>
<path opacity="0.8" d="M545.667 209.379H538.597C536.003 209.379 533.9 211.482 533.9 214.076V247.833C533.9 250.427 536.003 252.529 538.597 252.529H545.667C548.261 252.529 550.363 250.427 550.363 247.833V214.076C550.363 211.482 548.261 209.379 545.667 209.379Z" fill="url(#paint22_linear)"/>
<path d="M615.175 263.446H524.543V295.159H615.175V263.446Z" fill="url(#paint23_linear)"/>
<g opacity="0.7">
<rect x="456.127" y="84.8095" width="11.3236" height="43.0296" rx="5.66179" fill="#ED4C4C"/>
<rect x="440.274" y="111.986" width="11.3236" height="43.0296" rx="5.66178" transform="rotate(-90 440.274 111.986)" fill="#ED4C4C"/>
</g>
<path opacity="0.3" d="M124.071 348.323C124.071 355.009 148.977 360.429 178.205 360.429C207.432 360.429 292.531 357.507 231.126 348.323C214.159 345.786 219.006 338.305 201.231 336.217C172.004 336.217 124.071 341.637 124.071 348.323Z" fill="url(#paint24_linear)"/>
<path opacity="0.3" d="M327.449 369.023C327.449 375.374 355.172 380.523 387.706 380.523C420.241 380.523 514.966 377.747 446.615 369.023C427.728 366.613 433.124 359.506 413.338 357.524C380.804 357.524 327.449 362.672 327.449 369.023Z" fill="url(#paint25_linear)"/>
<path d="M176.557 300.118H180.177C181.176 300.118 181.987 299.307 181.987 298.307C181.987 297.307 181.176 296.499 180.177 296.499H176.557C175.558 296.499 174.747 297.308 174.747 298.307C174.747 299.306 175.558 300.118 176.557 300.118Z" fill="#D0D9F3"/>
<path d="M133.12 300.118H136.739C137.739 300.118 138.55 299.307 138.55 298.307C138.55 297.307 137.739 296.499 136.739 296.499H133.12C132.12 296.499 131.309 297.308 131.309 298.307C131.309 299.306 132.12 300.118 133.12 300.118Z" fill="#D0D9F3"/>
<path d="M147.598 291.069H165.699C166.698 291.069 167.509 291.878 167.509 292.878V303.737C167.509 304.737 166.698 305.548 165.699 305.548H147.598C146.599 305.548 145.79 304.737 145.79 303.737V292.878C145.79 291.878 146.599 291.069 147.598 291.069ZM149.409 301.929H163.888V294.688H149.409V301.929Z" fill="#D0D9F3"/>
<path d="M124.071 339.937C124.071 340.937 124.88 341.745 125.879 341.745H187.417C188.417 341.745 189.228 340.936 189.228 339.937V300.118C189.228 299.118 188.417 298.307 187.417 298.307H125.879C124.88 298.307 124.071 299.118 124.071 300.118V339.937Z" fill="url(#paint26_linear)"/>
<path d="M125.879 338.127H187.417C188.417 338.127 189.228 337.315 189.228 336.316V339.938C189.228 340.937 188.417 341.746 187.417 341.746H125.879C124.88 341.746 124.071 340.937 124.071 339.938V336.316C124.071 337.315 124.88 338.127 125.879 338.127Z" fill="#AFC0EC"/>
<path d="M153.028 327.267C153.028 329.266 154.651 330.886 156.649 330.886C158.648 330.886 160.268 329.266 160.268 327.267V312.788C160.268 310.789 158.648 309.167 156.649 309.167C154.651 309.167 153.028 310.789 153.028 312.788V327.267Z" fill="#DA4453"/>
<path d="M145.79 320.026C145.79 322.025 147.407 323.648 149.409 323.648H163.888C165.887 323.648 167.509 322.025 167.509 320.026C167.509 318.027 165.887 316.407 163.888 316.407H149.409C147.407 316.407 145.79 318.027 145.79 320.026Z" fill="#ED5564"/>
<mask id="mask1" mask-type="alpha" maskUnits="userSpaceOnUse" x="124" y="298" width="66" height="44">
<path d="M124.071 339.937C124.071 340.937 124.88 341.745 125.879 341.745H187.417C188.417 341.745 189.228 340.936 189.228 339.937V300.118C189.228 299.118 188.417 298.307 187.417 298.307H125.879C124.88 298.307 124.071 299.118 124.071 300.118V339.937Z" fill="url(#paint27_linear)"/>
</mask>
<g mask="url(#mask1)">
<path opacity="0.3" d="M123.921 336.402C146.102 321.728 190.583 292.311 191.059 292.025L122.374 290.955L123.921 336.402Z" fill="white"/>
</g>
<path d="M171.147 183.133C170.217 183.673 167.61 184.966 164.622 185.818C163.223 186.225 160.086 187.121 158.735 187.451C158.263 187.545 156.978 188.085 155.613 189.501C154.511 190.709 153.327 193.401 152.915 195.004C152.802 195.582 154.135 195.486 155.091 192.462C154.917 193.312 155.241 194.846 156.783 195.545C156.586 196.022 156.687 196.603 158.662 195.108C159.465 194.585 161.398 193.515 162.703 193.423C164.858 193.37 169.835 192.132 172.501 187.604L171.147 183.133Z" fill="#F9C5A8"/>
<path opacity="0.5" d="M165.47 192.932C169.02 191.285 169.723 189.269 169.89 188.521C170.082 187.664 168.793 186.078 167.63 184.773C168.021 184.605 168.411 184.437 168.806 184.282C169.201 184.126 172.512 187.625 172.512 187.625C170.318 191.021 167.113 192.621 165.47 192.932Z" fill="url(#paint28_linear)"/>
<path d="M160.256 189.48C159.064 189.99 156.561 191.74 156.088 194.667C156.097 193.246 156.944 190.219 160.256 189.48Z" fill="#E3A380"/>
<path d="M156.432 189.794C156.089 190.387 155.38 191.693 155.287 192.169C155.257 191.689 155.444 190.542 156.432 189.794Z" fill="#E3A380"/>
<path d="M162.035 191.199C161.066 191.196 158.678 192.04 156.874 195.449C157.786 194.266 160.094 191.76 162.035 191.199Z" fill="#E3A380"/>
<path d="M190.928 142.223C189.098 138.092 192.732 127.858 188.317 128.964C179.418 131.193 180.392 155.819 179.071 167.265C175.431 172.07 169.811 182.452 168.045 184.026C170.708 185.398 172.315 188.143 172.785 189.344C176.401 186.061 184.354 178.89 187.236 176.466C190.117 174.042 190.999 171.731 191.08 170.879C192.883 161.212 193.077 151.98 190.928 142.223Z" fill="url(#paint29_linear)"/>
<path d="M170.654 207.428C175.339 210.426 170.552 220.08 215.252 219.393C205.657 209.108 191.875 194.635 170.654 207.428Z" fill="url(#paint30_linear)"/>
<path d="M177.769 259.746C174.287 259.056 172.842 254.17 169.178 252.477L176.186 245.063L221.444 244.015L230.99 266.264C230.532 265.288 221.919 266.555 217.984 267.338C207.197 269.321 206.081 267.504 207.535 265.238C208.465 262.843 198.898 265.073 192.699 265.404C179.921 266.086 177.592 264.146 179.721 261.531C180.773 259.746 180.207 260.229 177.769 259.746Z" fill="url(#paint31_linear)"/>
<path d="M182.499 334.979C182.895 332.484 184.688 325.455 184.639 323.74L191.014 323.948L190.905 332.852C191.04 335.403 192.263 338.253 192.017 340.928C191.612 345.332 189.698 347.552 183.034 349.079C177.279 349.659 179.351 345.144 180.16 343.225C181.28 340.571 181.916 338.647 182.499 334.979Z" fill="#F9C5A8"/>
<path d="M182.111 281.995C180.786 270.66 181.912 250.868 182.111 249.592C182.948 244.212 194.692 253.935 197.649 259.314C199.705 263.054 194.711 275.984 194.906 284.107C194.383 307.607 191.92 317.751 190.94 324.931C187.372 324.768 187.146 324.61 184.585 324.384C185.868 317.525 182.92 288.914 182.111 281.995Z" fill="#F9C5A8"/>
<path opacity="0.8" d="M199.135 260.704C198.573 264.202 196.887 271.01 195.762 277.006C195.025 274.795 185.775 271.635 181.487 269.511C181.562 265.219 181.625 256.548 181.273 256.196L199.135 260.704Z" fill="url(#paint32_linear)"/>
<path d="M204.754 343.946C204.918 341.318 206.103 333.895 205.871 332.098L212.723 332.14L213.536 341.484C213.949 344.156 215.557 347.112 215.573 349.926C215.6 354.556 213.782 356.938 206.802 358.722C200.699 359.489 202.445 354.695 203.112 352.661C204.034 349.846 204.514 347.81 204.754 343.946Z" fill="#F9C5A8"/>
<path d="M200.918 257.957C201.757 256.936 203.94 259.568 209.008 254.875C224.901 249.207 218.877 257.197 215.987 265.051C214.039 270.342 214.104 281.128 214.104 288.241C217.023 306.672 213.051 326.079 212.753 333.638C208.913 333.565 208.655 333.406 205.888 333.239C206.544 326.008 201.12 295.256 200.918 287.97C200.523 273.679 200.079 258.977 200.918 257.957Z" fill="#F9C5A8"/>
<path opacity="0.6" d="M200.447 276.256C200.072 268.386 200.644 259.718 200.644 259.718L217.311 256.956C216.052 263.68 213.167 278.254 214.291 284.812C210.919 280.315 204.632 278.38 200.447 276.256Z" fill="url(#paint33_linear)"/>
<path d="M216.382 350.505C210.429 346.286 204.336 349.276 202.033 351.299C199.696 359.051 204.404 359.823 207.049 359.239C215.049 357.972 216.604 352.889 216.382 350.505Z" fill="url(#paint34_linear)"/>
<path d="M182.467 204.884C184.362 195.478 186.484 186.465 186.047 184.395L217.883 182.072C217.999 184.703 219.758 190.695 220.435 193.854C222.518 203.566 222.764 205.754 223.383 210.224C224.001 214.693 225.175 221.017 225.325 227.184C225.619 239.246 226.996 255.914 230.971 266.385C231.007 266.455 231.035 266.528 231.054 266.602C231.026 266.53 230.999 266.458 230.971 266.385C230.04 264.587 223.562 264.187 219.816 264.891C216.313 265.548 215.085 263.769 215.729 260.671C217.02 254.458 198.606 261.158 189.123 262.091C182.27 262.764 181.009 255.838 180.298 253.433C179.198 249.714 174.118 247.752 175.537 251.626C177.396 258.396 172.875 251.425 169.488 252.464C170.936 250.755 175.017 236.293 176.756 228.615C180.102 216.508 180.799 213.161 182.467 204.884Z" fill="url(#paint35_linear)"/>
<path opacity="0.7" d="M189.204 210.613C188.605 211.812 183.333 212.112 180.96 212.112L183.583 196.935L205.319 198.996L225.18 222.231C225.305 223.355 225.48 226.615 225.18 230.663C210.94 223.73 204.382 223.917 202.695 222.231C201.346 220.882 203.382 210.239 204.194 205.179C201.196 204.742 192.989 204.093 190.891 204.242C188.267 204.43 189.954 209.114 189.204 210.613Z" fill="url(#paint36_linear)"/>
<path d="M193.099 341.75C187.948 337.594 181.997 340.288 179.665 342.155C176.77 349.469 181.081 350.318 183.599 349.828C191.165 348.817 193.085 344.022 193.099 341.75Z" fill="url(#paint37_linear)"/>
<path d="M185.51 125.523C185.51 121.524 186.885 119.219 187.573 117.271L194.621 115.207L196.169 123.288L189.636 134.119C189.75 133.145 185.51 133.775 185.51 125.523Z" fill="url(#paint38_linear)"/>
<path d="M189.12 129.305L193.246 125.695L193.762 117.271C192.787 117.099 190.77 116.755 187.057 118.818C189.979 121.053 187.4 129.305 189.12 129.305Z" fill="url(#paint39_linear)"/>
<path d="M203.57 125.179L191.707 125.523C179.501 136.526 192.567 170.395 181.736 200.997C194.63 198.418 205.353 207.03 214.573 201.513C227.259 193.921 205.289 165.237 205.289 165.237L207.524 129.477L203.57 125.179Z" fill="url(#paint40_linear)"/>
<path d="M200.449 181.348C195.332 155.612 202.33 133.25 206.469 125.285H208.915L212.678 198.092L201.014 215.588C199.509 214.083 200.01 210.571 200.449 209.003C203.76 201.478 201.829 187.431 200.449 181.348Z" fill="url(#paint41_linear)"/>
<path d="M190.667 141.512C190.667 133.403 191.457 125.861 192.73 125.351C189.566 126.205 186.223 129.305 185.117 132.572C183.779 136.526 182.464 150.624 183.786 158.02C184.727 163.282 182.171 174.422 180.96 178.947C177.4 192.251 173.852 197.645 170.654 207.428C172.903 207.428 174.589 207.261 178.711 208.178C183.77 209.302 186.394 208.74 186.394 206.491C186.394 203.126 186.769 198.434 187.705 192.251C188.642 186.067 189.767 178.947 190.667 168.641V141.512Z" fill="url(#paint42_linear)"/>
<path d="M201.779 185.863C197.715 157.719 204.099 132.496 207.799 123.404C207.799 123.404 223.504 126.039 225.568 131.196C231.757 151.483 222.027 173.024 227.239 189.134C232.912 206.67 235.891 225.407 233.132 231.427C231.025 230.524 223.504 221.628 200.838 217.657C198.224 217.199 199.584 213.581 200.462 211.449C204.526 202.418 203.001 194.329 201.779 185.863Z" fill="url(#paint43_linear)"/>
<g filter="url(#filter0_f)">
<path d="M204.465 213.659C207.1 206.196 207.119 194.983 204.508 188.83C204.266 188.259 204.673 187.592 205.291 187.642C220.476 188.88 222.453 210.488 223.067 218.941C223.111 219.546 222.503 219.977 221.94 219.75C218.385 218.31 210.051 215.131 205.439 214.995C204.785 214.975 204.247 214.276 204.465 213.659Z" fill="url(#paint44_linear)"/>
</g>
<g filter="url(#filter1_f)">
<path d="M183.307 204.693C184.742 196.475 185.115 192.275 185.905 188.661C186.077 187.875 185.155 187.29 184.579 187.852C179.174 193.118 176.987 199.196 173.033 205.351C172.948 205.483 172.937 205.659 173.091 205.628C174.017 205.442 178.173 202.802 181.79 205.239C182.346 205.614 183.191 205.354 183.307 204.693Z" fill="url(#paint45_linear)"/>
</g>
<g opacity="0.15">
<ellipse rx="3.92724" ry="3.96317" transform="matrix(-1.00431 0.0164648 0.0163153 0.995218 184.25 149.789)" fill="#2E2846"/>
<ellipse rx="3.92724" ry="3.96314" transform="matrix(-1.00431 0.0164647 0.0163154 0.995218 184.24 149.131)" fill="#2E2846"/>
<path d="M181.72 149.173C181.743 150.566 182.89 151.675 184.281 151.652C185.671 151.629 186.782 150.483 186.759 149.09C186.736 147.697 185.589 146.588 184.198 146.611C182.807 146.634 181.697 147.78 181.72 149.173Z" fill="#2E2846" stroke="white" stroke-width="0.218602"/>
</g>
<path d="M195.023 124.491C190.759 125.109 182.288 129.829 182.517 143.765" stroke="url(#paint46_linear)" stroke-width="0.616136" stroke-linecap="round"/>
<ellipse rx="3.92727" ry="3.96316" transform="matrix(-1.00431 0.0164646 0.0163155 0.995218 183.254 148.685)" fill="#3056B9"/>
<ellipse rx="3.92727" ry="3.96316" transform="matrix(-1.00431 0.0164646 0.0163155 0.995218 183.243 148.027)" fill="#567FEA"/>
<path d="M180.724 148.068C180.747 149.461 181.894 150.57 183.285 150.547C184.676 150.525 185.786 149.379 185.763 147.985C185.741 146.592 184.593 145.483 183.202 145.506C181.812 145.529 180.701 146.675 180.724 148.068Z" stroke="white" stroke-width="0.218602"/>
<g opacity="0.25">
<path d="M208.088 125.741C210.806 127.472 210.221 131.358 203.904 139.899" stroke="url(#paint47_linear)" stroke-width="0.6186" stroke-linecap="round"/>
<path d="M203.648 140.211C202.367 139.194 198.662 137.727 195.917 145.584L190.702 160.797" stroke="url(#paint48_linear)" stroke-width="0.616136" stroke-linecap="round"/>
<ellipse rx="0.80901" ry="0.910551" transform="matrix(-0.83973 -0.534684 0.5392 -0.84686 190.04 161.004)" fill="#2C2748"/>
<path d="M203.257 139.919C204.553 140.933 206.904 144.238 200.177 148.958L187.129 158" stroke="url(#paint49_linear)" stroke-width="0.616136" stroke-linecap="round"/>
<ellipse rx="0.874032" ry="0.95686" transform="matrix(0.922406 0.354999 0.404091 -0.926608 187.054 158.593)" fill="#2C2748"/>
</g>
<path d="M209.137 125.706C211.855 127.437 211.27 131.322 204.954 139.863" stroke="url(#paint50_linear)" stroke-width="0.6186" stroke-linecap="round"/>
<path d="M204.698 140.176C203.416 139.159 199.711 137.692 196.967 145.55L191.751 160.762" stroke="url(#paint51_linear)" stroke-width="0.616136" stroke-linecap="round"/>
<ellipse rx="0.80901" ry="0.910552" transform="matrix(-0.83973 -0.534684 0.5392 -0.84686 191.089 160.969)" fill="url(#paint52_linear)"/>
<path d="M203.76 139.847C205.057 140.861 207.408 144.166 200.681 148.886L187.633 157.928" stroke="url(#paint53_linear)" stroke-width="0.616136" stroke-linecap="round"/>
<ellipse rx="0.874032" ry="0.956849" transform="matrix(0.922406 0.354994 0.404096 -0.926607 187.558 158.521)" fill="url(#paint54_linear)"/>
<path d="M181.235 106.586C181.283 104.431 180.985 100.285 182.154 93.7357C190.316 79.6396 201.571 90.4512 206.65 95.6217C211.301 100.498 205.647 107.266 204.148 110.166C198.474 116.355 196.774 117.558 195.442 118.233C182.67 124.706 180.985 113.746 181.235 106.586Z" fill="#F9C5A8"/>
<path d="M192.042 101.454C191.514 100.85 188.603 97.8433 187.572 95.9522L188.947 95.6083C191.469 96.4106 203.045 98.3591 203.045 101.11C202.013 114.348 193.772 119.78 192.558 119.334C198.919 105.408 193.245 102.829 192.042 101.454Z" fill="url(#paint55_linear)"/>
<path d="M192.457 126.498C193.557 123.747 192.915 120.309 192.457 118.933L200.881 114.635L201.912 123.919C201.798 124.206 201.087 125.054 199.162 126.154C194.348 128.733 192.457 127.701 192.457 126.498Z" fill="#F9C5A8"/>
<path d="M197.958 115.323C196.067 117.558 193.717 119.163 192.628 119.449C193.66 124.091 192.628 125.81 192.457 126.498C194.863 125.123 196.927 121.168 197.958 115.323Z" fill="url(#paint56_linear)"/>
<path d="M195.019 97.7118C188.825 94.0699 183.132 96.9993 181.651 98.6151C180.25 97.5379 180.346 95.5198 180.571 94.622C180.786 93.0062 182.546 92.1534 183.399 91.929C188.354 91.3904 193.852 95.8266 195.019 97.7118Z" fill="url(#paint57_linear)"/>
<path opacity="0.4" d="M188.789 92.9381C183.51 91.6454 182.28 95.721 182.325 97.9203C183.726 93.5036 189.212 93.3857 191.276 93.9692L188.789 92.9381Z" fill="url(#paint58_linear)"/>
<path opacity="0.4" d="M195.052 96.3086C190.842 93.2679 187.127 94.8079 185.897 96.1388C189.277 94.3427 194.337 96.3381 195.263 97.8985L195.052 96.3086Z" fill="url(#paint59_linear)"/>
<path d="M183.671 92.656C180.751 94.203 180.709 97.3133 181.651 98.6149C179.066 96.5682 179.766 93.7781 180.439 92.656C183.456 87.9161 189.592 86.5197 192.914 86.2504C205.779 85.2073 210.472 91.3708 212.094 97.9455C215.08 110.049 207.249 119.987 220.581 127.07C203.733 123.631 207.567 141.284 199.51 125.169C197.917 121.984 198.294 115.488 198.995 106.6C200.867 105.43 200.867 103.242 200.867 102.156C200.867 98.8811 198.294 98.8811 196.89 100.986C190.341 99.3489 186.131 91.6301 183.671 92.656Z" fill="url(#paint60_linear)"/>
<path d="M199.95 105.924C199.538 106.336 199.091 106.669 198.919 106.783C199.435 107.643 197.497 120.672 200.259 125.731C202.305 129.479 203.819 131.165 204.944 130.603C205.693 130.603 206.707 128.496 207.567 127.98C209.286 126.948 208.533 127.138 210.94 126.106C203.375 125.075 200.638 123.803 200.638 113.488C200.638 110.737 200.466 109.19 199.95 105.924Z" fill="url(#paint61_linear)"/>
<path d="M184.003 105.348C184.873 105.097 185.73 104.961 186.633 105.176C187.037 105.273 187.523 105.394 187.846 105.67" stroke="#201947" stroke-width="0.371068" stroke-linecap="round" stroke-linejoin="round"/>
<path d="M183.055 102.935C184 102.531 184.949 102.26 185.996 102.378C186.465 102.431 187.03 102.5 187.432 102.767" stroke="#656274" stroke-width="0.247378" stroke-linecap="round" stroke-linejoin="round"/>
<path d="M184.583 114.494C185.336 114.451 185.824 114.192 186.341 113.646C186.663 113.307 187.03 112.799 187.162 112.339" stroke="#EA5F56" stroke-width="0.371068" stroke-linecap="round" stroke-linejoin="round"/>
<path d="M179.92 111.541C180.028 111.256 180.976 109.293 181.436 108.348L181.879 112.283C180.008 112.063 179.794 111.697 179.92 111.541Z" fill="#F9C5A8"/>
<g opacity="0.5" filter="url(#filter2_f)">
<circle r="2.4238" transform="matrix(0.911775 -0.410691 0.410689 0.911776 189.929 108.362)" fill="#FE9A9A"/>
</g>
<ellipse rx="0.403431" ry="0.806861" transform="matrix(0.91178 -0.410679 0.4107 0.911771 184.882 106.316)" fill="#201947"/>
<path opacity="0.7" d="M227.804 155.9C229.007 147.647 214.059 129.453 212.626 129.854C211.194 130.255 207.942 139.785 211.127 166.393C200.447 187.754 191.64 193.375 183.208 197.872C184.264 198.4 190.17 203.277 201.758 200.495C209.03 198.75 223.119 191.501 229.865 197.872C224.993 185.88 223.678 169.653 227.804 155.9Z" fill="url(#paint62_linear)"/>
<g filter="url(#filter3_f)">
<path d="M216.084 252.035C216.54 255.996 216.211 258.357 215.725 259.573C215.624 259.824 215.592 260.119 215.567 260.386C215.427 261.837 214.167 265.945 219.304 264.914C219.693 264.867 221.386 264.674 222.936 264.659C223.412 264.655 223.809 264.265 223.775 263.791C223.108 254.572 216.134 244.077 213.473 231.74C213.928 234.978 215.276 245.007 216.084 252.035Z" fill="url(#paint63_linear)"/>
</g>
<path opacity="0.7" d="M216.14 251.852C216.65 256.289 216.176 258.719 215.599 259.78C215.612 261.479 213.528 265.9 219.36 264.731C219.825 264.674 222.155 264.41 223.875 264.49C223.615 255.059 216.274 244.289 213.529 231.556C213.984 234.795 215.331 244.823 216.14 251.852Z" fill="url(#paint64_linear)"/>
<path opacity="0.7" d="M194.261 238.432C195.208 235.118 196.704 233.665 196.958 235.884C196.794 237.808 198.039 253.565 198.699 260.271C196.043 260.838 190.975 261.961 190.5 261.814C191.593 255.918 193.504 241.082 194.261 238.432Z" fill="url(#paint65_linear)"/>
<path opacity="0.7" d="M174.995 247.359C174.861 249.976 174.96 250.108 175.154 250.956C175.347 251.805 175.427 252.144 175.533 252.482C175.992 253.945 175.706 254.569 175.472 254.64C174.969 254.792 173.562 253.789 172.761 253.316C172.115 252.836 170.209 252.079 169.29 252.471C170.32 251.043 175.096 240.198 177.387 234.352C176.646 237.597 175.129 244.741 174.995 247.359Z" fill="url(#paint66_linear)"/>
<path d="M202.773 189.01C201.584 189.7 198.249 191.354 194.428 192.443C192.638 192.964 188.627 194.111 186.898 194.532C186.295 194.652 184.651 195.343 182.905 197.154C181.495 198.699 179.981 202.143 179.454 204.192C179.31 204.932 181.015 204.809 182.238 200.941C182.015 202.029 182.429 203.991 184.401 204.884C184.15 205.495 184.279 206.237 186.805 204.325C187.832 203.656 190.305 202.287 191.973 202.17C194.73 202.102 201.095 200.519 204.505 194.728L202.773 189.01Z" fill="#F9C5A8"/>
<path opacity="0.5" d="M195.513 201.543C200.053 199.436 200.952 196.858 201.166 195.901C201.411 194.805 199.762 192.776 198.275 191.108C198.775 190.893 199.274 190.678 199.779 190.479C200.284 190.28 204.519 194.755 204.519 194.755C201.712 199.099 197.614 201.145 195.513 201.543Z" fill="url(#paint67_linear)"/>
<path d="M188.844 197.128C187.319 197.78 184.118 200.018 183.513 203.761C183.525 201.944 184.609 198.073 188.844 197.128Z" fill="#E3A380"/>
<path d="M183.953 197.53C183.515 198.289 182.609 199.958 182.49 200.567C182.451 199.953 182.69 198.486 183.953 197.53Z" fill="#E3A380"/>
<path d="M191.118 199.326C189.879 199.321 186.825 200.402 184.517 204.762C185.683 203.249 188.636 200.044 191.118 199.326Z" fill="#E3A380"/>
<path d="M228.073 136.686C225.732 131.403 221.866 126.032 216.218 127.447C204.837 130.297 215.135 156.277 215.597 169.199C210.941 175.345 201.065 188.139 198.806 190.152C202.212 191.906 204.266 195.418 204.868 196.954C209.493 192.755 219.665 183.583 223.35 180.483C227.035 177.382 228.163 174.427 228.267 173.337C230.573 160.973 230.821 149.166 228.073 136.686Z" fill="url(#paint68_linear)"/>
<path opacity="0.3" d="M541.48 359.432C541.48 366.904 570.241 372.961 603.992 372.961C637.744 372.961 736.015 369.696 665.106 359.432C645.512 356.596 651.11 348.236 630.584 345.904C596.832 345.904 541.48 351.961 541.48 359.432Z" fill="url(#paint69_linear)"/>
<path d="M406.225 206.644C405.084 206.787 403.581 206.735 402.972 206.69C403.392 205.884 405.208 204.696 406.064 204.202L406.225 206.644Z" fill="url(#paint70_linear)"/>
<path d="M413.336 223.056C413.633 222.095 412.044 219.08 411.809 216.965C411.575 214.85 409.38 212.355 409.38 212.355C407.401 213.508 406.35 214.298 406.024 215.287C406.068 215.932 405.656 217.767 405.33 218.61C404.816 219.943 405.263 221.328 405.596 222.48C405.596 222.48 406.17 225.256 407.234 226.498C408.298 227.739 410.466 225.87 410.836 225.109C409.415 228.037 410.004 230.772 410.181 231.097C410.687 231.581 410.926 231.098 410.983 230.796C411.305 229.971 412.966 224.11 413.336 223.056Z" fill="#F3BB93"/>
<path d="M411.446 216.156C411.446 206.524 411.446 196.261 409.334 184.598C406.345 183.021 402.056 180.341 401.741 180.993C401.427 181.645 402.042 193.578 406.417 214.84C407.075 215.161 409.309 216.413 411.446 216.156Z" fill="#F3BB93"/>
<path d="M413.066 202.792C413.066 202.792 412.6 193.117 410.734 184.72C408.868 176.323 404.203 162.672 397.205 144.478L392.073 143.545L395.806 173.402C397.672 179.933 398.973 182.409 399.489 184.72L403.05 206.34C404.219 204.835 410.88 202.953 413.066 202.792Z" fill="url(#paint71_linear)"/>
<path opacity="0.7" d="M403.737 178.067C404.52 181.555 405.579 199.153 405.862 200.138C409.801 204.192 409.161 195.849 409.335 195.328C409.552 194.677 408.195 185.531 405.862 175.268C404.815 170.662 401.073 155.05 397.798 152.95C397.754 152.909 397.712 152.884 397.672 152.876C397.714 152.898 397.756 152.923 397.798 152.95C399.334 154.368 402.975 174.676 403.737 178.067Z" fill="url(#paint72_linear)"/>
<path d="M398.045 139.421C401.94 129.031 399.142 118.521 397.418 115.073C393.855 114.157 386.189 133.69 382.67 143.555C387.541 141.165 397.474 150.648 399.947 148.935C398.615 148.174 396.332 143.988 398.045 139.421Z" fill="#100938"/>
<path d="M398.355 121.927C397.995 118.315 396.248 115.481 394.257 114.052C383.041 105.998 378.467 116.162 376.341 121.927C374.445 127.315 378.307 132.1 380.475 133.819L374.988 138.426C379.145 145.634 381.888 145.036 385.825 144.646C388.633 144.218 386.495 144.234 386.038 142.065C385.796 140.916 385.756 138.661 386.038 137.825C386.288 137.085 386.911 135.915 389.161 136.128C399.313 137.085 399.312 131.531 398.355 121.927Z" fill="#F3BB93"/>
<path d="M380.775 129.23C382.708 134.063 387.219 135.835 388.669 135.996C385.608 136.479 385.447 138.574 386.091 142.279C384.168 142.078 381.629 138.388 380.355 135.825C380.442 135.51 379.811 129.777 380.775 129.23Z" fill="url(#paint73_linear)"/>
<path d="M397.386 130.732C396.562 131.486 395.112 131.808 394.141 131.148" stroke="#201947" stroke-width="0.527804" stroke-linecap="round" stroke-linejoin="round"/>
<ellipse cx="391.293" cy="124.706" rx="0.787917" ry="1.10308" transform="rotate(-9.6758 391.293 124.706)" fill="#383737"/>
<path d="M396.631 120.613C397.205 120.613 397.588 120.613 398.158 120.858" stroke="#656274" stroke-width="0.351869" stroke-linecap="round" stroke-linejoin="round"/>
<ellipse rx="0.597611" ry="0.990165" transform="matrix(-0.999713 0.0239419 0.0239419 0.999713 397.827 124.107)" fill="#383737"/>
<path d="M392.036 120.991C391.139 120.993 390.286 121.101 389.487 121.556C389.129 121.76 388.7 122.009 388.469 122.362" stroke="#656274" stroke-width="0.351869" stroke-linecap="round" stroke-linejoin="round"/>
<path d="M404.206 199.249C400.021 161.587 393.547 145.816 390.727 142.534L391.885 142.368L393.282 143.556C398.698 148.725 402.821 165.813 404.206 173.71C407.652 195.126 411.591 249.097 413.129 273.405L409.744 283.559C409.744 278.144 406.052 225.096 404.206 199.249Z" fill="#F8FAFF"/>
<path d="M410.422 282.183C409.683 284.645 374.258 287.845 344.954 264.25L394.421 217.566C401.806 202.55 395.886 161.343 391.885 142.368C395.455 145.199 400.114 161.718 402.114 169.872C406.545 196.95 409.499 256.028 410.422 282.183Z" fill="url(#paint74_linear)"/>
<path d="M385.405 143.315C381.479 144.038 376.422 141.069 373.749 138.831C373.749 139.968 366.382 142.258 363.476 148.203L362.564 207.795C382.319 207.795 390.307 209.773 397.854 205.641C397.854 199.986 398.268 199.458 398.268 185.503C398.268 177.528 398.268 171.548 397.659 162.667L396.818 155.599L395.187 148.712C393.947 146.749 393.683 145.266 392.65 144.362C390.832 142.368 388.37 140.744 387.122 140.013C386.502 143.215 386.266 143.143 385.405 143.315Z" fill="url(#paint75_linear)"/>
<path d="M388.72 165.3C385.739 156.356 382.821 155.214 380.538 160.543L365.778 193.462L395.951 205.831C396.522 191.94 393.287 174.624 388.72 165.3Z" fill="url(#paint76_linear)"/>
<path d="M399.15 354.456C400.057 352.867 401.32 347.738 401.838 345.372L409.037 346.233C409.1 349.531 413.766 353.322 416.091 354.806C417.916 356.031 422.065 358.528 423.911 359.624C429.716 363.282 422.661 362.9 418.408 362.251C414.404 361.471 408.44 361.077 405.958 360.978C398.009 360.514 398.107 356.437 399.15 354.456Z" fill="#F3BB93"/>
<path d="M411.501 354.515C408.538 355.098 402.567 353.486 399.952 352.607C397.618 354.061 398.211 358.112 398.799 359.956L398.895 361.141L406.036 362.186L406.138 361.472C407.718 361.477 417.801 363.217 420.615 363.669C429.738 364.366 427.976 361.864 425.955 360.526C422.364 358.66 415.125 353.538 411.954 351.21L411.697 352.582L411.501 354.515Z" fill="url(#paint77_linear)"/>
<path d="M395.006 315.056C393.556 288.668 387.635 276.272 384.856 273.372L368.183 205.77C384.856 206.973 391.955 206.973 397.906 205.77C400.225 209.685 403.947 247.636 405.517 266.122C408.127 285.261 408.78 297.053 408.78 300.557C408.49 315.346 410.109 337.167 410.955 346.229H400.08C398.34 343.039 395.972 324.118 395.006 315.056Z" fill="url(#paint78_linear)"/>
<path d="M360.628 365.845C361.632 364.315 363.208 359.273 363.87 356.944L371.003 358.246C370.863 361.542 375.287 365.613 377.516 367.237C379.262 368.572 383.249 371.32 385.024 372.527C390.594 376.536 383.575 375.72 379.37 374.811C375.422 373.786 369.493 373.026 367.022 372.774C359.117 371.822 359.466 367.758 360.628 365.845Z" fill="#F3BB93"/>
<path d="M372.953 366.664C369.959 367.064 364.099 365.088 361.543 364.049C359.124 365.357 359.466 369.437 359.94 371.314L359.963 372.502L367.026 373.984L367.171 373.278C368.748 373.38 378.705 375.738 381.485 376.362C390.548 377.619 388.944 375.013 387.009 373.553C383.54 371.471 376.629 365.912 373.608 363.393L373.267 364.748L372.953 366.664Z" fill="url(#paint79_linear)"/>
<path d="M362.454 253.365C358.172 222.314 361.477 212.069 363.664 210.828C375.928 200.479 388.499 204.629 393.252 207.998L386.701 276.535C383.448 288.207 376.865 333.702 373.018 358.831L361.227 357.474C360.03 354.092 363.128 327.644 364.515 311.065C366.124 295.909 363.811 266.283 362.454 253.365Z" fill="url(#paint80_linear)"/>
<path d="M399.376 295.077C398.768 282.746 393.033 254.926 390.243 242.557C390.243 242.557 386.941 263.018 386.817 276.238C401.536 315.057 396.332 332.564 399.567 345.313C401.595 345.091 404.704 344.361 404.704 344.361L399.376 295.077Z" fill="url(#paint81_linear)"/>
<path d="M386.858 144.901C386.435 146.169 384.568 145.957 383.687 145.693L385.273 143.448L386.858 144.901Z" fill="#ECF1FF"/>
<path d="M383.423 149.392L372.722 139.881L374.704 138.428L385.404 143.58L387.254 140.277L388.443 147.543L385.404 143.976L383.423 149.392Z" fill="url(#paint82_linear)"/>
<path d="M385.273 143.504L374.587 137.899L373.119 139.069L383.187 147.674L385.273 143.504Z" fill="white"/>
<path d="M385.273 143.523L386.116 139.484H387.186L387.386 145.561L385.273 143.523Z" fill="white"/>
<path opacity="0.4" d="M376.258 163.402C376.681 154.102 372.471 144.644 370.314 141.077C369.68 141.606 368.112 142.795 367.407 143.323L361.067 189.162L368.861 221.792L375.069 206.204C372.559 195.503 373.352 189.162 375.069 181.765C375.809 176.269 376.17 167.454 376.258 163.402Z" fill="url(#paint83_linear)"/>
<g filter="url(#filter4_d)">
<path d="M387.738 162.476C384.693 153.487 375.353 143.749 371.064 140.003C358.215 147.443 355.17 170.243 353.865 181.697C352.56 193.151 350.645 223.855 348.047 237.871C347.467 241.206 345.165 256.911 344.604 260.345C344.042 263.779 342.991 262.967 345.89 265.973C353.865 274.237 370.883 279.979 379.039 282.999C383.968 285.029 385.684 282.999 385.926 281.731C400.135 233.014 393.054 178.305 387.738 162.476Z" fill="url(#paint84_linear)"/>
</g>
<path opacity="0.7" d="M371.306 175.666C370.939 169.405 372.781 154.259 371.306 151.409C358.084 171.008 357.132 194.985 373.307 223.338C374.826 221.833 370.033 212.285 369.691 208.712C367.678 203.25 371.306 187.944 371.306 175.666Z" fill="url(#paint85_linear)"/>
<path d="M391.92 229.714C391.695 230.452 390.917 230.867 390.179 230.643L344.744 216.807C344.006 216.583 343.589 215.803 343.814 215.065L352.766 185.666C352.991 184.928 353.772 184.511 354.51 184.736L399.945 198.571C400.683 198.796 401.097 199.577 400.872 200.315L391.92 229.714Z" fill="url(#paint86_linear)"/>
<path d="M390.992 227.97L345.557 214.135C344.819 213.911 344.403 213.129 344.627 212.391L343.813 215.065C343.588 215.803 344.006 216.583 344.744 216.807L390.178 230.642C390.916 230.867 391.695 230.452 391.92 229.714L392.734 227.04C392.509 227.778 391.73 228.195 390.992 227.97Z" fill="#AFC0EC"/>
<path d="M373.389 213.849C372.939 215.325 371.377 216.156 369.901 215.707C368.425 215.257 367.593 213.697 368.043 212.221L371.298 201.531C371.747 200.055 373.308 199.222 374.784 199.671C376.26 200.121 377.093 201.683 376.644 203.159L373.389 213.849Z" fill="#DA4453"/>
<path d="M380.361 210.131C379.911 211.607 378.352 212.441 376.874 211.991L366.185 208.736C364.709 208.286 363.876 206.724 364.325 205.248C364.774 203.772 366.337 202.941 367.813 203.39L378.502 206.645C379.98 207.095 380.81 208.655 380.361 210.131Z" fill="#ED5564"/>
<mask id="mask2" mask-type="alpha" maskUnits="userSpaceOnUse" x="343" y="184" width="58" height="47">
<path d="M391.92 229.714C391.695 230.452 390.917 230.867 390.179 230.643L344.744 216.807C344.006 216.583 343.589 215.803 343.814 215.065L352.766 185.666C352.991 184.928 353.772 184.511 354.51 184.736L399.945 198.571C400.683 198.796 401.097 199.577 400.872 200.315L391.92 229.714Z" fill="url(#paint87_linear)"/>
</mask>
<g mask="url(#mask2)">
<path opacity="0.3" d="M392.825 227.137C379.747 211.317 353.52 179.597 353.232 179.279L404.185 193.931L392.825 227.137Z" fill="white"/>
</g>
<g filter="url(#filter5_f)">
<path d="M382.275 275.986C388.169 260.821 390.186 232.275 390.241 215.494C390.243 214.825 389.524 214.4 388.918 214.684C378.42 219.603 364.653 216.964 357.662 214.559C357.008 214.334 356.291 214.889 356.296 215.581C356.356 223.8 350.685 249.065 347.535 262.464C347.467 262.753 347.545 263.046 347.767 263.243C351.206 266.284 366.733 274.481 374.391 277.736C374.429 277.753 374.468 277.766 374.509 277.776C379.545 279.09 381.908 277.256 382.234 276.113C382.246 276.069 382.258 276.028 382.275 275.986Z" fill="url(#paint88_linear)"/>
</g>
<path d="M372.614 216.953C370.261 213.504 368.771 212.863 368.32 212.973C366.864 213.637 363.899 215.001 363.684 215.148C365.566 222.076 367.599 224.289 374.068 227.144C379.206 229.998 379.292 228.279 378.255 227.144C375.4 225.431 372.119 222.884 372.529 221.749C379.777 228.476 375.846 221.789 372.614 216.953Z" fill="#F3BB93"/>
<path opacity="0.7" d="M368.169 223.338C367.852 218.581 357.399 200.846 353.897 184.709C353.484 184.709 352.946 185.09 352.756 185.661C349.423 196.492 347.999 218.581 368.169 223.338Z" fill="url(#paint89_linear)"/>
<path d="M368.539 173.186C370.583 166.128 375.76 152.283 368.539 149.507C361.664 148.66 356.175 162.266 354.908 173.93C353.451 187.339 352.674 193.509 358.415 209.586C359.564 212.803 360.572 215.921 364.778 220.053L368.354 215.019C369.264 213.27 370.381 212.806 369.117 211.33C364.672 201.333 366.282 180.978 368.539 173.186Z" fill="url(#paint90_linear)"/>
<g opacity="0.15">
<circle cx="393.99" cy="163.517" r="3.66785" transform="rotate(14.3374 393.99 163.517)" fill="#2E2846"/>
<circle cx="394.141" cy="162.925" r="3.66785" transform="rotate(14.3374 394.141 162.925)" fill="#2E2846"/>
<circle cx="394.141" cy="162.925" r="2.30035" transform="rotate(14.3374 394.141 162.925)" fill="#2E2846" stroke="white" stroke-width="0.289759"/>
</g>
<path d="M387.012 139.099C390.735 140.577 397.38 146.671 394.171 159.227" stroke="url(#paint91_linear)" stroke-width="0.816694" stroke-linecap="round"/>
<circle cx="392.444" cy="163.517" r="3.66785" transform="rotate(14.3374 392.444 163.517)" fill="#719290"/>
<circle cx="392.595" cy="162.925" r="3.66785" transform="rotate(14.3374 392.595 162.925)" fill="#77D9D3"/>
<circle cx="392.595" cy="162.925" r="2.30035" transform="rotate(14.3374 392.595 162.925)" stroke="white" stroke-width="0.289759"/>
<g opacity="0.25">
<path d="M373.597 138.675C370.717 139.502 370.215 143.121 373.597 152.401" stroke="url(#paint92_linear)" stroke-width="0.819961" stroke-linecap="round"/>
<path d="M373.743 152.747C375.154 152.178 378.844 151.846 379.221 159.576L379.863 174.515" stroke="url(#paint93_linear)" stroke-width="0.816694" stroke-linecap="round"/>
<ellipse rx="0.748852" ry="0.849981" transform="matrix(0.961148 -0.276033 -0.276033 -0.961148 380.399 174.874)" fill="#2C2748"/>
<path d="M374.17 152.59C372.747 153.152 369.78 155.48 374.534 161.461L383.786 172.962" stroke="url(#paint94_linear)" stroke-width="0.816694" stroke-linecap="round"/>
<ellipse rx="0.815979" ry="0.887956" transform="matrix(-0.981216 0.0787321 -0.125192 -1.0051 383.697 173.511)" fill="#2C2748"/>
</g>
<path d="M372.67 138.365C369.79 139.193 369.288 142.812 372.67 152.092" stroke="url(#paint95_linear)" stroke-width="0.819961" stroke-linecap="round"/>
<path d="M372.816 152.439C374.227 151.869 377.917 151.538 378.294 159.267L378.936 174.206" stroke="url(#paint96_linear)" stroke-width="0.816694" stroke-linecap="round"/>
<ellipse rx="0.748852" ry="0.849981" transform="matrix(0.961148 -0.276033 -0.276033 -0.961148 379.472 174.565)" fill="url(#paint97_linear)"/>
<path d="M373.242 152.281C371.819 152.843 368.852 155.171 373.606 161.152L382.859 172.653" stroke="url(#paint98_linear)" stroke-width="0.816694" stroke-linecap="round"/>
<ellipse rx="0.815979" ry="0.887956" transform="matrix(-0.981216 0.0787321 -0.125192 -1.0051 382.769 173.201)" fill="url(#paint99_linear)"/>
<path d="M382.061 151.98C382.822 146.271 382.631 141.514 381.49 137.137C379.918 131.111 380.3 123.259 381.097 123.109C392.859 120.886 397.561 115.978 397.609 115.065C397.609 108.415 388.08 106.046 383.836 106.838C369.47 109.519 367.819 120.438 367.922 130.956C367.408 143.797 369.454 140.496 372.546 140.753C376.377 141.071 375.932 151.405 382.061 151.98Z" fill="url(#paint100_linear)"/>
<path d="M378.516 122.665C379.483 122.17 380.765 123.119 381.284 123.655C381.525 125.186 381.931 128.316 381.626 128.592C381.245 128.937 378.945 128.159 378.16 126.856C377.374 125.554 377.307 123.283 378.516 122.665Z" fill="#F3BB93"/>
<path d="M380.936 123.27C380.936 123.27 379.486 122.344 378.771 122.567C378.031 122.798 377.728 123.512 377.647 124.236C383.997 125.525 395.434 119.242 396.562 116.467C394.146 118.598 389.635 121.498 381.097 123.109C380.873 123.228 380.936 123.27 380.936 123.27Z" fill="url(#paint101_linear)"/>
<path d="M555.506 112.191C555.944 110.451 556.773 106.673 557.132 105.001C566.126 95.193 574.389 103.157 577.397 108.365C580.124 113.248 579.785 116.782 578.075 118.835L580.245 126.621C577.666 134.348 578.265 132.291 574.787 133.766C571.581 134.643 568.524 133.638 568.068 133.454C568.709 133.278 569.253 130.942 568.917 129.718C568.58 128.494 567.452 123.578 564.441 124.474C553.633 128.468 553.981 117.949 555.506 112.191Z" fill="#F3BB93"/>
<path fill-rule="evenodd" clip-rule="evenodd" d="M568.983 130.045C568.966 129.929 568.944 129.82 568.916 129.718C568.899 129.653 568.879 129.578 568.856 129.494C568.455 127.989 567.292 123.625 564.441 124.474C563.766 124.724 563.134 124.917 562.543 125.058C562.539 125.055 562.536 125.052 562.533 125.05C563.641 124.791 566.354 123.725 568.337 121.525C569.453 120.962 571.18 121.893 569.159 130.125C569.135 130.128 569.074 130.099 568.983 130.045Z" fill="url(#paint102_linear)"/>
<path d="M564.392 105.407C560.836 108.292 557.21 107.707 556.157 107.529C553.27 96.843 565.068 95.0292 570.483 95.6297C578.135 96.2458 581.462 102.968 582.169 106.252C582.98 113.916 579.002 118.443 576.912 119.748L573.128 117.487C576.428 112.188 574.121 111.792 572.555 112.257C571.432 112.59 570.605 112.207 570.568 110.8C569.291 103.118 565.919 104.004 564.392 105.407Z" fill="url(#paint103_linear)"/>
<path d="M558.06 110.884C558.781 110.796 559.478 110.801 560.167 111.101C560.476 111.236 560.846 111.401 561.068 111.673" stroke="#3D323C" stroke-width="0.670434" stroke-linecap="round" stroke-linejoin="round"/>
<path d="M556.653 119.274C557.249 119.39 557.678 119.276 558.184 118.937C558.498 118.726 558.879 118.387 559.068 118.04" stroke="#3D323C" stroke-width="0.670434" stroke-linecap="round" stroke-linejoin="round"/>
<path d="M553.719 115.293C553.86 115.079 554.993 113.649 555.542 112.961L555.138 116.312C553.688 115.743 553.588 115.395 553.719 115.293Z" fill="#F3BB93"/>
<path d="M638.224 330.856L642.641 323.421L636.061 316.803L629.797 323.041L638.224 330.856Z" fill="#F3BB93"/>
<path d="M647.684 325.99C645.993 325.561 643.606 323.752 642.357 322.943C641.048 325.625 639.565 329.077 637.814 330.59C638.608 331.438 638.522 347.418 638.731 350.888C638.94 354.358 640.047 357.41 640.619 356.447C645.287 349.136 651.029 331.826 651.145 328.9C651.262 325.975 649.375 326.419 647.684 325.99Z" fill="url(#paint104_linear)"/>
<path d="M638.414 336.275L637.814 330.59C638.705 329.804 639.579 328.333 640.104 327.449C641.774 331.098 639.753 335.593 638.414 336.275Z" fill="white"/>
<path d="M568.596 265.389C569.297 262.266 574.072 240.09 576.372 229.393L592.142 257.515C594.753 261.719 597.274 268.75 601.202 277.238C605.582 279.901 629.993 306.591 640.137 315.588C639.243 317.263 637.867 319.101 630.675 330.563C622.363 320.636 582.002 286.265 575.238 281.658C568.475 277.051 567.719 269.293 568.596 265.389Z" fill="url(#paint105_linear)"/>
<path d="M584.767 354.966L594.375 353.653L595.16 342.775L585.209 341.514L584.767 354.966Z" fill="#F3BB93"/>
<path d="M595.909 360.174C595.026 358.3 594.805 354.785 594.573 353.043C591.317 353.779 587.276 354.914 584.691 354.393C584.554 355.742 570.855 367.252 568.049 369.963C565.243 372.673 563.458 375.908 564.702 375.738C574.389 374.748 593.402 367.497 595.984 365.482C598.566 363.468 596.793 362.048 595.909 360.174Z" fill="url(#paint106_linear)"/>
<path d="M580.284 359.072L584.691 354.394C586.02 354.647 587.921 354.387 589.064 354.231C587.185 358.42 581.856 359.814 580.284 359.072Z" fill="white"/>
<path d="M577.9 277.829L573.916 209.35L605.026 210.81C606.453 218.069 605.747 218.868 606.1 230.684C606.1 230.684 606.651 253.076 599.429 273.114C598.034 278.947 595.555 280.921 596.38 287.11C601.1 308.087 598.642 333.483 598.079 348.116L583.5 347.778L577.9 277.829Z" fill="url(#paint107_linear)"/>
<path d="M573.71 216.542C567.679 189.028 562.393 166.239 563.628 158.127L578.845 149.82L589.904 212.71C579.871 213.304 575.076 215.536 573.71 216.542Z" fill="url(#paint108_linear)"/>
<path d="M573.389 202.75C567.532 189.643 564.983 174.492 563.87 165.485L570.235 163.991L592.931 222.607L580.94 223.276C580.34 219.029 575.656 207.822 573.389 202.75Z" fill="url(#paint109_linear)"/>
<path d="M508.543 95.8481C509.456 96.5025 510.078 100.255 511.297 102.295C512.516 104.334 512.249 108.034 512.249 108.034C509.711 108.345 508.243 108.352 507.286 107.693C506.889 107.089 505.283 105.736 504.426 105.206C503.068 104.368 502.531 102.835 502.049 101.585C502.049 101.585 500.685 98.7287 500.793 96.9067C500.901 95.0847 504.091 95.2825 504.934 95.7101C501.694 94.0654 500.371 91.2355 500.309 90.8277C500.432 90.056 500.971 90.3238 501.225 90.5542C502.069 91.0693 507.502 95.1603 508.543 95.8481Z" fill="#F3BB93"/>
<path d="M511.521 103.259C513.577 106.938 526.223 123.376 532.545 130.955C530.951 134.375 527.348 141.447 526.628 141.079C525.908 140.712 518.4 129.685 507.937 107.824C508.306 107.095 509.447 104.474 511.521 103.259Z" fill="#F3BB93"/>
<path d="M562.073 131.854C569.276 129.915 574.315 128.444 577.257 127.477C593.245 120.353 599.898 155.002 602.298 171.444C603.877 182.255 605.518 188.151 606.887 191.902C609.978 200.376 629.949 227.427 636.791 250.248C637.53 251.547 635.139 252.461 635.139 252.461C632.28 253.534 624.316 258.737 610.222 262.441C603.119 264.308 598.422 267.109 596.962 268.276C597.894 263.346 579.853 211.197 575.672 202.652C568.68 188.248 564.8 170.006 563.735 162.685C563.312 159.782 562.35 156.734 560.965 152.579C554.961 152.145 539.633 152.632 534.37 148.753C529.106 144.875 515.808 128.477 515.808 128.477C517.194 119.388 522.734 115.232 523.842 117.396L533.815 129.585C537.417 134.849 537.694 131.854 541.018 132.91C546.341 134.127 557.086 132.91 562.073 131.854Z" fill="url(#paint110_linear)"/>
<path opacity="0.7" d="M536.586 147.091C542.15 149.332 562.627 148.753 562.627 148.753C562.627 148.753 562.892 148.76 560.688 152.354C551.546 152.354 541.85 150.969 541.85 150.969C536.863 150.692 534.37 149.03 530.214 144.32L521.903 133.793C526.613 139.611 531.022 144.849 536.586 147.091Z" fill="url(#paint111_linear)"/>
<path opacity="0.7" d="M576.465 204.061C573.437 195.33 566.509 160.138 565.351 148.792L562.549 148.791L560.766 152.357C563.058 165.856 571.209 197.694 576.465 204.061Z" fill="url(#paint112_linear)"/>
<path d="M580.241 126.579L578.071 118.793C577.758 119.189 577.194 119.562 576.951 119.7L577.676 127.281C578.259 126.952 579.629 126.676 580.241 126.579Z" fill="url(#paint113_linear)"/>
<path opacity="0.7" d="M633.716 250.464C633.716 250.464 608.998 261.036 600.183 259.911C599.115 251.905 588.703 223.133 588.703 223.133C600.424 233.468 621.745 246.256 633.716 250.464Z" fill="url(#paint114_linear)"/>
<g filter="url(#filter6_d)">
<circle cx="506.655" cy="292.677" r="32.0882" transform="rotate(-17.1211 506.655 292.677)" fill="white"/>
</g>
<path d="M510.191 297.432L510.191 297.431C509.142 294.028 510.975 290.42 514.298 289.396C517.62 288.373 521.166 290.324 522.214 293.728L523.469 297.798C523.471 297.805 523.472 297.812 523.474 297.818C524.811 297.925 526.011 298.787 526.421 300.119L526.422 300.119C526.965 301.882 525.916 303.759 524.109 304.316C522.3 304.873 520.38 303.911 519.837 302.148C519.382 300.672 520.046 299.112 521.335 298.32L520.119 294.373C519.411 292.075 517.072 290.771 514.925 291.433C512.779 292.094 511.578 294.487 512.286 296.786C512.286 296.786 512.286 296.786 512.286 296.786L513.387 300.348L513.387 300.349C514.435 303.753 512.6 307.359 509.278 308.383C505.956 309.406 502.41 307.457 501.362 304.053L498.864 295.943C494.808 296.552 490.823 294.268 489.617 290.352L487.476 283.402C487.3 282.832 487.64 282.236 488.21 282.061L490.931 281.223C491.501 281.047 492.117 281.348 492.292 281.919M510.191 297.432L513.155 300.42C514.167 303.703 512.395 307.169 509.207 308.151C506.018 309.133 502.604 307.264 501.593 303.982L499.033 295.67C495.015 296.374 491.037 294.138 489.848 290.281L487.707 283.33C487.574 282.896 487.831 282.431 488.281 282.292L491.002 281.454C491.453 281.315 491.927 281.555 492.06 281.99C492.194 282.424 491.937 282.889 491.487 283.028L489.813 283.543L489.884 283.775M510.191 297.432L511.292 300.994C511.292 300.994 511.292 300.994 511.292 300.994C511.999 303.291 510.798 305.685 508.65 306.346C506.503 307.008 504.165 305.704 503.457 303.407L500.974 295.347M510.191 297.432L500.678 295.207M492.292 281.919L492.06 281.99L492.292 281.918C492.292 281.918 492.292 281.918 492.292 281.919ZM492.292 281.919C492.467 282.488 492.128 283.084 491.558 283.259L489.884 283.775M489.884 283.775L489.653 283.846L491.48 289.778C492.505 293.103 496.144 294.946 499.596 293.882C503.046 292.819 505.019 289.248 503.995 285.923L502.167 279.991L501.936 280.062M489.884 283.775L491.712 289.707C492.694 292.896 496.193 294.677 499.524 293.651C502.855 292.625 504.746 289.184 503.763 285.994L501.936 280.062M501.936 280.062L501.865 279.831L500.328 280.304C499.878 280.443 499.403 280.203 499.27 279.769C499.136 279.335 499.393 278.869 499.843 278.731L502.428 277.934C502.878 277.796 503.352 278.036 503.486 278.47L505.627 285.421C506.857 289.411 504.64 293.648 500.678 295.207M501.936 280.062L500.399 280.535C499.829 280.711 499.214 280.41 499.038 279.84C498.863 279.27 499.202 278.675 499.772 278.499L502.356 277.703C502.926 277.528 503.542 277.829 503.717 278.398L505.859 285.349C507.106 289.4 504.915 293.682 500.974 295.347M500.974 295.347L500.909 295.135L500.678 295.207M500.974 295.347C500.905 295.376 500.836 295.404 500.766 295.432L500.678 295.207M523.483 302.279C522.817 302.484 522.124 302.122 521.933 301.502C521.742 300.881 522.111 300.193 522.777 299.987C523.443 299.782 524.136 300.144 524.327 300.764C524.518 301.385 524.149 302.073 523.483 302.279Z" fill="url(#paint115_linear)" stroke="url(#paint116_linear)" stroke-width="0.484233"/>
<g filter="url(#filter7_d)">
<circle cx="90.5576" cy="142.718" r="30.9909" transform="rotate(15.518 90.5576 142.718)" fill="white"/>
</g>
<path d="M100.829 157.366L110.148 140.932C110.384 140.515 110.317 139.998 109.964 139.674C108.08 137.938 101.802 132.592 93.7593 130.359C85.7162 128.126 77.5807 129.47 75.0715 129.985C74.6026 130.081 74.2783 130.49 74.2659 130.969L73.7774 149.854C73.763 150.411 74.1779 150.887 74.7309 150.955C76.973 151.231 82.6512 152.01 87.3828 153.324C92.1144 154.637 97.3812 156.898 99.4446 157.817C99.9536 158.044 100.554 157.85 100.829 157.366Z" fill="#567FEA"/>
<path d="M100.587 157.795L103.949 151.866C104.077 151.64 104.024 151.357 103.815 151.203C102.546 150.268 97.8787 147.125 89.7334 144.863C81.5882 142.602 75.9685 142.889 74.3993 143.036C74.1409 143.06 73.949 143.275 73.9423 143.534L73.766 150.348C73.7588 150.626 73.9642 150.864 74.2408 150.896C76.0095 151.104 82.2534 151.899 87.3842 153.324C92.515 154.749 98.2751 157.286 99.8977 158.02C100.151 158.135 100.45 158.038 100.587 157.795Z" fill="#D0DDFF"/>
<path fill-rule="evenodd" clip-rule="evenodd" d="M93.6244 135.529L91.2071 134.858L90.5358 137.275L88.1196 136.604L87.4484 139.022L89.8646 139.692L89.1934 142.11L91.6108 142.781L92.2819 140.364L94.7004 141.035L95.3716 138.618L92.9531 137.946L93.6244 135.529Z" fill="white"/>
<g filter="url(#filter8_d)">
<circle cx="611.207" cy="43.5493" r="27.8926" fill="white"/>
</g>
<mask id="mask3" mask-type="alpha" maskUnits="userSpaceOnUse" x="594" y="27" width="35" height="34">
<path d="M594.71 27.0524H628.084V60.4262H594.71V27.0524Z" fill="#C4C4C4"/>
</mask>
<g mask="url(#mask3)">
<path fill-rule="evenodd" clip-rule="evenodd" d="M625.584 36.4292C626.146 35.8678 627.056 35.8678 627.617 36.4292C628.179 36.9907 628.179 37.9009 627.617 38.4624C626.071 40.0089 624.145 40.4425 622.26 40.4239C621.136 40.4127 619.956 40.2388 618.801 40.0178C619.009 41.2064 619.156 42.43 619.122 43.6163C619.066 45.5926 618.506 47.5733 616.867 49.2133C615.232 50.8474 613.23 51.4393 611.228 51.5417C609.978 51.6057 608.685 51.4803 607.43 51.288C607.647 52.4772 607.828 53.682 607.856 54.8057C607.901 56.6142 607.566 58.5136 606.116 59.9636C605.555 60.525 604.644 60.525 604.083 59.9636C603.522 59.4021 603.522 58.4919 604.083 57.9304C604.731 57.2827 605.018 56.3306 604.982 54.8779C604.951 53.6469 604.697 52.2736 604.398 50.734C602.858 50.4348 601.484 50.1811 600.253 50.1501C598.801 50.1136 597.849 50.401 597.201 51.0488C596.639 51.6102 595.729 51.6102 595.168 51.0488C594.606 50.4873 594.606 49.5771 595.168 49.0156C596.618 47.5657 598.517 47.2303 600.326 47.2758C601.449 47.304 602.654 47.4846 603.844 47.7015C603.651 46.4468 603.526 45.1539 603.59 43.903C603.692 41.9016 604.284 39.8988 605.918 38.2647C607.558 36.6248 609.539 36.0652 611.515 36.0088C612.702 35.9749 613.925 36.1218 615.113 36.3304C614.892 35.1751 614.719 33.9956 614.707 32.8717C614.689 30.9863 615.122 29.061 616.669 27.5144C617.23 26.953 618.141 26.953 618.702 27.5144C619.263 28.0759 619.263 28.9861 618.702 29.5476C617.889 30.3609 617.568 31.4182 617.583 32.8432C617.595 34.0784 617.854 35.4392 618.175 36.9557C619.692 37.277 621.053 37.5365 622.288 37.5487C623.714 37.5628 624.771 37.2426 625.584 36.4292ZM615.75 39.3807C614.247 39.0731 612.865 38.8466 611.597 38.8829C610.132 38.9247 608.934 39.3157 607.952 40.2978C606.964 41.2858 606.539 42.5279 606.462 44.0499C606.395 45.3451 606.583 46.7605 606.856 48.2759C608.371 48.5484 609.786 48.7364 611.081 48.6702C612.603 48.5923 613.845 48.1681 614.833 47.1802C615.816 46.198 616.207 44.9995 616.248 43.5342C616.285 42.2665 616.058 40.8843 615.75 39.3807Z" fill="#4A4A4A"/>
<path d="M607.726 44.7875L610.348 47.4096" stroke="#567FEA" stroke-width="1.43764" stroke-linecap="round"/>
<path d="M609.298 42.1659L612.969 45.8368" stroke="#4CE1C6" stroke-width="1.43764" stroke-linecap="round"/>
<path d="M619.263 33.2506L621.885 35.8727" stroke="#4CE1C6" stroke-width="1.43764" stroke-linecap="round"/>
<path d="M620.835 30.6283L624.506 34.2992" stroke="#567FEA" stroke-width="1.43764" stroke-linecap="round"/>
<path d="M611.922 40.5926L614.544 43.2147" stroke="#567FEA" stroke-width="1.43764" stroke-linecap="round"/>
<path d="M598.286 53.1786L601.957 56.8496" stroke="#567FEA" stroke-width="1.43764" stroke-linecap="round"/>
<path d="M600.908 51.6049L603.53 54.227" stroke="#4CE1C6" stroke-width="1.43764" stroke-linecap="round"/>
</g>
</g>
<defs>
<filter id="filter0_f" x="204.145" y="187.369" width="19.1953" height="32.714" filterUnits="userSpaceOnUse" color-interpolation-filters="sRGB">
<feFlood flood-opacity="0" result="BackgroundImageFix"/>
<feBlend mode="normal" in="SourceGraphic" in2="BackgroundImageFix" result="shape"/>
<feGaussianBlur stdDeviation="0.135564" result="effect1_foregroundBlur"/>
</filter>
<filter id="filter1_f" x="172.701" y="187.358" width="13.4967" height="18.5445" filterUnits="userSpaceOnUse" color-interpolation-filters="sRGB">
<feFlood flood-opacity="0" result="BackgroundImageFix"/>
<feBlend mode="normal" in="SourceGraphic" in2="BackgroundImageFix" result="shape"/>
<feGaussianBlur stdDeviation="0.135564" result="effect1_foregroundBlur"/>
</filter>
<filter id="filter2_f" x="187.01" y="105.443" width="5.8383" height="5.83831" filterUnits="userSpaceOnUse" color-interpolation-filters="sRGB">
<feFlood flood-opacity="0" result="BackgroundImageFix"/>
<feBlend mode="normal" in="SourceGraphic" in2="BackgroundImageFix" result="shape"/>
<feGaussianBlur stdDeviation="0.247378" result="effect1_foregroundBlur"/>
</filter>
<filter id="filter3_f" x="213.202" y="231.469" width="10.846" height="33.8803" filterUnits="userSpaceOnUse" color-interpolation-filters="sRGB">
<feFlood flood-opacity="0" result="BackgroundImageFix"/>
<feBlend mode="normal" in="SourceGraphic" in2="BackgroundImageFix" result="shape"/>
<feGaussianBlur stdDeviation="0.135564" result="effect1_foregroundBlur"/>
</filter>
<filter id="filter4_d" x="342.283" y="138.671" width="53.6629" height="147.187" filterUnits="userSpaceOnUse" color-interpolation-filters="sRGB">
<feFlood flood-opacity="0" result="BackgroundImageFix"/>
<feColorMatrix in="SourceAlpha" type="matrix" values="0 0 0 0 0 0 0 0 0 0 0 0 0 0 0 0 0 0 127 0"/>
<feOffset dy="0.332955"/>
<feGaussianBlur stdDeviation="0.832388"/>
<feColorMatrix type="matrix" values="0 0 0 0 0.664556 0 0 0 0 0.645106 0 0 0 0 0.742358 0 0 0 1 0"/>
<feBlend mode="normal" in2="BackgroundImageFix" result="effect1_dropShadow"/>
<feBlend mode="normal" in="SourceGraphic" in2="effect1_dropShadow" result="shape"/>
</filter>
<filter id="filter5_f" x="347.216" y="214.213" width="43.3192" height="64.3124" filterUnits="userSpaceOnUse" color-interpolation-filters="sRGB">
<feFlood flood-opacity="0" result="BackgroundImageFix"/>
<feBlend mode="normal" in="SourceGraphic" in2="BackgroundImageFix" result="shape"/>
<feGaussianBlur stdDeviation="0.147217" result="effect1_foregroundBlur"/>
</filter>
<filter id="filter6_d" x="450.346" y="241.211" width="122.301" height="122.301" filterUnits="userSpaceOnUse" color-interpolation-filters="sRGB">
<feFlood flood-opacity="0" result="BackgroundImageFix"/>
<feColorMatrix in="SourceAlpha" type="matrix" values="0 0 0 0 0 0 0 0 0 0 0 0 0 0 0 0 0 0 127 0"/>
<feOffset dx="4.84233" dy="9.68465"/>
<feGaussianBlur stdDeviation="14.527"/>
<feColorMatrix type="matrix" values="0 0 0 0 0.761999 0 0 0 0 0.812206 0 0 0 0 0.943231 0 0 0 1 0"/>
<feBlend mode="normal" in2="BackgroundImageFix" result="effect1_dropShadow"/>
<feBlend mode="normal" in="SourceGraphic" in2="effect1_dropShadow" result="shape"/>
</filter>
<filter id="filter7_d" x="46.2007" y="101.033" width="94.057" height="94.057" filterUnits="userSpaceOnUse" color-interpolation-filters="sRGB">
<feFlood flood-opacity="0" result="BackgroundImageFix"/>
<feColorMatrix in="SourceAlpha" type="matrix" values="0 0 0 0 0 0 0 0 0 0 0 0 0 0 0 0 0 0 127 0"/>
<feOffset dx="2.67163" dy="5.34326"/>
<feGaussianBlur stdDeviation="8.01489"/>
<feColorMatrix type="matrix" values="0 0 0 0 0.761999 0 0 0 0 0.812206 0 0 0 0 0.943231 0 0 0 1 0"/>
<feBlend mode="normal" in2="BackgroundImageFix" result="effect1_dropShadow"/>
<feBlend mode="normal" in="SourceGraphic" in2="effect1_dropShadow" result="shape"/>
</filter>
<filter id="filter8_d" x="570.261" y="5.2142" width="87.1128" height="87.1128" filterUnits="userSpaceOnUse" color-interpolation-filters="sRGB">
<feFlood flood-opacity="0" result="BackgroundImageFix"/>
<feColorMatrix in="SourceAlpha" type="matrix" values="0 0 0 0 0 0 0 0 0 0 0 0 0 0 0 0 0 0 127 0"/>
<feOffset dx="2.61064" dy="5.22127"/>
<feGaussianBlur stdDeviation="7.83191"/>
<feColorMatrix type="matrix" values="0 0 0 0 0.761999 0 0 0 0 0.812206 0 0 0 0 0.943231 0 0 0 1 0"/>
<feBlend mode="normal" in2="BackgroundImageFix" result="effect1_dropShadow"/>
<feBlend mode="normal" in="SourceGraphic" in2="effect1_dropShadow" result="shape"/>
</filter>
<linearGradient id="paint0_linear" x1="3.89596" y1="23.4405" x2="648.902" y2="411.917" gradientUnits="userSpaceOnUse">
<stop stop-color="#5AD3C0" stop-opacity="0.06"/>
<stop offset="1" stop-color="#567FEA" stop-opacity="0.37"/>
</linearGradient>
<linearGradient id="paint1_linear" x1="305.662" y1="-172.594" x2="134" y2="108.32" gradientUnits="userSpaceOnUse">
<stop stop-color="#5AD3C0" stop-opacity="0.14"/>
<stop offset="1" stop-color="#567FEA"/>
</linearGradient>
<linearGradient id="paint2_linear" x1="399.116" y1="11.7828" x2="367.156" y2="232.593" gradientUnits="userSpaceOnUse">
<stop stop-color="#97E6FF"/>
<stop offset="1" stop-color="#4F5BD1"/>
</linearGradient>
<linearGradient id="paint3_linear" x1="275.784" y1="331.417" x2="1168.59" y2="304.847" gradientUnits="userSpaceOnUse">
<stop stop-color="#99AEE5"/>
<stop offset="1" stop-color="white" stop-opacity="0.25"/>
</linearGradient>
<linearGradient id="paint4_linear" x1="283.883" y1="229.736" x2="276.421" y2="256.83" gradientUnits="userSpaceOnUse">
<stop stop-color="#CED3FF" stop-opacity="0.95"/>
<stop offset="1" stop-color="#8C66BC"/>
</linearGradient>
<linearGradient id="paint5_linear" x1="262.068" y1="252.546" x2="251.418" y2="215.081" gradientUnits="userSpaceOnUse">
<stop stop-color="#4654CE"/>
<stop offset="1" stop-color="#DFE8FF"/>
</linearGradient>
<linearGradient id="paint6_linear" x1="286.568" y1="176.745" x2="268.926" y2="217.96" gradientUnits="userSpaceOnUse">
<stop stop-color="#6248FE" stop-opacity="0.25"/>
<stop offset="1" stop-color="#5C3D8D"/>
</linearGradient>
<linearGradient id="paint7_linear" x1="291.53" y1="254.37" x2="238.854" y2="230.939" gradientUnits="userSpaceOnUse">
<stop stop-color="#4A12B7"/>
<stop offset="1" stop-color="#DFE8FF"/>
</linearGradient>
<linearGradient id="paint8_linear" x1="398.451" y1="58.2677" x2="518.341" y2="314.265" gradientUnits="userSpaceOnUse">
<stop stop-color="white"/>
<stop offset="1" stop-color="#F1F1F1"/>
</linearGradient>
<linearGradient id="paint9_linear" x1="461.321" y1="221.429" x2="430.451" y2="300.933" gradientUnits="userSpaceOnUse">
<stop stop-color="#312F73"/>
<stop offset="1" stop-color="#524FD0" stop-opacity="0"/>
</linearGradient>
<linearGradient id="paint10_linear" x1="308.225" y1="83.2945" x2="408.957" y2="98.3026" gradientUnits="userSpaceOnUse">
<stop stop-color="#99B5FF"/>
<stop offset="1" stop-color="#D4EFFF"/>
</linearGradient>
<linearGradient id="paint11_linear" x1="307.898" y1="107.83" x2="311.18" y2="147.392" gradientUnits="userSpaceOnUse">
<stop stop-color="white"/>
<stop offset="1" stop-color="#F1F1F1"/>
</linearGradient>
<linearGradient id="paint12_linear" x1="328.028" y1="150.633" x2="354.371" y2="165.896" gradientUnits="userSpaceOnUse">
<stop stop-color="white"/>
<stop offset="1" stop-color="white" stop-opacity="0"/>
</linearGradient>
<linearGradient id="paint13_linear" x1="354.542" y1="150.633" x2="380.885" y2="165.896" gradientUnits="userSpaceOnUse">
<stop stop-color="white"/>
<stop offset="1" stop-color="white" stop-opacity="0"/>
</linearGradient>
<linearGradient id="paint14_linear" x1="328.028" y1="209.379" x2="354.371" y2="224.642" gradientUnits="userSpaceOnUse">
<stop stop-color="white"/>
<stop offset="1" stop-color="white" stop-opacity="0"/>
</linearGradient>
<linearGradient id="paint15_linear" x1="354.542" y1="209.379" x2="380.885" y2="224.642" gradientUnits="userSpaceOnUse">
<stop stop-color="white"/>
<stop offset="1" stop-color="white" stop-opacity="0"/>
</linearGradient>
<linearGradient id="paint16_linear" x1="307.898" y1="263.446" x2="311.18" y2="303.009" gradientUnits="userSpaceOnUse">
<stop stop-color="white"/>
<stop offset="1" stop-color="#F1F1F1"/>
</linearGradient>
<linearGradient id="paint17_linear" x1="524.668" y1="83.2945" x2="625.4" y2="98.3026" gradientUnits="userSpaceOnUse">
<stop stop-color="#99B5FF"/>
<stop offset="1" stop-color="#D4EFFF"/>
</linearGradient>
<linearGradient id="paint18_linear" x1="524.341" y1="107.83" x2="527.623" y2="147.392" gradientUnits="userSpaceOnUse">
<stop stop-color="white"/>
<stop offset="1" stop-color="#F1F1F1"/>
</linearGradient>
<linearGradient id="paint19_linear" x1="595.332" y1="150.633" x2="621.814" y2="166.139" gradientUnits="userSpaceOnUse">
<stop stop-color="white"/>
<stop offset="1" stop-color="white" stop-opacity="0"/>
</linearGradient>
<linearGradient id="paint20_linear" x1="542.132" y1="150.633" x2="568.613" y2="166.139" gradientUnits="userSpaceOnUse">
<stop stop-color="white"/>
<stop offset="1" stop-color="white" stop-opacity="0"/>
</linearGradient>
<linearGradient id="paint21_linear" x1="595.332" y1="209.379" x2="621.814" y2="224.885" gradientUnits="userSpaceOnUse">
<stop stop-color="white"/>
<stop offset="1" stop-color="white" stop-opacity="0"/>
</linearGradient>
<linearGradient id="paint22_linear" x1="542.132" y1="209.379" x2="568.613" y2="224.885" gradientUnits="userSpaceOnUse">
<stop stop-color="white"/>
<stop offset="1" stop-color="white" stop-opacity="0"/>
</linearGradient>
<linearGradient id="paint23_linear" x1="524.341" y1="263.446" x2="527.623" y2="303.009" gradientUnits="userSpaceOnUse">
<stop stop-color="white"/>
<stop offset="1" stop-color="#F1F1F1"/>
</linearGradient>
<linearGradient id="paint24_linear" x1="249.586" y1="360.429" x2="-2.58771" y2="350.936" gradientUnits="userSpaceOnUse">
<stop stop-color="#99AEE5"/>
<stop offset="1" stop-color="white" stop-opacity="0.25"/>
</linearGradient>
<linearGradient id="paint25_linear" x1="467.163" y1="380.523" x2="186.609" y2="368.147" gradientUnits="userSpaceOnUse">
<stop stop-color="#99AEE5"/>
<stop offset="1" stop-color="white" stop-opacity="0.25"/>
</linearGradient>
<linearGradient id="paint26_linear" x1="156.65" y1="298.307" x2="156.65" y2="341.745" gradientUnits="userSpaceOnUse">
<stop stop-color="white"/>
<stop offset="1" stop-color="#D9E4FF"/>
</linearGradient>
<linearGradient id="paint27_linear" x1="156.65" y1="298.307" x2="156.65" y2="341.745" gradientUnits="userSpaceOnUse">
<stop stop-color="white"/>
<stop offset="1" stop-color="#A9C1FF"/>
</linearGradient>
<linearGradient id="paint28_linear" x1="171.096" y1="189.066" x2="167.135" y2="187.978" gradientUnits="userSpaceOnUse">
<stop stop-color="#E0A780"/>
<stop offset="1" stop-color="#E0A780" stop-opacity="0"/>
</linearGradient>
<linearGradient id="paint29_linear" x1="182.817" y1="152.315" x2="190.613" y2="69.7428" gradientUnits="userSpaceOnUse">
<stop stop-color="#F8FAFF"/>
<stop offset="1" stop-color="#DEE7FF"/>
</linearGradient>
<linearGradient id="paint30_linear" x1="153.242" y1="192.934" x2="177.403" y2="229.835" gradientUnits="userSpaceOnUse">
<stop offset="0.182023" stop-color="#91A6DF"/>
<stop offset="1" stop-color="#BECAEB"/>
</linearGradient>
<linearGradient id="paint31_linear" x1="157.025" y1="237.613" x2="190.456" y2="280.034" gradientUnits="userSpaceOnUse">
<stop offset="0.182023" stop-color="#91A6DF"/>
<stop offset="1" stop-color="#BECAEB"/>
</linearGradient>
<linearGradient id="paint32_linear" x1="193.944" y1="257.442" x2="191.889" y2="279.702" gradientUnits="userSpaceOnUse">
<stop stop-color="#BC8660"/>
<stop offset="1" stop-color="#BC8660" stop-opacity="0"/>
</linearGradient>
<linearGradient id="paint33_linear" x1="211.933" y1="264.563" x2="209.877" y2="286.822" gradientUnits="userSpaceOnUse">
<stop stop-color="#BC8660"/>
<stop offset="1" stop-color="#BC8660" stop-opacity="0"/>
</linearGradient>
<linearGradient id="paint34_linear" x1="206.938" y1="361.423" x2="204.488" y2="351.56" gradientUnits="userSpaceOnUse">
<stop stop-color="#81DCCE"/>
<stop offset="1" stop-color="#A9E5DA"/>
</linearGradient>
<linearGradient id="paint35_linear" x1="202.308" y1="185.66" x2="221.083" y2="258.584" gradientUnits="userSpaceOnUse">
<stop offset="0.0127845" stop-color="white"/>
<stop offset="1" stop-color="#D8E3FF"/>
</linearGradient>
<linearGradient id="paint36_linear" x1="186.019" y1="202.369" x2="239.498" y2="235.434" gradientUnits="userSpaceOnUse">
<stop stop-color="#C4CCE2"/>
<stop offset="0.954354" stop-color="#C8D0E7" stop-opacity="0"/>
</linearGradient>
<linearGradient id="paint37_linear" x1="183.293" y1="351.901" x2="181.232" y2="342.618" gradientUnits="userSpaceOnUse">
<stop stop-color="#81DCCE"/>
<stop offset="1" stop-color="#A9E5DA"/>
</linearGradient>
<linearGradient id="paint38_linear" x1="180.599" y1="128.202" x2="199.905" y2="125.685" gradientUnits="userSpaceOnUse">
<stop stop-color="#140D3E"/>
<stop offset="1" stop-color="#686277"/>
</linearGradient>
<linearGradient id="paint39_linear" x1="188.776" y1="125.007" x2="190.839" y2="121.225" gradientUnits="userSpaceOnUse">
<stop stop-color="#080420" stop-opacity="0"/>
<stop offset="1" stop-color="#231A3B"/>
</linearGradient>
<linearGradient id="paint40_linear" x1="211.345" y1="216.381" x2="190.178" y2="144.099" gradientUnits="userSpaceOnUse">
<stop stop-color="#81DCCE"/>
<stop offset="1" stop-color="#A9E5DA"/>
</linearGradient>
<linearGradient id="paint41_linear" x1="200.416" y1="225.145" x2="223.469" y2="222.078" gradientUnits="userSpaceOnUse">
<stop stop-color="#8F97D5"/>
<stop offset="1" stop-color="#F5F7FF" stop-opacity="0"/>
</linearGradient>
<linearGradient id="paint42_linear" x1="187.027" y1="122.454" x2="187.468" y2="254.529" gradientUnits="userSpaceOnUse">
<stop offset="0.0127845" stop-color="white"/>
<stop offset="1" stop-color="#EAF0FF"/>
</linearGradient>
<linearGradient id="paint43_linear" x1="203.681" y1="140.817" x2="307.966" y2="220.515" gradientUnits="userSpaceOnUse">
<stop offset="0.0127845" stop-color="white"/>
<stop offset="1" stop-color="#EAF0FF"/>
</linearGradient>
<linearGradient id="paint44_linear" x1="203.426" y1="221.934" x2="201.454" y2="207.304" gradientUnits="userSpaceOnUse">
<stop stop-color="#D6E1FF"/>
<stop offset="1" stop-color="#E3E8F6" stop-opacity="0"/>
</linearGradient>
<linearGradient id="paint45_linear" x1="182.057" y1="207.39" x2="187.505" y2="198.992" gradientUnits="userSpaceOnUse">
<stop stop-color="#D6E1FF"/>
<stop offset="1" stop-color="#E3E8F6" stop-opacity="0"/>
</linearGradient>
<linearGradient id="paint46_linear" x1="188.613" y1="124.596" x2="186.673" y2="137.567" gradientUnits="userSpaceOnUse">
<stop stop-color="#212352"/>
<stop offset="1" stop-color="#4F5297"/>
</linearGradient>
<linearGradient id="paint47_linear" x1="211.05" y1="126.268" x2="206.805" y2="135.214" gradientUnits="userSpaceOnUse">
<stop stop-color="#212352"/>
<stop offset="1" stop-color="#4F5297"/>
</linearGradient>
<linearGradient id="paint48_linear" x1="190.292" y1="156.844" x2="203.642" y2="138.418" gradientUnits="userSpaceOnUse">
<stop stop-color="#B8A0FC"/>
<stop offset="1" stop-color="#26285A"/>
</linearGradient>
<linearGradient id="paint49_linear" x1="190.978" y1="157.402" x2="205.736" y2="140.137" gradientUnits="userSpaceOnUse">
<stop stop-color="#B8A0FC"/>
<stop offset="1" stop-color="#26285A"/>
</linearGradient>
<linearGradient id="paint50_linear" x1="212.1" y1="126.233" x2="207.854" y2="135.179" gradientUnits="userSpaceOnUse">
<stop stop-color="#212352"/>
<stop offset="1" stop-color="#4F5297"/>
</linearGradient>
<linearGradient id="paint51_linear" x1="191.342" y1="156.809" x2="204.692" y2="138.383" gradientUnits="userSpaceOnUse">
<stop stop-color="#B8A0FC"/>
<stop offset="1" stop-color="#26285A"/>
</linearGradient>
<linearGradient id="paint52_linear" x1="0.53934" y1="0.607034" x2="4.18407" y2="0.846907" gradientUnits="userSpaceOnUse">
<stop stop-color="#756AB2"/>
<stop offset="1" stop-color="#C4B3FF"/>
</linearGradient>
<linearGradient id="paint53_linear" x1="191.481" y1="157.33" x2="206.24" y2="140.065" gradientUnits="userSpaceOnUse">
<stop stop-color="#B8A0FC"/>
<stop offset="1" stop-color="#26285A"/>
</linearGradient>
<linearGradient id="paint54_linear" x1="0.582688" y1="0.637899" x2="4.51939" y2="0.904268" gradientUnits="userSpaceOnUse">
<stop stop-color="#756AB2"/>
<stop offset="1" stop-color="#C4B3FF"/>
</linearGradient>
<linearGradient id="paint55_linear" x1="190.323" y1="93.0295" x2="204.076" y2="114.176" gradientUnits="userSpaceOnUse">
<stop stop-color="#E0A780"/>
<stop offset="1" stop-color="#E0A780" stop-opacity="0"/>
</linearGradient>
<linearGradient id="paint56_linear" x1="193.144" y1="119.105" x2="194.692" y2="124.263" gradientUnits="userSpaceOnUse">
<stop stop-color="#E0A780"/>
<stop offset="1" stop-color="#E0A780" stop-opacity="0"/>
</linearGradient>
<linearGradient id="paint57_linear" x1="191.598" y1="96.415" x2="178.49" y2="92.8615" gradientUnits="userSpaceOnUse">
<stop stop-color="#191532"/>
<stop offset="1" stop-color="#534E62"/>
</linearGradient>
<linearGradient id="paint58_linear" x1="189.331" y1="96.1888" x2="180.906" y2="94.3282" gradientUnits="userSpaceOnUse">
<stop stop-color="#5E5B70"/>
<stop offset="1" stop-color="#9184B8"/>
</linearGradient>
<linearGradient id="paint59_linear" x1="191.16" y1="99.2315" x2="187.157" y2="93.1263" gradientUnits="userSpaceOnUse">
<stop stop-color="#151227"/>
<stop offset="1" stop-color="#9184B8"/>
</linearGradient>
<linearGradient id="paint60_linear" x1="242.391" y1="125.685" x2="165.755" y2="112.489" gradientUnits="userSpaceOnUse">
<stop stop-color="#140D3E"/>
<stop offset="1" stop-color="#686277"/>
</linearGradient>
<linearGradient id="paint61_linear" x1="199.091" y1="107.127" x2="196.464" y2="136.471" gradientUnits="userSpaceOnUse">
<stop stop-color="#080420" stop-opacity="0"/>
<stop offset="1" stop-color="#231A3B" stop-opacity="0.57"/>
</linearGradient>
<linearGradient id="paint62_linear" x1="178.584" y1="169.02" x2="239.289" y2="155.053" gradientUnits="userSpaceOnUse">
<stop stop-color="#C4CCE2" stop-opacity="0.52"/>
<stop offset="0.954354" stop-color="#C8D0E7" stop-opacity="0"/>
</linearGradient>
<linearGradient id="paint63_linear" x1="212.626" y1="255.083" x2="219.064" y2="245.107" gradientUnits="userSpaceOnUse">
<stop stop-color="#D6E1FF"/>
<stop offset="1" stop-color="#E3E8F6" stop-opacity="0"/>
</linearGradient>
<linearGradient id="paint64_linear" x1="218.809" y1="256.146" x2="226.742" y2="249.905" gradientUnits="userSpaceOnUse">
<stop stop-color="#C4CCE2" stop-opacity="0.52"/>
<stop offset="0.954354" stop-color="#C8D0E7" stop-opacity="0"/>
</linearGradient>
<linearGradient id="paint65_linear" x1="194.076" y1="255.396" x2="204.233" y2="250.361" gradientUnits="userSpaceOnUse">
<stop stop-color="#C4CCE2" stop-opacity="0.52"/>
<stop offset="0.954354" stop-color="#C8D0E7" stop-opacity="0"/>
</linearGradient>
<linearGradient id="paint66_linear" x1="174.027" y1="247.527" x2="183.599" y2="242.969" gradientUnits="userSpaceOnUse">
<stop stop-color="#C4CCE2" stop-opacity="0.52"/>
<stop offset="0.954354" stop-color="#C8D0E7" stop-opacity="0"/>
</linearGradient>
<linearGradient id="paint67_linear" x1="202.708" y1="196.599" x2="197.642" y2="195.207" gradientUnits="userSpaceOnUse">
<stop stop-color="#E0A780"/>
<stop offset="1" stop-color="#E0A780" stop-opacity="0"/>
</linearGradient>
<linearGradient id="paint68_linear" x1="217.699" y1="149.594" x2="227.669" y2="43.985" gradientUnits="userSpaceOnUse">
<stop stop-color="#F8FAFF"/>
<stop offset="1" stop-color="#DEE7FF"/>
</linearGradient>
<linearGradient id="paint69_linear" x1="686.423" y1="372.961" x2="395.243" y2="361.635" gradientUnits="userSpaceOnUse">
<stop stop-color="#99AEE5"/>
<stop offset="1" stop-color="white" stop-opacity="0.25"/>
</linearGradient>
<linearGradient id="paint70_linear" x1="407.997" y1="204.234" x2="404.731" y2="206.735" gradientUnits="userSpaceOnUse">
<stop offset="0.182023" stop-color="#91A6DF"/>
<stop offset="1" stop-color="#BECAEB"/>
</linearGradient>
<linearGradient id="paint71_linear" x1="421.726" y1="211.266" x2="395.44" y2="171.584" gradientUnits="userSpaceOnUse">
<stop offset="0.0127845" stop-color="white"/>
<stop offset="1" stop-color="#EAF0FF"/>
</linearGradient>
<linearGradient id="paint72_linear" x1="408.402" y1="182.732" x2="419.5" y2="205.189" gradientUnits="userSpaceOnUse">
<stop stop-color="#C4CCE2" stop-opacity="0.52"/>
<stop offset="0.954354" stop-color="#C8D0E7" stop-opacity="0"/>
</linearGradient>
<linearGradient id="paint73_linear" x1="384.963" y1="132.452" x2="386.065" y2="139.338" gradientUnits="userSpaceOnUse">
<stop stop-color="#E0A780"/>
<stop offset="1" stop-color="#E0A780" stop-opacity="0"/>
</linearGradient>
<linearGradient id="paint74_linear" x1="403.563" y1="156.166" x2="362.908" y2="174.768" gradientUnits="userSpaceOnUse">
<stop stop-color="#91A6DF"/>
<stop offset="1" stop-color="#BECAEB"/>
</linearGradient>
<linearGradient id="paint75_linear" x1="368.646" y1="219.438" x2="388.13" y2="155.814" gradientUnits="userSpaceOnUse">
<stop stop-color="#BCADDA"/>
<stop offset="1" stop-color="#D9CAE5"/>
</linearGradient>
<linearGradient id="paint76_linear" x1="379.422" y1="141.323" x2="379.422" y2="203.738" gradientUnits="userSpaceOnUse">
<stop stop-color="#B199C4"/>
<stop offset="1" stop-color="#DACBE6" stop-opacity="0.09"/>
</linearGradient>
<linearGradient id="paint77_linear" x1="415.17" y1="352.291" x2="410.845" y2="365.158" gradientUnits="userSpaceOnUse">
<stop stop-color="#5352A1"/>
<stop offset="1" stop-color="#271B72"/>
</linearGradient>
<linearGradient id="paint78_linear" x1="389.569" y1="200.727" x2="389.569" y2="346.229" gradientUnits="userSpaceOnUse">
<stop stop-color="#5352A1"/>
<stop offset="1" stop-color="#271B72"/>
</linearGradient>
<linearGradient id="paint79_linear" x1="376.752" y1="364.671" x2="371.642" y2="377.247" gradientUnits="userSpaceOnUse">
<stop stop-color="#5352A1"/>
<stop offset="1" stop-color="#271B72"/>
</linearGradient>
<linearGradient id="paint80_linear" x1="369.774" y1="205.177" x2="384.371" y2="357.744" gradientUnits="userSpaceOnUse">
<stop stop-color="#5352A1"/>
<stop offset="1" stop-color="#271B72"/>
</linearGradient>
<linearGradient id="paint81_linear" x1="395.93" y1="242.557" x2="395.93" y2="346.288" gradientUnits="userSpaceOnUse">
<stop stop-color="#2F2479"/>
<stop offset="1" stop-color="#31277C" stop-opacity="0.03"/>
</linearGradient>
<linearGradient id="paint82_linear" x1="380.913" y1="138.428" x2="380.913" y2="149.392" gradientUnits="userSpaceOnUse">
<stop stop-color="#B199C4"/>
<stop offset="1" stop-color="#DACBE6" stop-opacity="0.09"/>
</linearGradient>
<linearGradient id="paint83_linear" x1="374.409" y1="183.746" x2="369.917" y2="227.736" gradientUnits="userSpaceOnUse">
<stop stop-color="#AAA1B9"/>
<stop offset="1" stop-color="#D3C5EA"/>
</linearGradient>
<linearGradient id="paint84_linear" x1="397.093" y1="155.025" x2="342.039" y2="177.054" gradientUnits="userSpaceOnUse">
<stop offset="0.0127845" stop-color="white"/>
<stop offset="1" stop-color="#EAF0FF"/>
</linearGradient>
<linearGradient id="paint85_linear" x1="374.165" y1="199.827" x2="335.339" y2="173.988" gradientUnits="userSpaceOnUse">
<stop stop-color="#C4CCE2" stop-opacity="0.52"/>
<stop offset="0.954354" stop-color="#C8D0E7" stop-opacity="0"/>
</linearGradient>
<linearGradient id="paint86_linear" x1="377.226" y1="191.653" x2="367.46" y2="223.725" gradientUnits="userSpaceOnUse">
<stop stop-color="white"/>
<stop offset="1" stop-color="#D9E4FF"/>
</linearGradient>
<linearGradient id="paint87_linear" x1="377.226" y1="191.653" x2="367.46" y2="223.725" gradientUnits="userSpaceOnUse">
<stop stop-color="white"/>
<stop offset="1" stop-color="#A9C1FF"/>
</linearGradient>
<linearGradient id="paint88_linear" x1="342.014" y1="260.717" x2="354.422" y2="240.464" gradientUnits="userSpaceOnUse">
<stop stop-color="#D6E1FF"/>
<stop offset="1" stop-color="#E3E8F6" stop-opacity="0"/>
</linearGradient>
<linearGradient id="paint89_linear" x1="355.229" y1="191.179" x2="368.011" y2="205.296" gradientUnits="userSpaceOnUse">
<stop stop-color="#C4CCE2" stop-opacity="0.52"/>
<stop offset="0.954354" stop-color="#C8D0E7" stop-opacity="0"/>
</linearGradient>
<linearGradient id="paint90_linear" x1="364.939" y1="216.882" x2="364.652" y2="147.584" gradientUnits="userSpaceOnUse">
<stop stop-color="white"/>
<stop offset="1" stop-color="#EAF0FF"/>
</linearGradient>
<linearGradient id="paint91_linear" x1="392.786" y1="140.575" x2="391.747" y2="152.726" gradientUnits="userSpaceOnUse">
<stop stop-color="#212352"/>
<stop offset="1" stop-color="#4F5297"/>
</linearGradient>
<linearGradient id="paint92_linear" x1="370.816" y1="138.364" x2="372.245" y2="147.46" gradientUnits="userSpaceOnUse">
<stop stop-color="#212352"/>
<stop offset="1" stop-color="#4F5297"/>
</linearGradient>
<linearGradient id="paint93_linear" x1="381.27" y1="171.098" x2="374.221" y2="151.15" gradientUnits="userSpaceOnUse">
<stop stop-color="#B8A0FC"/>
<stop offset="1" stop-color="#26285A"/>
</linearGradient>
<linearGradient id="paint94_linear" x1="380.512" y1="171.415" x2="371.901" y2="152.131" gradientUnits="userSpaceOnUse">
<stop stop-color="#B8A0FC"/>
<stop offset="1" stop-color="#26285A"/>
</linearGradient>
<linearGradient id="paint95_linear" x1="369.889" y1="138.054" x2="371.318" y2="147.15" gradientUnits="userSpaceOnUse">
<stop stop-color="#212352"/>
<stop offset="1" stop-color="#4F5297"/>
</linearGradient>
<linearGradient id="paint96_linear" x1="380.343" y1="170.789" x2="373.294" y2="150.841" gradientUnits="userSpaceOnUse">
<stop stop-color="#B8A0FC"/>
<stop offset="1" stop-color="#26285A"/>
</linearGradient>
<linearGradient id="paint97_linear" x1="0.499235" y1="0.566654" x2="3.87319" y2="0.786842" gradientUnits="userSpaceOnUse">
<stop stop-color="#756AB2"/>
<stop offset="1" stop-color="#C4B3FF"/>
</linearGradient>
<linearGradient id="paint98_linear" x1="379.584" y1="171.106" x2="370.973" y2="151.822" gradientUnits="userSpaceOnUse">
<stop stop-color="#B8A0FC"/>
<stop offset="1" stop-color="#26285A"/>
</linearGradient>
<linearGradient id="paint99_linear" x1="0.543986" y1="0.591971" x2="4.21901" y2="0.842129" gradientUnits="userSpaceOnUse">
<stop stop-color="#756AB2"/>
<stop offset="1" stop-color="#C4B3FF"/>
</linearGradient>
<linearGradient id="paint100_linear" x1="367.782" y1="115.323" x2="379.5" y2="96.8929" gradientUnits="userSpaceOnUse">
<stop stop-color="#140D3E"/>
<stop offset="1" stop-color="#8D6589"/>
</linearGradient>
<linearGradient id="paint101_linear" x1="376.747" y1="112.937" x2="405.137" y2="128.122" gradientUnits="userSpaceOnUse">
<stop stop-color="#E0A780"/>
<stop offset="1" stop-color="#E0A780" stop-opacity="0"/>
</linearGradient>
<linearGradient id="paint102_linear" x1="564.637" y1="122.515" x2="569.606" y2="123.988" gradientUnits="userSpaceOnUse">
<stop stop-color="#E0A780"/>
<stop offset="1" stop-color="#E0A780" stop-opacity="0"/>
</linearGradient>
<linearGradient id="paint103_linear" x1="578.931" y1="115.172" x2="550.833" y2="114.952" gradientUnits="userSpaceOnUse">
<stop stop-color="#343333"/>
<stop offset="1" stop-color="#503050"/>
</linearGradient>
<linearGradient id="paint104_linear" x1="647.041" y1="323.338" x2="659.835" y2="345.412" gradientUnits="userSpaceOnUse">
<stop stop-color="#273292"/>
<stop offset="1" stop-color="#0D196D"/>
</linearGradient>
<linearGradient id="paint105_linear" x1="561.575" y1="217.731" x2="643.75" y2="335.859" gradientUnits="userSpaceOnUse">
<stop stop-color="#2E3492"/>
<stop offset="1" stop-color="#0D196D"/>
</linearGradient>
<linearGradient id="paint106_linear" x1="597.697" y1="357.657" x2="586.622" y2="384.794" gradientUnits="userSpaceOnUse">
<stop stop-color="#3B47B0"/>
<stop offset="1" stop-color="#15227D"/>
</linearGradient>
<linearGradient id="paint107_linear" x1="573.371" y1="218.158" x2="533.798" y2="239.422" gradientUnits="userSpaceOnUse">
<stop stop-color="#3B47B0"/>
<stop offset="1" stop-color="#15227D"/>
</linearGradient>
<linearGradient id="paint108_linear" x1="576.659" y1="152.27" x2="560.991" y2="208.295" gradientUnits="userSpaceOnUse">
<stop offset="0.0127845" stop-color="#F6F9FF"/>
<stop offset="1" stop-color="#E9EFFF"/>
</linearGradient>
<linearGradient id="paint109_linear" x1="564.873" y1="169.527" x2="547.943" y2="190.738" gradientUnits="userSpaceOnUse">
<stop stop-color="#6D79C4"/>
<stop offset="1" stop-color="#D7DDFB" stop-opacity="0"/>
</linearGradient>
<linearGradient id="paint110_linear" x1="613.596" y1="149.213" x2="572.66" y2="244.318" gradientUnits="userSpaceOnUse">
<stop offset="0.0127845" stop-color="white"/>
<stop offset="1" stop-color="#EAF0FF"/>
</linearGradient>
<linearGradient id="paint111_linear" x1="516.071" y1="139.159" x2="555.975" y2="179.636" gradientUnits="userSpaceOnUse">
<stop stop-color="#C4CCE2" stop-opacity="0.52"/>
<stop offset="0.954354" stop-color="#C8D0E7" stop-opacity="0"/>
</linearGradient>
<linearGradient id="paint112_linear" x1="568.573" y1="187.774" x2="575.365" y2="187.999" gradientUnits="userSpaceOnUse">
<stop stop-color="#C4CCE2" stop-opacity="0.52"/>
<stop offset="0.954354" stop-color="#C8D0E7" stop-opacity="0"/>
</linearGradient>
<linearGradient id="paint113_linear" x1="578.017" y1="117.086" x2="576.524" y2="124.946" gradientUnits="userSpaceOnUse">
<stop stop-color="#BC8660"/>
<stop offset="1" stop-color="#F3BB93"/>
</linearGradient>
<linearGradient id="paint114_linear" x1="602.537" y1="244.531" x2="624.432" y2="258.604" gradientUnits="userSpaceOnUse">
<stop stop-color="#C4CCE2" stop-opacity="0.52"/>
<stop offset="0.954354" stop-color="#C8D0E7" stop-opacity="0"/>
</linearGradient>
<linearGradient id="paint115_linear" x1="527.009" y1="303.035" x2="487.487" y2="282.537" gradientUnits="userSpaceOnUse">
<stop stop-color="#345ECC"/>
<stop offset="1" stop-color="#8EADFF"/>
</linearGradient>
<linearGradient id="paint116_linear" x1="487.261" y1="281.803" x2="527.009" y2="303.035" gradientUnits="userSpaceOnUse">
<stop stop-color="#8CACFF"/>
<stop offset="1" stop-color="#3A63CF"/>
</linearGradient>
</defs>
</svg>
